<?xml version="1.0" encoding="utf-8"?>
<!-- Generator: Adobe Illustrator 21.1.0, SVG Export Plug-In . SVG Version: 6.00 Build 0)  -->
<svg version="1.1" id="nachzeichnungs_Ergebnis" xmlns="http://www.w3.org/2000/svg" xmlns:xlink="http://www.w3.org/1999/xlink"
	 x="0px" y="0px" viewBox="0 0 270.2 108" style="enable-background:new 0 0 270.2 108;" xml:space="preserve">
<style type="text/css">
	.st0{fill:#004D9E;}
	.st1{fill:#00963E;}
</style>
<rect x="31.3" y="97.3" class="st0" width="64.3" height="7.2"/>
<rect x="183.8" y="97" class="st0" width="85.4" height="7.1"/>
<path class="st1" d="M0.8,58.7v-5.4C6.7,46.2,15.5,37,18.6,33.9C33.4,19.6,42.7,11,48.1,7.8C58.8,1.6,74.4-2.3,81.3,4.5
	c1.9,1.5,14.6,11.3,19.8,11.9c2.3,0.2,3.2-1.3,17.5-6.8c3.1-1.2,10.2-4.2,19.2-1.8c7.7,2,25.8,7.5,27.5,7.7c2.6,0.3,5-1.8,6.5-1.8
	c2.1-0.1,5.7,0.9,12.1,7.8v6.9c0,0-4.8-5.4-6-6.5c-2.8-2.6-5.1,2.3-9.4,2.2c-5.3-0.1-15.8-7.6-27.3-10.3c-6.2-1.5-18.8,3.7-29.2,7.7
	c-11,4.2-23-8-31.4-12.5c-2.5-1.3-8.8-3.6-20.8,3.2C50.6,17.3,43,22.4,34.7,29.9C28.3,35.6,19.5,43.7,0.8,58.7z"/>
<g>
	<path d="M32.3,49.1c0.7,1.1,1.5,1.6,2.8,1.6c1.4,0,2.4-0.8,2.4-2.3c0-3.2-5.9-1.5-5.9-5.4c0-2.1,1.6-3.2,3.6-3.2
		c1.1,0,2.3,0.5,3,1.4l-0.6,0.8c-0.7-0.6-1.4-1.1-2.4-1.1c-1.3,0-2.5,0.7-2.5,2.1c0,2.9,5.9,1.4,5.9,5.4c0,2.1-1.6,3.4-3.6,3.4
		c-1.6,0-2.8-0.6-3.6-2L32.3,49.1z"/>
	<path d="M43.8,51.5l-1,0.1V41.1h-3.2l0.2-1h7v1h-3V51.5z"/>
	<path d="M48.7,40l1-0.3v11.7l-1,0.1V40z"/>
	<path d="M57.5,40l0.2,1h-4v4.1h3.2v1h-3.2v5.3l-1,0.1V40H57.5z"/>
	<path d="M62.4,51.5l-1,0.1V41.1h-3.2l0.2-1h7v1h-3V51.5z"/>
	<path d="M75,47.9c0,2.4-1.6,3.9-4,3.9c-2.5,0-4-1.5-4-3.9V40l1-0.3v8.1c0,1.2,1,2.8,3,2.8c1.9,0,3-1.5,3-3.1V40l1-0.3V47.9z"/>
	<path d="M85.4,40l1-0.2v11.9h0l-7.7-9.2h0v9l-1,0.1V39.8h0l7.7,9.2h0V40z"/>
	<path d="M98.3,50.2c-1.3,1-2.7,1.6-4.2,1.6c-3.2,0-5.8-2.5-5.8-6.1c0-3.1,2.3-5.9,6-5.9c1.2,0,2.8,0.6,3.7,1.5l-0.6,0.8
		c-0.9-0.6-2-1.3-3.1-1.3c-2.8,0-4.9,2.2-4.9,4.9c0,2.8,2.1,5,4.7,5c1.2,0,2.1-0.4,3-1.1v-3.3h-3.7l0.3-1h4.4V50.2z"/>
	<path d="M105.3,49.1c0.7,1.1,1.5,1.6,2.8,1.6c1.4,0,2.4-0.8,2.4-2.3c0-3.2-5.9-1.5-5.9-5.4c0-2.1,1.6-3.2,3.6-3.2
		c1.1,0,2.3,0.5,3,1.4l-0.6,0.8c-0.7-0.6-1.4-1.1-2.4-1.1c-1.3,0-2.5,0.7-2.5,2.1c0,2.9,5.9,1.4,5.9,5.4c0,2.1-1.6,3.4-3.6,3.4
		c-1.6,0-2.8-0.6-3.6-2L105.3,49.1z"/>
	<path d="M113.8,51.5V40h6.2l0.2,1h-5.4v4.1h4.6v1h-4.6v4.3h5.6l-0.2,1H113.8z"/>
	<path d="M130.2,40l1-0.2v11.9h0l-7.7-9.2h0v9l-1,0.1V39.8h0l7.7,9.2h0V40z"/>
	<path d="M134.1,40l1-0.3v11.7l-1,0.1V40z"/>
	<path d="M149.3,45.8c0,3.3-2.8,6-6.1,6c-3.3,0-6.1-2.7-6.1-6c0-3.3,2.8-6,6.1-6C146.6,39.8,149.3,42.4,149.3,45.8z M138.3,45.8
		c0,2.7,2.3,5,4.9,5s4.9-2.3,4.9-5c0-2.7-2.3-5-4.9-5S138.3,43.1,138.3,45.8z"/>
	<path d="M151.2,51.6V40h2.3c1.9,0,3.3,1.4,3.3,3.4c0,1.7-1,3-2.7,3.3l3.5,4.4l-1.1,0.6l-4.3-5.6h-0.1v5.5L151.2,51.6z M152.3,45.8
		h1.4c1.4,0,2-1,2-2.4c0-1.1-0.8-2.3-2-2.3h-1.5V45.8z"/>
	<path d="M159.1,51.5V40h6.2l0.2,1h-5.4v4.1h4.6v1h-4.6v4.3h5.6l-0.2,1H159.1z"/>
	<path d="M175.4,40l1-0.2v11.9h0l-7.7-9.2h0v9l-1,0.1V39.8h0l7.7,9.2h0V40z"/>
	<path d="M178.8,40h8l-6.7,10.4h6.9l-0.2,1h-8.6l6.7-10.4h-6.4L178.8,40z"/>
	<path d="M188.8,51.5V40h6.2l0.2,1h-5.4v4.1h4.6v1h-4.6v4.3h5.6l-0.2,1H188.8z"/>
	<path d="M205.2,40l1-0.2v11.9h0l-7.7-9.2h0v9l-1,0.1V39.8h0l7.7,9.2h0V40z"/>
	<path d="M212,51.5l-1,0.1V41.1h-3.2l0.2-1h7v1h-3V51.5z"/>
	<path d="M216.6,51.6V40h2.3c1.9,0,3.3,1.4,3.3,3.4c0,1.7-1,3-2.7,3.3l3.5,4.4l-1.1,0.6l-4.3-5.6h-0.1v5.5L216.6,51.6z M217.7,45.8
		h1.4c1.4,0,2-1,2-2.4c0-1.1-0.8-2.3-2-2.3h-1.5V45.8z"/>
	<path d="M232.4,47.9c0,2.4-1.6,3.9-4,3.9c-2.5,0-4-1.5-4-3.9V40l1-0.3v8.1c0,1.2,1,2.8,3,2.8c1.9,0,3-1.5,3-3.1V40l1-0.3V47.9z"/>
	<path d="M244.2,39.8L244.2,39.8l2.3,11.7l-1,0.1l-1.6-8.5h0l-3.5,8.6h0l-3.6-8.6h0l-1.6,8.5l-1-0.1l2.3-11.7h0l3.9,9.3L244.2,39.8z
		"/>
</g>
<g>
	<path d="M102,102l-2.3,4.6l-1.1-0.3l5.7-11.4h0l5.7,11.4l-1,0.2l-2.3-4.6H102z M104.3,97.3l-1.9,3.7h3.7L104.3,97.3z"/>
	<path d="M111.4,106.4V95.2l1-0.3v10.4h4.1l-0.3,1H111.4z"/>
	<path d="M120,106.4l-1,0.1V96.2h-3.1l0.2-1h6.8v1H120V106.4z"/>
	<path d="M124.6,106.4V95.2h6l0.2,1h-5.2v4h4.5v1h-4.5v4.1h5.5l-0.2,1H124.6z"/>
	<path d="M140.3,95.2l1-0.2v11.6h0l-7.5-9h0v8.7l-1,0.1V95h0l7.5,8.9h0V95.2z"/>
	<path d="M144.2,95.2h2.9c3.1,0,5.4,2.4,5.4,5.5c0,3.2-2.3,5.6-5.4,5.6h-2.9V95.2z M145.2,105.4h1.6c2.6,0,4.5-2,4.5-4.6
		c0-2.6-1.6-4.5-4.3-4.5h-1.9V105.4z"/>
	<path d="M165.7,100.8c0,3.2-2.7,5.8-5.9,5.8s-5.9-2.6-5.9-5.8c0-3.2,2.7-5.8,5.9-5.8S165.7,97.6,165.7,100.8z M155,100.8
		c0,2.6,2.2,4.8,4.8,4.8s4.8-2.2,4.8-4.8c0-2.6-2.2-4.8-4.8-4.8S155,98.2,155,100.8z"/>
	<path d="M167.8,106.5V95.2h2.2c1.9,0,3.2,1.3,3.2,3.3c0,1.7-1,2.9-2.6,3.2l3.4,4.3l-1,0.5l-4.2-5.4h-0.1v5.3L167.8,106.5z
		 M168.8,100.9h1.4c1.3,0,2-1,2-2.4c0-1.1-0.8-2.3-2-2.3h-1.4V100.9z"/>
	<path d="M180.4,95.2l0.2,1h-3.9v4h3.1v1h-3.1v5.1l-1,0.1V95.2H180.4z"/>
</g>
<g>
	<polygon points="33.1,62.5 33.1,86.7 48.3,86.7 51.5,80.8 40.7,80.8 40.7,77.2 48.3,77.2 48.3,71.5 40.7,71.5 40.7,68.3 49.6,68.3 
		49.6,62.5 	"/>
	<polygon points="119.2,62.5 119.2,86.7 134.3,86.7 137.6,80.8 126.8,80.8 126.8,77.2 134.4,77.2 134.4,71.5 126.8,71.5 126.8,68.3 
		135.6,68.3 135.6,62.5 	"/>
	<polygon points="57,62.5 57,86.7 64.5,86.7 64.5,74.8 75.8,86.7 81.2,86.7 81.2,62.5 73.6,62.5 73.6,73.6 63.3,62.5 	"/>
	<path d="M110.6,69.8c0-1.7,0-6.5,0-6.5c-2.4-1.4-22.7-4.9-23.1,11.5c-0.4,13.8,16.5,14.4,25,10.1l0-12.1l-9.7,0l-2.9,5.2h5.4v3.9
		c-1.5,0.6-10,1.5-10-7.2c0-9.2,12.1-7.9,14.8-5.2C110.3,69.6,110.6,69.8,110.6,69.8z"/>
	<polygon points="166.3,62.5 174.1,62.5 174.1,71.2 181.3,71.2 181.3,62.5 189.1,62.5 189.1,86.7 181.3,86.7 181.3,76.9 174,76.9 
		174,86.7 166.3,86.7 	"/>
	<path d="M208.8,61.9c-18.4,0-17.7,26,0,25.4C226.6,87.3,227,61.9,208.8,61.9z M203.3,74.6c0-9.2,10.7-9.6,10.7-0.1
		C214.1,83.7,203.3,83.9,203.3,74.6z"/>
	<polygon points="245.6,62.5 228.4,62.5 228.4,86.7 236.2,86.7 236.2,78 244.1,78 244.1,72.3 236.2,72.3 236.2,68.2 245.6,68.2 	"/>
	<path d="M150.8,80.8l0-18.3h-7.1h-0.5H143v0.7h0v23.4h15c0.1,0,0.2-0.1,0.2-0.1l3.4-5.7H150.8z"/>
</g>
</svg>
