<svg xmlns="http://www.w3.org/2000/svg" viewBox="0 0 106.02 100.35"><defs><style>.cls-1{fill:#80cbcd;}.cls-2{fill:#6ab53b;}.cls-3{fill:#64b43f;}.cls-4{fill:#12120d;}</style></defs><title>Zeichenfläche 1 Kopie 5</title><g id="Ebene_3" data-name="Ebene 3"><path class="cls-1" d="M25.38,27.75l-1.12-1.11L28.4,22.5a1.9,1.9,0,0,0-2.5-2.84l-.71.69-1.11-1.11s.7-.7.86-.82a3.47,3.47,0,0,1,4.57,5.2Z"/><path class="cls-2" d="M21.1,30.58a3.47,3.47,0,0,1-2.45-5.92l3.82-3.82L23.58,22l-3.82,3.82a1.9,1.9,0,0,0,2.5,2.84l.39-.37,1.12,1.11c-.1.09-.45.42-.55.5A3.41,3.41,0,0,1,21.1,30.58Z"/><path class="cls-2" d="M23.58,29.53l-1.11-1.11,4.25-4.26-4.31-4.31a1.93,1.93,0,0,0-2.68,0,1.9,1.9,0,0,0,0,2.68l1.21,1.21-1.11,1.11-1.21-1.21a3.46,3.46,0,0,1,0-4.91,3.55,3.55,0,0,1,4.9,0L29,24.16Z"/><path class="cls-1" d="M27,30.61a3.48,3.48,0,0,1-2.45-1l-5.43-5.43,5.09-5.1,1.12,1.12-4,4,4.31,4.31a1.9,1.9,0,0,0,2.68-2.68L27,24.41l1.11-1.11,1.39,1.39A3.47,3.47,0,0,1,27,30.61Z"/><polygon class="cls-3" points="23.76 29.35 22.65 28.24 26.73 24.16 26.02 23.45 27.13 22.34 28.95 24.16 23.76 29.35"/><path class="cls-4" d="M21.05,48.66v7.42H17.6v-18h7.6c3.66,0,5.7,2.06,5.7,5.3A4.84,4.84,0,0,1,27,48.48l4.48,7.6h-4l-4.35-7.42Zm4.23-7.19H21.05v3.84h4.23c1.31,0,2.17-.67,2.17-1.9S26.59,41.47,25.28,41.47Z"/><path class="cls-4" d="M37.61,52.45l-1.29,3.63H32.71l6.44-18h3.3l6.44,18h-3.6L44,52.45ZM40,36H36.55V33H40Zm.8,7.33-2,5.85h4ZM45.05,36H41.6V33h3.45Z"/><path class="cls-4" d="M57.29,51.24l-3.12-6.49V56.08H50.74v-18H54.2l4.45,9.27,4.46-9.27h3.45v18H63.14V44.75L60,51.24Z"/><path class="cls-4" d="M73.08,56.08H69.62v-18h3.46Z"/><path class="cls-4" d="M75.72,50.39h3.56a2.91,2.91,0,0,0,3.12,2.52c1.52,0,2.58-.56,2.58-1.8,0-1-.6-1.57-1.86-1.91l-3-.82A5.15,5.15,0,0,1,76,43.05c0-3.61,2.83-5.26,6-5.26,3.61,0,5.85,2.11,6.24,5.18H84.61a2.65,2.65,0,0,0-2.73-1.75c-1.44,0-2.47.56-2.47,1.83,0,1.05.82,1.52,1.8,1.77l2.94.8c2.78.75,4.28,2.45,4.28,5.49,0,3.25-2.12,5.23-6,5.23S75.9,54,75.72,50.39Z"/><path class="cls-4" d="M24,77.91l-3-6.34V82.64H17.56V65h3.37l4.36,9.06L29.64,65H33V82.64H29.67V71.57l-3.05,6.34Z"/><path class="cls-4" d="M48.66,65V76.38c0,3.9-2.28,6.51-6.51,6.51s-6.5-2.61-6.5-6.51V65H39V76.38a3.13,3.13,0,1,0,6.26,0V65Zm-7.15-2H38.14V59.78h3.37Zm4.65,0H42.79V59.78h3.37Z"/><path class="cls-4" d="M60.93,65H64.3V82.64H60.93V75.42H54.67v7.22H51.29V65h3.38v7h6.26Z"/><path class="cls-4" d="M70.47,79.3h5.72v3.34H67.1V65h3.37Z"/><path class="cls-4" d="M81.73,72.07h6.65v3.35H81.73V79.3h6.65v3.34h-10V65h10v3.34H81.73Z"/><path class="cls-4" d="M34.15,28.48v-1l4.66-7.06h-4.6v-1H40v1L35.31,27.5H40v1Z"/><path class="cls-4" d="M43.08,27.5h4.13v1H42.09v-9h5.12v1H43.08v3h4.13v1H43.08Z"/><path class="cls-4" d="M55.23,28.48h-1l-3.84-7.1v7.1h-1v-9h1l3.84,7.1v-7.1h1Z"/><path class="cls-4" d="M57.11,20.44v-1h5.81v1H60.51v8h-1v-8Z"/><path class="cls-4" d="M65.79,24.4v4.08h-1v-9h3.07a2.36,2.36,0,0,1,2.6,2.48,2.3,2.3,0,0,1-2.12,2.43l2.41,4.11H69.62l-2.4-4.08Zm2.08-4H65.79v3h2.08a1.51,1.51,0,1,0,0-3Z"/><path class="cls-4" d="M72.53,19.46h1v6.1a1.93,1.93,0,1,0,3.84,0v-6.1h1v6.1a2.91,2.91,0,1,1-5.82,0Z"/><path class="cls-4" d="M86.91,19.46h1v9h-1V21.55l-2.15,4.51h-.93l-2.15-4.51v6.93h-1v-9h1l2.6,5.47Z"/></g></svg>