<?xml version="1.0" encoding="utf-8"?>
<!-- Generator: Adobe Illustrator 25.0.1, SVG Export Plug-In . SVG Version: 6.00 Build 0)  -->
<svg version="1.1" id="Ebene_1" xmlns="http://www.w3.org/2000/svg" xmlns:xlink="http://www.w3.org/1999/xlink" x="0px" y="0px"
	 viewBox="0 0 904.4 178.7" style="enable-background:new 0 0 904.4 178.7;" xml:space="preserve">
<style type="text/css">
	.st0{fill:#0072BC;stroke:#1D1D1B;stroke-width:3;stroke-miterlimit:10;}
	.st1{fill:#FFCC00;stroke:#1D1D1B;stroke-miterlimit:10;}
	.st2{fill:#1270A9;stroke:#1D1D1B;stroke-miterlimit:10;}
	.st3{fill:#FFFFFF;stroke:#1D1D1B;stroke-miterlimit:10;}
	.st4{fill:#22B24C;stroke:#1D1D1B;stroke-miterlimit:10;}
	.st5{fill:#0072BC;}
</style>
<g>
	<path class="st0" d="M153.2,108.2c-2.2,30.8-17.6,62-71.6,62c-53.9,0-68.1-33.7-69.6-63.6c-1.4-35.3-5.3-100-5.3-100h151.6
		C158.3,6.6,155,85.7,153.2,108.2z"/>
	<polygon class="st1" points="40.8,27.6 44.1,35.2 52.3,34.3 47.4,40.9 52.3,47.6 44.1,46.7 40.8,54.2 37.4,46.7 29.3,47.6 
		34.1,40.9 29.3,34.3 37.4,35.2 	"/>
	<polygon class="st1" points="82.5,16.9 85.8,24.4 94,23.5 89.2,30.2 94,36.8 85.8,35.9 82.5,43.5 79.2,35.9 71,36.8 75.9,30.2 
		71,23.5 79.2,24.4 	"/>
	<polygon class="st1" points="123.3,27.6 126.7,35.2 134.8,34.3 130,40.9 134.8,47.6 126.7,46.7 123.3,54.2 120,46.7 111.8,47.6 
		116.7,40.9 111.8,34.3 120,35.2 	"/>
	<polygon class="st1" points="119.1,88.4 123.4,96.8 132.3,93.9 129.5,102.8 137.8,107.2 129.5,111.5 132.3,120.4 123.4,117.6 
		119.1,125.9 114.8,117.6 105.8,120.4 108.7,111.5 100.3,107.2 108.7,102.8 105.8,93.9 114.8,96.8 	"/>
	<circle class="st1" cx="119.1" cy="107.2" r="11.4"/>
	<circle class="st1" cx="47.6" cy="107.3" r="17.9"/>
	<circle class="st2" cx="53.6" cy="107.3" r="11.9"/>
	<path class="st3" d="M130.7,63.2c-14.7,2.9-29.2,4.4-43.7,4.7c0.1-5.6,0.5-11.2,0.8-16.6H76.3c0.5,4.7,0.8,10.6,1,16.6
		c-14.9-0.3-29.6-1.8-44.3-4.8L40,78c12.4-1.3,24.9-2,37.3-2.1c-0.2,17.5-2,38.1-4.2,59.6h17.5c-2.1-20.7-3.4-40.7-3.5-59.6
		c12.2,0.2,24.4,0.9,36.6,2.1L130.7,63.2z"/>
	<g>
		<path class="st4" d="M108.9,141.7c-2.3,0-4.5,0.4-6.5,1.1c-1.2,0.3-2.4,0.7-5.3-0.1c-2.1-5.9-8.3-10.1-15.6-10.1
			c-7.3,0-13.5,4.3-15.6,10.1l0,0c-3,0.7-4.1,0.4-5.3,0.1c-2-0.7-4.2-1.1-6.5-1.1c-9.6,0-17.4,6.9-17.6,15.4
			c10.4,7,24.9,11.4,44.8,11.4c5.1,0,9.8-0.3,14.2-0.8l0,0l0,0c12.8-1.5,22.9-5,30.9-9.9c0-0.1,0-0.3,0-0.4
			C126.4,148.7,118.6,141.7,108.9,141.7z"/>
	</g>
	<g>
		<path class="st5" d="M295.3,74.6c0,2.9-1.1,5.1-3.4,6.7c-2,1.4-4.6,2.1-7.6,2.1c-3.2,0-6.3-0.5-9.2-1.5l-0.2-6.6h2.5
			c0.3,2,1.1,3.6,2.3,4.8c1.2,1.2,2.9,1.8,4.9,1.8c1.7,0,3-0.4,4.1-1.2c1.2-0.9,1.8-2.2,1.8-3.8c0-2.1-1.3-3.6-4-4.8
			c-2.5-1-4.9-1.9-7.4-2.9c-2.6-1.5-4-3.7-4-6.6c0-2.7,1-4.8,3.1-6.4c1.8-1.3,4.2-2,7-2c2.6,0,5.3,0.5,8.2,1.5l0.2,6.6h-2.1
			c-0.6-4.3-2.8-6.5-6.5-6.5c-1.5,0-2.7,0.4-3.6,1.2s-1.4,1.9-1.4,3.4c0,1.8,1.3,3.3,4,4.3c4.9,1.9,7.3,2.8,7.3,2.8
			C294,69.1,295.3,71.5,295.3,74.6z"/>
		<path class="st5" d="M316.7,76.7c-0.5,2.5-1.4,4.2-2.8,5.3c-1.2,1-2.9,1.4-5,1.4c-3.1,0-5.5-0.9-7.2-2.6s-2.5-4.2-2.5-7.3
			c0-3.2,0.9-5.7,2.6-7.5s4.2-2.7,7.4-2.7c1.8,0,3.3,0.3,4.7,0.8c1.9,0.7,2.8,1.8,2.8,3.3c0,1.1-0.1,1.7-0.4,2s-0.9,0.4-2.1,0.4
			c-0.6,0-1-0.1-1.2-0.2s-0.3-0.5-0.4-1.2c-0.2-1.3-0.4-2.1-0.7-2.6c-0.5-0.7-1.3-1.1-2.4-1.1c-1.8,0-3,0.9-3.6,2.6
			c-0.4,1.1-0.6,2.7-0.6,4.9c0,3,0.2,5,0.5,6.1c0.6,2.3,2.1,3.5,4.3,3.5c1.5,0,2.7-0.5,3.5-1.5c0.6-0.8,1.2-2,1.6-3.6L316.7,76.7
			L316.7,76.7z"/>
		<path class="st5" d="M343.9,83c-2-0.1-4-0.1-5.9-0.1c-1.7,0-3.4,0-5.2,0.1v-1.4c0.6,0,1.2-0.1,1.7-0.4c0.6-0.3,0.9-0.7,0.9-1.3
			V69.7c0-2.7-1-4.1-3-4.1c-1.3,0-2.3,0.5-3,1.6c-0.6,0.9-1,2-1,3.4V80c0,1.1,0.9,1.7,2.6,1.7V83c-1.7-0.1-3.4-0.1-5.2-0.1
			c-1.9,0-3.9,0-5.9,0.1v-1.4c1.9,0,2.9-0.6,2.9-1.7V56.8c0-1.1-1-1.6-2.9-1.6v-1.3h3.9c1.5,0,3,0,4.6-0.2v12.6
			c1.4-1.9,3.5-2.9,6.3-2.9c4.2,0,6.2,2.2,6.2,6.5V80c0,1.1,1,1.7,2.9,1.7V83H343.9z"/>
		<path class="st5" d="M379.3,65.1l-0.2-0.1c-0.5,0-1.1,0.1-1.6,0.3c-0.7,0.3-1.1,0.6-1.2,1l-6,16.8h-2.8l-5.2-15.3l-5.5,15.3h-2.6
			l-5.8-16.8c-0.2-0.5-0.6-0.8-1.2-1c-0.1,0-0.7-0.1-1.7-0.3v-1.4H357V65c-1.3,0.1-1.9,0.5-1.9,1.2c0,0.1,0.9,3.5,2.6,10.5
			c2.4-6.9,3.6-10.4,3.6-10.8c0-0.6-0.3-0.9-1-1v-1.4h8.4v1.4c-0.6,0.2-0.9,0.6-0.9,1.2c0,0.5,1.1,4.1,3.4,10.6
			c2.3-7.4,3.4-11.1,3.4-10.9c0-0.6-0.9-0.8-2.6-0.8v-1.4h7.6v1.5L379.3,65.1L379.3,65.1z"/>
		<path class="st5" d="M381.5,73.3c0-6.6,3.2-10,9.7-10c5.8,0,8.7,3.1,8.7,9.2v0.6h-12.4v1.5c0,4.8,1.7,7.2,5.2,7.2
			c1.5,0,2.7-0.5,3.5-1.5c0.6-0.8,1.2-2,1.6-3.6h1.6c-0.5,2.5-1.4,4.2-2.8,5.3c-1.2,1-2.9,1.4-5,1.4C384.9,83.4,381.5,80,381.5,73.3
			z M394.1,71.6v-1.8c0-3.3-1.1-5-3.2-5c-1.5,0-2.6,0.8-3,2.5c-0.2,0.8-0.4,2.2-0.4,4.4L394.1,71.6L394.1,71.6z"/>
		<path class="st5" d="M418.4,77c0,2.1-0.8,3.7-2.4,4.9c-1.5,1-3.3,1.6-5.4,1.6c-2.3,0-4.7-0.4-7.2-1.1v-6h1.9
			c0,1.5,0.4,2.8,1.3,3.9c0.9,1.2,2.1,1.8,3.6,1.8c1.1,0,2-0.2,2.7-0.7c0.8-0.6,1.2-1.3,1.2-2.4c0-1.2-0.9-2.1-2.7-2.8
			c-3.3-1.3-5-1.9-5.1-2c-1.8-1.1-2.7-2.6-2.7-4.7c0-2.2,0.8-3.8,2.3-4.8c1.3-0.9,3.1-1.4,5.4-1.4c2,0,4,0.3,6,1v5.1h-1.8
			c-0.1-1.4-0.5-2.5-1.3-3.4s-1.8-1.3-3.2-1.3c-2,0-3,0.9-3,2.6c0,1.1,0.9,2,2.7,2.7c3.1,1.1,4.8,1.7,5.1,1.9
			C417.5,73,418.4,74.7,418.4,77z"/>
		<path class="st5" d="M434.2,81.9c-1.4,1-3.2,1.5-5.4,1.5c-1.8,0-3.1-0.4-3.9-1.2c-0.8-0.8-1.2-2.1-1.2-3.9v-13H421v-1.5h2.8v-4
			l5.6-0.5v4.5h4v1.5h-4V78c0,2.1,0.6,3.2,1.9,3.2c0.5,0,1.2-0.3,2.2-0.8L434.2,81.9z"/>
		<path class="st5" d="M436.8,73.3c0-6.6,3.2-10,9.7-10c5.8,0,8.7,3.1,8.7,9.2v0.6h-12.4v1.5c0,4.8,1.7,7.2,5.2,7.2
			c1.5,0,2.7-0.5,3.5-1.5c0.6-0.8,1.2-2,1.6-3.6h1.6c-0.5,2.5-1.4,4.2-2.8,5.3c-1.2,1-2.9,1.4-5,1.4C440.1,83.4,436.8,80,436.8,73.3
			z M449.4,71.6v-1.8c0-3.3-1.1-5-3.2-5c-1.5,0-2.6,0.8-3,2.5c-0.2,0.8-0.4,2.2-0.4,4.4L449.4,71.6L449.4,71.6z"/>
		<path class="st5" d="M474.9,67.1c0,1.1-0.2,1.9-0.5,2.1c-0.4,0.3-1.1,0.4-2.3,0.4c-0.8,0-1.3-0.3-1.5-0.8
			c-0.1-0.3-0.2-0.9-0.2-1.9s-0.4-1.5-1.1-1.5c-1.1,0-1.9,0.9-2.4,2.6c-0.3,1.2-0.5,2.6-0.5,4.1v7.7c0,1.1,1,1.7,3.1,1.7v1.4
			c-2-0.1-4.1-0.1-6.2-0.1c-1.8,0-3.6,0-5.4,0.1v-1.4c1.9,0,2.9-0.6,2.9-1.7V66.7c0-1.1-1-1.7-2.9-1.7v-1.3c0.4,0,1.1,0,1.9,0
			s1.5,0,1.9,0c1,0,2.5,0,4.4-0.1v2.8h0.1c1.1-2,2.7-3,4.8-3c1.2,0,2.1,0.3,2.8,1C474.6,65,474.9,65.9,474.9,67.1z"/>
		<path class="st5" d="M500.3,83c-1.9-0.1-3.9-0.1-6-0.1c-1.7,0-3.4,0-5,0.1v-1.4c0.6,0,1.2-0.1,1.7-0.4c0.6-0.3,0.9-0.7,0.9-1.3
			V69.6c0-2.6-1-3.9-3.1-3.9c-1.3,0-2.3,0.5-3,1.6c-0.6,0.9-0.9,2.1-0.9,3.4v9.2c0,0.6,0.3,1,0.9,1.3c0.5,0.2,1,0.4,1.7,0.4V83
			c-1.7-0.1-3.4-0.1-5.2-0.1c-1.9,0-3.8,0-5.8,0.1v-1.4c1.9,0,2.8-0.6,2.8-1.7V66.8c0-1.1-0.9-1.7-2.8-1.7v-1.4c0.3,0,0.9,0,1.6,0
			s1.3,0,1.6,0c1.1,0,2.8,0,5-0.1v2.7h0.1c1.9-2,4-3,6.4-3c4.2,0,6.2,2.1,6.2,6.3v10.3c0,1.1,1,1.7,2.9,1.7L500.3,83L500.3,83z"/>
		<path class="st5" d="M533.6,65c-0.6,0-1.1,0.1-1.6,0.3c-0.7,0.2-1.1,0.6-1.2,1l-7,16.8h-2.4l-7-16.8c-0.3-0.7-1.2-1.2-2.8-1.3
			v-1.3H523V65c-0.4,0-0.9,0-1.4,0.1c-0.8,0.1-1.2,0.3-1.2,0.5c0,0.3,1.5,4.2,4.4,11.6c0.1-0.3,0.8-2.2,2.1-5.8c1.4-3.8,2-5.7,2-5.8
			c0-0.3-0.8-0.5-2.5-0.5v-1.3h7.2V65z"/>
		<path class="st5" d="M555.9,73.6c0,3.1-0.9,5.6-2.6,7.3c-1.7,1.7-4.2,2.6-7.3,2.6c-3.2,0-5.7-0.8-7.4-2.5s-2.6-4.1-2.6-7.3
			c0-3.3,0.8-5.8,2.5-7.6c1.7-1.8,4.1-2.7,7.4-2.7c3.3,0,5.7,0.9,7.4,2.7C555,67.8,555.9,70.3,555.9,73.6z M549.8,74.8v-3.3
			c0-2-0.2-3.4-0.6-4.4c-0.6-1.6-1.7-2.4-3.3-2.4s-2.7,0.8-3.3,2.4c-0.4,1-0.6,2.5-0.6,4.4V75c0,4.7,1.3,7,3.9,7
			c1.6,0,2.8-0.9,3.4-2.6C549.6,78.4,549.8,76.9,549.8,74.8z"/>
		<path class="st5" d="M595,83c-2-0.1-4-0.1-6-0.1c-1.7,0-3.3,0-5,0.1v-1.4c0.6,0,1.2-0.1,1.6-0.4c0.6-0.3,0.9-0.7,0.9-1.3V69.4
			c0-2.4-1-3.7-2.9-3.7c-1.3,0-2.3,0.5-3,1.5c-0.6,0.9-0.9,2-0.9,3.4V80c0,0.5,0.3,1,0.9,1.3c0.5,0.3,1,0.4,1.6,0.4v1.4
			c-1.8-0.1-3.5-0.1-5.3-0.1s-3.5,0-5.3,0.1v-1.4c0.6,0,1.2-0.1,1.6-0.4c0.6-0.3,0.9-0.7,0.9-1.3V69.4c0-2.4-1-3.7-2.9-3.7
			c-1.3,0-2.3,0.5-3,1.5c-0.6,0.9-0.9,2-0.9,3.4V80c0,0.5,0.3,1,0.9,1.3c0.5,0.3,1,0.4,1.6,0.4V83c-1.7-0.1-3.4-0.1-5-0.1
			c-1.9,0-3.9,0-5.9,0.1v-1.4c1.9,0,2.8-0.6,2.8-1.7V66.8c0-1.1-0.9-1.7-2.8-1.7v-1.4c0.3,0,0.9,0,1.6,0c0.7,0,1.3,0,1.6,0
			c1.1,0,2.8,0,5-0.1v2.7h0.1c1.5-2,3.6-3,6.3-3c3.1,0,5,1.1,5.9,3.3c0.5-1.1,1.4-1.9,2.7-2.6c1.1-0.5,2.4-0.8,3.7-0.8
			c2.2,0,3.8,0.5,4.8,1.5c1,1,1.5,2.6,1.5,4.8v10.3c0,1.1,0.9,1.7,2.8,1.7V83H595z"/>
		<path class="st5" d="M637.6,83c-2.3-0.1-4.5-0.1-6.8-0.1c-2.2,0-4.4,0-6.6,0.1v-1.4c2.5,0,3.7-0.6,3.7-1.7V69.2h-11.3V80
			c0,1.1,1.2,1.6,3.7,1.6V83c-2.2-0.1-4.5-0.1-6.7-0.1s-4.5,0-6.7,0.1v-1.4c2.5,0,3.7-0.5,3.7-1.6V57.8c0-1.1-1.2-1.6-3.7-1.6v-1.4
			c0.7,0,3,0,6.7,0s6,0,6.7,0v1.4c-2.5,0-3.7,0.5-3.7,1.6v9.8h11.3v-9.9c0-1.1-1.2-1.6-3.7-1.6v-1.4c2.2,0.1,4.4,0.1,6.6,0.1
			c2.2,0,4.5,0,6.7-0.1v1.4c-2.5,0-3.7,0.5-3.7,1.6V80c0,1.1,1.2,1.6,3.7,1.6L637.6,83L637.6,83z"/>
		<path class="st5" d="M640.6,73.3c0-6.6,3.2-10,9.7-10c5.8,0,8.7,3.1,8.7,9.2v0.6h-12.4v1.5c0,4.8,1.7,7.2,5.2,7.2
			c1.5,0,2.7-0.5,3.5-1.5c0.6-0.8,1.2-2,1.6-3.6h1.6c-0.5,2.5-1.4,4.2-2.8,5.3c-1.2,1-2.9,1.4-5,1.4C644,83.4,640.6,80,640.6,73.3z
			 M653.3,71.6v-1.8c0-3.3-1.1-5-3.2-5c-1.5,0-2.6,0.8-3,2.5c-0.2,0.8-0.4,2.2-0.4,4.4L653.3,71.6L653.3,71.6z"/>
		<path class="st5" d="M673.2,83c-1.9-0.1-3.7-0.1-5.6-0.1c-1.9,0-3.7,0-5.6,0.1v-1.4c1.8,0,2.8-0.5,2.8-1.6V66.6
			c0-0.9-0.9-1.4-2.8-1.4v-1.4h3.9c1.5,0,3,0,4.6-0.1V80c0,1.1,0.9,1.6,2.8,1.6V83H673.2z M670.6,57.2c0,0.9-0.3,1.6-0.8,2.2
			c-0.5,0.6-1.3,0.9-2.1,0.9s-1.6-0.3-2.1-0.9c-0.5-0.6-0.8-1.3-0.8-2.2s0.3-1.6,0.8-2.2c0.5-0.6,1.2-0.9,2.1-0.9s1.6,0.3,2.1,0.9
			C670.3,55.5,670.6,56.3,670.6,57.2z"/>
		<path class="st5" d="M687,83c-1.9-0.1-3.7-0.1-5.6-0.1c-1.9,0-3.7,0-5.6,0.1v-1.4c1.9,0,2.8-0.6,2.8-1.7V56.8
			c0-1.1-0.9-1.6-2.8-1.6v-1.4h3.9c1.5,0,3,0,4.6-0.1V80c0,1.1,0.9,1.7,2.8,1.7V83H687z"/>
		<path class="st5" d="M700.7,83c-1.9-0.1-3.7-0.1-5.6-0.1c-1.9,0-3.7,0-5.6,0.1v-1.4c1.8,0,2.8-0.5,2.8-1.6V66.6
			c0-0.9-0.9-1.4-2.8-1.4v-1.4h3.9c1.5,0,3,0,4.6-0.1V80c0,1.1,0.9,1.6,2.8,1.6V83H700.7z M698.1,57.2c0,0.9-0.3,1.6-0.8,2.2
			c-0.5,0.6-1.3,0.9-2.1,0.9s-1.6-0.3-2.1-0.9c-0.5-0.6-0.8-1.3-0.8-2.2s0.3-1.6,0.8-2.2c0.5-0.6,1.2-0.9,2.1-0.9s1.6,0.3,2.1,0.9
			C697.8,55.5,698.1,56.3,698.1,57.2z"/>
		<path class="st5" d="M723.6,65.7c0,0.8-0.4,1.1-1.2,1.1c-0.7,0-1.1-0.2-1.4-0.7c-0.3-0.5-0.5-0.7-0.7-0.7c-0.4,0-0.7,0.1-1,0.4
			c0.8,1.2,1.2,2.5,1.2,3.8c0,2.1-0.9,3.7-2.6,4.8c-1.4,0.9-3.3,1.4-5.5,1.4c-1.7,0-3.1-0.3-4.2-1c-0.9,0.5-1.3,1.1-1.3,1.8
			c0,1.4,1.7,2.1,5.2,2.1c0.4,0,0.9,0,1.5,0s0.9,0,1,0c5.2,0,7.8,1.9,7.8,5.7c0,2.6-1.1,4.7-3.3,6.1c-1.9,1.2-4.3,1.8-7,1.8
			c-2.1,0-4.1-0.4-5.8-1.2c-2.2-1-3.2-2.5-3.2-4.4c0-1,0.4-1.9,1.2-2.6c0.7-0.6,1.6-1,2.7-1.2c-1.5-0.7-2.3-2-2.3-3.9
			c0-2.2,0.8-3.8,2.4-4.8c-1.6-1.1-2.4-2.6-2.4-4.5c0-2.2,0.8-3.8,2.4-5c1.4-1,3.3-1.5,5.6-1.5c2.6,0,4.4,0.5,5.5,1.4
			c0.3-0.3,0.9-0.6,1.8-0.8c0.9-0.3,1.5-0.4,2-0.4s0.8,0.3,1.1,0.8C723.5,64.8,723.6,65.3,723.6,65.7z M718.9,86.4
			c0-2.2-2.8-3.3-8.5-3.3l-1.1,0.3c-1.8,0.6-2.7,1.7-2.7,3.4c0,1.4,0.6,2.5,1.9,3.2c1,0.6,2.3,0.9,3.9,0.9c1.7,0,3.1-0.3,4.3-1
			C718.1,89.1,718.9,87.9,718.9,86.4z M715.6,69.3c0-3.1-0.9-4.6-2.8-4.6c-1.9,0-2.9,1.6-2.9,4.8c0,3.3,1,4.9,2.9,4.9
			C714.6,74.4,715.6,72.7,715.6,69.3z"/>
		<path class="st5" d="M726.4,73.3c0-6.6,3.2-10,9.7-10c5.8,0,8.7,3.1,8.7,9.2v0.6h-12.4v1.5c0,4.8,1.7,7.2,5.2,7.2
			c1.5,0,2.7-0.5,3.5-1.5c0.6-0.8,1.2-2,1.6-3.6h1.6c-0.5,2.5-1.4,4.2-2.8,5.3c-1.2,1-2.9,1.4-5,1.4C729.7,83.4,726.4,80,726.4,73.3
			z M739,71.6v-1.8c0-3.3-1.1-5-3.2-5c-1.5,0-2.6,0.8-3,2.5c-0.2,0.8-0.4,2.2-0.4,4.4L739,71.6L739,71.6z"/>
		<path class="st5" d="M771.4,83c-1.9-0.1-3.9-0.1-6-0.1c-1.7,0-3.4,0-5,0.1v-1.4c0.6,0,1.2-0.1,1.7-0.4c0.6-0.3,0.9-0.7,0.9-1.3
			V69.6c0-2.6-1-3.9-3.1-3.9c-1.3,0-2.3,0.5-3,1.6c-0.6,0.9-0.9,2.1-0.9,3.4v9.2c0,0.6,0.3,1,0.9,1.3c0.5,0.2,1,0.4,1.7,0.4V83
			c-1.7-0.1-3.4-0.1-5.2-0.1c-1.9,0-3.8,0-5.8,0.1v-1.4c1.9,0,2.8-0.6,2.8-1.7V66.8c0-1.1-0.9-1.7-2.8-1.7v-1.4c0.3,0,0.9,0,1.6,0
			c0.7,0,1.3,0,1.6,0c1.1,0,2.8,0,5-0.1v2.7h0.1c1.9-2,4-3,6.4-3c4.2,0,6.2,2.1,6.2,6.3v10.3c0,1.1,1,1.7,2.9,1.7L771.4,83L771.4,83
			z"/>
		<path class="st5" d="M812.6,83c-4.1-0.2-7.9-0.2-11.3,0v-1.4c0.6,0,0.9-0.2,0.9-0.6c0-0.3-2.4-4-7.3-11l-1.7,2.1v1.6
			c0,5.2,0.3,7.9,1,8c0.4,0.1,1.3,0.1,2.6,0.1V83c-2-0.1-4.2-0.1-6.7-0.1s-4.7,0-6.7,0.1v-1.4c2.5,0,3.7-0.5,3.7-1.6V57.8
			c0-1.1-1.2-1.6-3.7-1.6v-1.4c2,0.1,4.2,0.1,6.7,0.1s4.7,0,6.7-0.1v1.4c-2.5,0-3.7,0.5-3.7,1.6v11.5c6.6-8,9.9-12.1,9.9-12.4
			c0-0.5-0.7-0.8-2.1-0.8v-1.4c3.5,0.1,6.6,0.1,9.2,0v1.4c-2.1,0-3.3,0.1-3.8,0.3s-1.7,1.5-3.8,4c-1.3,1.6-2.6,3.2-3.9,4.8L809,80.1
			c0.4,0.6,0.9,0.9,1.6,1.2c0.1,0,0.8,0.1,2,0.4V83z"/>
		<path class="st5" d="M831,67.1c0,1.1-0.2,1.9-0.5,2.1c-0.4,0.3-1.1,0.4-2.3,0.4c-0.8,0-1.3-0.3-1.5-0.8c-0.1-0.3-0.2-0.9-0.2-1.9
			s-0.4-1.5-1.1-1.5c-1.1,0-1.9,0.9-2.4,2.6c-0.3,1.2-0.5,2.6-0.5,4.1v7.7c0,1.1,1,1.7,3.1,1.7v1.4c-2-0.1-4.1-0.1-6.2-0.1
			c-1.8,0-3.6,0-5.4,0.1v-1.4c1.9,0,2.9-0.6,2.9-1.7V66.7c0-1.1-1-1.7-2.9-1.7v-1.3c0.4,0,1.1,0,1.9,0s1.5,0,1.9,0
			c1,0,2.5,0,4.4-0.1v2.8h0.1c1.1-2,2.7-3,4.8-3c1.2,0,2.1,0.3,2.8,1C830.7,65,831,65.9,831,67.1z"/>
		<path class="st5" d="M833.3,73.3c0-6.6,3.2-10,9.7-10c5.8,0,8.7,3.1,8.7,9.2v0.6h-12.4v1.5c0,4.8,1.7,7.2,5.2,7.2
			c1.5,0,2.7-0.5,3.5-1.5c0.6-0.8,1.2-2,1.6-3.6h1.6c-0.5,2.5-1.4,4.2-2.8,5.3c-1.2,1-2.9,1.4-5,1.4C836.7,83.4,833.3,80,833.3,73.3
			z M845.9,71.6v-1.8c0-3.3-1.1-5-3.2-5c-1.5,0-2.6,0.8-3,2.5c-0.2,0.8-0.4,2.2-0.4,4.4L845.9,71.6L845.9,71.6z"/>
		<path class="st5" d="M878.2,83c-0.4,0-1,0-1.8,0c-1.4,0-3.6,0-6.5,0.1v-2.8h-0.1c-1.5,2-3.6,3-6.2,3c-2.3,0-3.9-0.5-4.9-1.5
			s-1.5-2.6-1.5-4.9V66.5c0-0.9-0.9-1.4-2.8-1.4v-1.4c0.4,0,0.9,0,1.6,0c0.7,0,1.3,0,1.6,0c1.1,0,2.9,0,5.2-0.1v13.3
			c0,2.8,1,4.2,3,4.2c2.7,0,4-1.9,4-5.8v-8.8c0-0.5-0.4-0.9-1.1-1.1c-0.5-0.2-1.1-0.3-1.7-0.3v-1.4c0.3,0,0.9,0,1.6,0
			c0.7,0,1.3,0,1.6,0c1.1,0,2.8,0,5-0.1v16.6c0,0.9,0.9,1.4,2.8,1.4V83H878.2z"/>
		<path class="st5" d="M898.4,63.7l-10.8,17.8h3.6c3.3,0,5.1-1.8,5.3-5.4h1.7V83c-2.9-0.1-5.8-0.1-8.8-0.1c-2.9,0-5.9,0-8.8,0.1
			l10.9-17.8h-3.8c-1.4,0-2.4,0.5-3.2,1.4c-0.7,0.9-1.1,2-1.1,3.4h-1.5v-6.3H898.4z"/>
	</g>
	<g>
		<path class="st5" d="M282.8,122.1h-8.5v-0.8h0.3c1.6,0,2.4-0.3,2.4-1v-16.7c0-0.7-0.9-1-2.7-1v-0.8h8.5v0.8c-1.8,0-2.8,0.3-2.8,1
			v16.7c0,0.7,0.9,1,2.8,1V122.1z"/>
		<path class="st5" d="M301.4,122.1h-7.5v-0.8c0.8,0,1.3-0.1,1.5-0.1c0.6-0.1,0.9-0.4,0.9-0.9v-7.4c0-1.3-0.1-2.1-0.4-2.6
			c-0.4-0.8-1.2-1.2-2.3-1.2c-2.6,0-3.8,1.6-3.8,4.8v6.4c0,0.7,0.8,1,2.4,1v0.8h-7.6v-0.8c0.9,0,1.4-0.1,1.6-0.1
			c0.7-0.1,1-0.4,1-0.9v-10.2c0-0.6-0.9-1-2.6-1v-0.8h5.1v2.1c1.3-1.6,3-2.5,4.9-2.5c1.6,0,2.7,0.4,3.3,1.1c0.6,0.7,0.9,1.8,0.9,3.4
			v7.8c0,0.7,0.8,1,2.4,1V122.1z"/>
		<path class="st5" d="M314.2,118.1c0,1.6-0.6,2.7-1.9,3.4c-1.1,0.6-2.4,0.9-4.1,0.9c-1.4,0-2.8-0.3-4.1-0.8v-4.3h1.2
			c0.1,1.4,0.3,2.4,0.7,3c0.5,0.8,1.4,1.2,2.8,1.2c0.9,0,1.6-0.2,2.2-0.6c0.7-0.5,1-1.1,1-1.9c0-1-0.7-1.8-2-2.3
			c-1.2-0.4-2.4-0.9-3.7-1.3c-1.3-0.7-2-1.7-2-3.1c0-1.4,0.5-2.5,1.5-3.3c0.9-0.7,2.1-1,3.5-1c1.2,0,2.5,0.3,3.9,0.8v3.6h-1.1
			c-0.2-1.3-0.4-2.1-0.7-2.6c-0.4-0.6-1.2-1-2.4-1c-1.7,0-2.6,0.8-2.6,2.3c0,0.9,0.7,1.6,2,2.1c1.2,0.5,2.4,0.9,3.7,1.4
			C313.5,115.4,314.2,116.5,314.2,118.1z"/>
		<path class="st5" d="M325.5,120.7c-0.3,0.5-0.8,1-1.5,1.2c-0.6,0.3-1.3,0.4-2,0.4c-1.4,0-2.3-0.4-2.7-1.1c-0.4-0.6-0.6-1.6-0.6-3
			v-9.1h-2.1v-0.9h2.1v-3.1l2.6-0.2v3.3h3.2v0.9h-3.2v9.2c0,1.9,0.6,2.9,1.7,2.9c0.6,0,1.3-0.4,1.9-1.1L325.5,120.7z"/>
		<path class="st5" d="M334.6,122.1h-7.7v-0.8c1.7,0,2.5-0.3,2.5-1v-10.2c0-0.4-0.3-0.7-1-0.9c-0.1,0-0.6-0.1-1.5-0.1v-0.8h5.2v12
			c0,0.7,0.9,1,2.6,1V122.1z M332.4,103.5c0,0.5-0.2,0.9-0.5,1.3c-0.3,0.4-0.7,0.5-1.2,0.5c-0.5,0-0.9-0.2-1.2-0.6s-0.5-0.8-0.5-1.3
			s0.2-0.9,0.5-1.3c0.3-0.4,0.7-0.6,1.2-0.6c0.5,0,0.9,0.2,1.2,0.5C332.2,102.6,332.4,103,332.4,103.5z"/>
		<path class="st5" d="M345.4,120.7c-0.3,0.5-0.8,1-1.5,1.2c-0.6,0.3-1.3,0.4-2,0.4c-1.4,0-2.3-0.4-2.7-1.1c-0.4-0.6-0.6-1.6-0.6-3
			v-9.1h-2.1v-0.9h2.1v-3.1l2.6-0.2v3.3h3.2v0.9h-3.2v9.2c0,1.9,0.6,2.9,1.7,2.9c0.6,0,1.3-0.4,1.9-1.1L345.4,120.7z"/>
		<path class="st5" d="M363.3,122.1h-5.2V120l-0.1,0c-0.4,0.8-1.1,1.4-2,1.8c-0.8,0.4-1.7,0.6-2.7,0.6c-2.9,0-4.3-1.3-4.3-3.9v-8.5
			c0-0.7-0.8-1-2.5-1v-0.8h5.1v9.4c0,1.2,0.1,2,0.4,2.5c0.4,0.7,1.1,1.1,2.2,1.1c2.5,0,3.8-1.7,3.8-5.1v-6.1c0-0.7-0.9-1-2.6-1v-0.8
			h5.2v12c0,0.7,0.8,1,2.5,1V122.1z"/>
		<path class="st5" d="M373.8,120.7c-0.3,0.5-0.8,1-1.5,1.2c-0.6,0.3-1.3,0.4-2,0.4c-1.4,0-2.3-0.4-2.7-1.1c-0.4-0.6-0.6-1.6-0.6-3
			v-9.1h-2.1v-0.9h2.1v-3.1l2.6-0.2v3.3h3.2v0.9h-3.2v9.2c0,1.9,0.6,2.9,1.7,2.9c0.6,0,1.3-0.4,1.9-1.1L373.8,120.7z"/>
		<path class="st5" d="M408.2,122.1h-8.7v-0.8c2,0,3-0.3,3-1V104h-0.1l-7.9,18.3H394l-7.8-18.2v16.2c0,0.7,1,1,2.9,1v0.8h-6.8v-0.8
			c1.8,0,2.8-0.3,2.8-1v-16.7c0-0.7-0.9-1-2.8-1v-0.8h5.9l7.1,16.1l7.1-16.1h5.8v0.8c-1.9,0-2.8,0.3-2.8,1v16.7c0,0.7,0.9,1,2.8,1
			V122.1z"/>
		<path class="st5" d="M423.2,114.8h-9.5v0.2c0,2,0.2,3.4,0.6,4.3c0.6,1.4,1.7,2.1,3.4,2.1c2.7,0,4.1-1.3,4.3-3.8h1
			c-0.1,0.3-0.2,0.9-0.3,1.5c-0.5,2.2-2.5,3.3-5.7,3.3c-2.2,0-3.8-0.8-4.9-2.3c-0.9-1.3-1.4-3.1-1.4-5.4c0-2,0.6-3.7,1.7-4.9
			c1.2-1.3,2.8-1.9,4.8-1.9c1.9,0,3.4,0.6,4.5,1.8c1,1.1,1.5,2.7,1.5,4.7V114.8z M420.2,113.8v-0.5c0-3.1-1.1-4.6-3.2-4.6
			c-1.2,0-2,0.6-2.6,1.7c-0.4,0.9-0.6,1.9-0.6,3.2v0.1H420.2z"/>
		<path class="st5" d="M442.4,122.1h-7.5v-0.8c0.8,0,1.3-0.1,1.5-0.1c0.6-0.1,0.9-0.4,0.9-0.9v-7.4c0-1.3-0.1-2.1-0.4-2.6
			c-0.4-0.8-1.2-1.2-2.3-1.2c-2.6,0-3.8,1.6-3.8,4.8v6.4c0,0.7,0.8,1,2.4,1v0.8h-7.6v-0.8c0.9,0,1.4-0.1,1.6-0.1
			c0.7-0.1,1-0.4,1-0.9v-10.2c0-0.6-0.9-1-2.6-1v-0.8h5.1v2.1c1.3-1.6,3-2.5,4.9-2.5c1.6,0,2.7,0.4,3.3,1.1c0.6,0.7,0.9,1.8,0.9,3.4
			v7.8c0,0.7,0.8,1,2.4,1V122.1z"/>
		<path class="st5" d="M456.8,108.3l-9.1,12.9h4.4c1.4,0,2.3-0.3,2.8-1c0.4-0.5,0.7-1.5,0.7-3h1.2v4.9h-12.6l9-12.9H449
			c-1,0-1.7,0.4-2.1,1.1c-0.3,0.5-0.4,1.3-0.5,2.4h-1.1v-4.4H456.8z"/>
		<path class="st5" d="M466.9,122.1h-7.7v-0.8c1.7,0,2.5-0.3,2.5-1v-10.2c0-0.4-0.3-0.7-1-0.9c-0.1,0-0.6-0.1-1.5-0.1v-0.8h5.2v12
			c0,0.7,0.9,1,2.6,1V122.1z M464.7,103.5c0,0.5-0.2,0.9-0.5,1.3c-0.3,0.4-0.7,0.5-1.2,0.5s-0.9-0.2-1.2-0.6s-0.5-0.8-0.5-1.3
			s0.2-0.9,0.5-1.3c0.3-0.4,0.7-0.6,1.2-0.6s0.9,0.2,1.2,0.5C464.5,102.6,464.7,103,464.7,103.5z"/>
		<path class="st5" d="M485.5,122.1H478v-0.8c0.8,0,1.3-0.1,1.4-0.1c0.6-0.1,0.9-0.4,0.9-0.9v-7.4c0-1.3-0.1-2.1-0.4-2.6
			c-0.4-0.8-1.2-1.2-2.3-1.2c-2.6,0-3.8,1.6-3.8,4.8v6.4c0,0.7,0.8,1,2.4,1v0.8h-7.6v-0.8c0.9,0,1.4-0.1,1.6-0.1
			c0.7-0.1,1-0.4,1-0.9v-10.2c0-0.6-0.9-1-2.6-1v-0.8h5.1v2.1c1.3-1.6,3-2.5,4.9-2.5c1.6,0,2.7,0.4,3.3,1.1c0.6,0.7,0.9,1.8,0.9,3.4
			v7.8c0,0.7,0.8,1,2.4,1V122.1z"/>
		<path class="st5" d="M501.2,108.6c0,0.8-0.1,1.2-0.4,1.2c-0.3,0-0.6-0.2-1.1-0.5c-0.5-0.3-0.8-0.5-1.1-0.5c-0.2,0-0.3,0-0.4,0.1
			l-0.4,0.2c0.3,0.2,0.7,0.5,1,1c0.4,0.6,0.6,1.2,0.6,1.9c0,1.5-0.5,2.7-1.6,3.7c-1.1,1-2.3,1.5-3.8,1.5c-1.1,0-2.1-0.3-3-0.8
			c-0.9,0.5-1.3,1.1-1.3,1.7c0,1,1.9,1.5,5.6,1.5c3.6,0,5.3,1.4,5.3,4.1c0,1.7-0.8,3.1-2.3,4.1c-1.3,0.8-2.9,1.2-4.8,1.2
			c-1.7,0-3.1-0.2-4.3-0.7c-1.6-0.7-2.5-1.7-2.5-3.1c0-0.8,0.3-1.5,0.9-2.3c0.5-0.6,1.2-1.1,2-1.4c-1-0.6-1.4-1.5-1.4-2.7
			c0-0.6,0.2-1.2,0.6-1.7c0.4-0.5,0.9-0.9,1.5-1.1c-1.1-0.9-1.6-2-1.6-3.4c0-1.4,0.6-2.5,1.7-3.4c1-0.8,2.2-1.2,3.7-1.2
			c1,0,2,0.2,3,0.7c1.1-0.4,2-0.6,2.6-0.6C500.7,108.2,501.2,108.3,501.2,108.6z M499.1,124.5c0-1.8-1.9-2.7-5.6-2.7
			c-0.5,0-1.1,0-2,0c-0.7,0.1-1.3,0.4-1.9,0.8c-0.6,0.5-0.9,1.1-0.9,1.8c0,1.2,0.6,2.1,1.7,2.8c0.9,0.6,2,0.8,3.3,0.8
			c1.2,0,2.4-0.3,3.5-0.8C498.4,126.6,499.1,125.6,499.1,124.5z M496.7,112.6c0-2.6-0.9-3.8-2.6-3.8c-1.8,0-2.7,1.2-2.7,3.7
			c0,2.6,0.9,3.9,2.6,3.9C495.8,116.3,496.7,115.1,496.7,112.6z"/>
		<path class="st5" d="M516.4,114.8H507v0.2c0,2,0.2,3.4,0.6,4.3c0.6,1.4,1.7,2.1,3.4,2.1c2.7,0,4.1-1.3,4.3-3.8h1
			c-0.1,0.3-0.2,0.9-0.3,1.5c-0.5,2.2-2.5,3.3-5.7,3.3c-2.2,0-3.8-0.8-4.9-2.3c-0.9-1.3-1.4-3.1-1.4-5.4c0-2,0.6-3.7,1.7-4.9
			c1.2-1.3,2.8-1.9,4.8-1.9c1.9,0,3.4,0.6,4.5,1.8c1,1.1,1.5,2.7,1.5,4.7V114.8z M513.4,113.8v-0.5c0-3.1-1.1-4.6-3.2-4.6
			c-1.2,0-2,0.6-2.6,1.7c-0.4,0.9-0.6,1.9-0.6,3.2v0.1H513.4z"/>
		<path class="st5" d="M535.6,122.1h-7.5v-0.8c0.8,0,1.3-0.1,1.4-0.1c0.6-0.1,0.9-0.4,0.9-0.9v-7.4c0-1.3-0.1-2.1-0.4-2.6
			c-0.4-0.8-1.2-1.2-2.3-1.2c-2.6,0-3.8,1.6-3.8,4.8v6.4c0,0.7,0.8,1,2.4,1v0.8h-7.6v-0.8c0.9,0,1.4-0.1,1.6-0.1
			c0.7-0.1,1-0.4,1-0.9v-10.2c0-0.6-0.9-1-2.6-1v-0.8h5.1v2.1c1.3-1.6,3-2.5,4.9-2.5c1.6,0,2.7,0.4,3.3,1.1c0.6,0.7,0.9,1.8,0.9,3.4
			v7.8c0,0.7,0.8,1,2.4,1V122.1z"/>
	</g>
</g>
</svg>
