<svg xmlns="http://www.w3.org/2000/svg" width="194" height="97" viewBox="0 0 194 97"><g fill="none"><path fill="#FFE699" d="M127.764 30.85c0 .301 0 .577-.015.866-.015.288-.015.52-.03.777a30.887 30.887 0 0 1-.676 5.067 50.044 50.044 0 0 0-9.066-.697 21.358 21.358 0 1 0-42.074.417c-2.989.176-5.963.548-8.904 1.112h-.018a30.902 30.902 0 0 1-.9-7.466v-.036-.042C66.08 13.81 79.89 0 96.927 0s30.848 13.811 30.848 30.848l-.012.003z"/><path fill="#FFB34D" d="M118.259 33.415c-.001 1.155-.095 2.308-.282 3.448h-.4c-3.081.039-5.958.084-8.817.405.015-.246.024-.492.024-.741-.145-6.448-5.413-11.599-11.862-11.599-6.45 0-11.717 5.151-11.862 11.599 0 .342.018.684.045 1.02-2.34-.312-4.7-.439-7.06-.378-.727.027-1.439.066-2.139.108a21.355 21.355 0 1 1 42.344-3.865l.009.003z"/><path fill="#EC6645" d="M108.772 36.53c0 .249 0 .495-.024.741a34.836 34.836 0 0 0-10.83 2.922 90.775 90.775 0 0 0-12.828-2.642 12.775 12.775 0 0 1-.045-1.021c.145-6.448 5.413-11.599 11.862-11.599s11.717 5.151 11.862 11.599h.003z"/><path fill="#407333" d="M97.931 40.193a48.473 48.473 0 0 0-8.8 5.277 77.57 77.57 0 0 0-4.597 3.676c-.34.3-.679.6-1.015.9a52.119 52.119 0 0 0-5.078 5.511l-.036.045a30.845 30.845 0 0 1-11.412-17.195h.018a68.735 68.735 0 0 1 8.904-1.112c.7-.042 1.412-.08 2.138-.108 2.355-.07 4.712.048 7.049.352a90.775 90.775 0 0 1 12.829 2.654z"/><path fill="#8CC048" d="M127.043 37.56a30.854 30.854 0 0 1-48.65 18.018l.048-.02a52.119 52.119 0 0 1 5.081-5.496c.336-.3.676-.601 1.015-.901a80.612 80.612 0 0 1 4.598-3.676 48.473 48.473 0 0 1 8.799-5.277 34.836 34.836 0 0 1 10.838-2.937c2.86-.32 5.736-.366 8.817-.405h.4c3.03-.044 6.057.188 9.045.694h.009z"/><path fill="#1A171B" d="M0 73.714L1.748 73.714 1.748 94.297 12.673 94.297 12.673 95.877 0 95.877z"/><path fill="#1A171B" d="M20.52 73.714h1.763v13.637c0 4.6 2.72 7.207 6.784 7.207 4.063 0 6.75-2.618 6.75-7.207V73.714h1.749v13.568c0 5.61-3.427 8.937-8.499 8.937-5.138 0-8.532-3.327-8.532-8.937l-.015-13.568z"/><path fill="#1A171B" d="M49.509 73.714L63.38 73.714 63.38 75.291 51.254 75.291 51.254 83.117 60.693 83.117 60.693 84.687 51.254 84.687 51.254 94.297 63.783 94.297 63.783 95.877 49.509 95.877z"/><path fill="#1A171B" d="M82.318 73.378c3.628 0 6.853 1.612 8.868 4.4l-1.31 1.041a9.066 9.066 0 0 0-7.531-3.829c-5.442 0-9.538 4.298-9.538 9.772 0 5.544 4.063 9.845 9.61 9.845 3.46 0 6.415-1.682 8.06-4.37v-3.66h-8.16v-1.61h9.911v5.64c-1.916 3.495-5.706 5.612-9.91 5.612-6.247.132-11.454-5.141-11.352-11.412a11.268 11.268 0 0 1 11.352-11.43z"/><path fill="#1A171B" d="M103.213 73.714L117.088 73.714 117.088 75.291 104.961 75.291 104.961 83.117 114.4 83.117 114.4 84.687 104.961 84.687 104.961 94.297 117.481 94.297 117.481 95.877 103.213 95.877z"/><path fill="#1A171B" d="M133.737 75.291L125.629 75.291 125.629 73.714 143.608 73.714 143.608 75.291 135.5 75.291 135.5 95.883 133.752 95.883z"/><path fill="#1A171B" d="M152.894 73.714L166.765 73.714 166.765 75.291 154.638 75.291 154.638 83.117 164.077 83.117 164.077 84.687 154.638 84.687 154.638 94.297 167.167 94.297 167.167 95.877 152.894 95.877z"/><path fill="#1A171B" d="M193.832 73.714L193.832 96.219 193.126 96.219 178.444 77.441 178.444 95.883 176.696 95.883 176.696 73.378 177.369 73.378 192.084 92.297 192.084 73.714z"/></g></svg>