<?xml version="1.0" encoding="utf-8"?>
<!-- Generator: Adobe Illustrator 25.4.1, SVG Export Plug-In . SVG Version: 6.00 Build 0)  -->
<svg xmlns:xlink="http://www.w3.org/1999/xlink" version="1.1" id="Ebene_1" xmlns="http://www.w3.org/2000/svg" x="0px"
	 y="0px"
	 viewBox="0 0 185.976 68.083" style="enable-background:new 0 0 185.976 68.083;" xml:space="preserve">
<style type="text/css">
	.st0{fill-rule:evenodd;clip-rule:evenodd;fill:#FFCB00;}
	.st1{fill:#888786;}
	.st2{clip-path:url(#SVGID_00000137107683674830038390000012872961589327772073_);fill:#888786;}
	.st3{clip-path:url(#SVGID_00000137107683674830038390000012872961589327772073_);fill:#585756;}
	
		.st4{clip-path:url(#SVGID_00000137107683674830038390000012872961589327772073_);fill-rule:evenodd;clip-rule:evenodd;fill:#13803E;}
	
		.st5{clip-path:url(#SVGID_00000137107683674830038390000012872961589327772073_);fill-rule:evenodd;clip-rule:evenodd;fill:#0D66A8;}
	
		.st6{clip-path:url(#SVGID_00000137107683674830038390000012872961589327772073_);fill-rule:evenodd;clip-rule:evenodd;fill:#E30C15;}
	
		.st7{clip-path:url(#SVGID_00000137107683674830038390000012872961589327772073_);fill-rule:evenodd;clip-rule:evenodd;fill:#F28A0B;}
</style>
	<rect x="121.263" y="16.115" class="st0" width="13.827" height="13.826"/>
	<path class="st1" d="M5.159,58.531h0.032l2.094,5.157H3.032L5.159,58.531z M4.556,56.564l-4.951,11.234h1.778l1.11-2.777H7.84
	l1.127,2.777h1.777L5.937,56.564H4.556z"/>
	<polygon class="st1" points="16.934,56.564 16.934,67.798 23.615,67.798 23.615,66.37 18.458,66.37 18.458,56.564 "/>
	<polygon class="st1" points="27.39,56.564 27.39,57.991 31.008,57.991 31.008,67.798 32.532,67.798 32.532,57.991 36.149,57.991
	36.149,56.564 "/>
	<polygon class="st1" points="42.416,56.564 42.416,67.798 49.953,67.798 49.953,66.37 43.94,66.37 43.94,62.768 49.271,62.768
	49.271,61.339 43.94,61.339 43.94,57.991 49.668,57.991 49.668,56.564 "/>
	<g>
	<defs>
		<rect id="SVGID_1_" x="-0.395" y="0.001" width="186.799" height="68.082"/>
	</defs>
		<clipPath id="SVGID_00000176760035594358760660000011557860478804932014_">
		<use xlink:href="#SVGID_1_" style="overflow:visible;"/>
	</clipPath>
		<path style="clip-path:url(#SVGID_00000176760035594358760660000011557860478804932014_);fill:#888786;" d="M56.663,56.563h3.951
		c0.72,0,1.312,0.098,1.778,0.294c0.465,0.196,0.833,0.444,1.103,0.745c0.269,0.302,0.457,0.64,0.563,1.016
		c0.106,0.376,0.159,0.738,0.159,1.087c0,0.36-0.064,0.706-0.191,1.04c-0.127,0.332-0.31,0.634-0.547,0.904
		c-0.239,0.27-0.529,0.498-0.873,0.682c-0.344,0.185-0.727,0.299-1.15,0.341l3.189,5.126h-1.904l-2.856-4.951h-1.698v4.951h-1.524
		V56.563z M58.187,61.514h1.999c0.296,0,0.589-0.024,0.881-0.071c0.29-0.048,0.55-0.136,0.777-0.262
		c0.227-0.127,0.41-0.309,0.548-0.548c0.137-0.238,0.206-0.547,0.206-0.928s-0.069-0.69-0.206-0.928
		c-0.138-0.238-0.321-0.42-0.548-0.547c-0.227-0.128-0.487-0.215-0.777-0.262c-0.292-0.048-0.585-0.072-0.881-0.072h-1.999V61.514z"
		/>
		<path style="clip-path:url(#SVGID_00000176760035594358760660000011557860478804932014_);fill:#888786;" d="M71.462,65.449
		c0.275,0.412,0.626,0.716,1.055,0.912c0.429,0.196,0.87,0.294,1.325,0.294c0.254,0,0.513-0.04,0.777-0.12
		c0.265-0.078,0.506-0.198,0.722-0.356c0.217-0.159,0.394-0.355,0.532-0.587c0.138-0.233,0.207-0.502,0.207-0.81
		c0-0.433-0.138-0.764-0.413-0.992c-0.275-0.226-0.616-0.417-1.023-0.571c-0.408-0.153-0.852-0.301-1.334-0.444
		c-0.481-0.143-0.926-0.341-1.333-0.595c-0.407-0.254-0.748-0.595-1.023-1.023c-0.275-0.429-0.413-1.008-0.413-1.738
		c0-0.328,0.072-0.677,0.215-1.047c0.142-0.37,0.367-0.709,0.674-1.016c0.307-0.306,0.701-0.563,1.182-0.769
		c0.481-0.206,1.061-0.31,1.738-0.31c0.613,0,1.2,0.085,1.761,0.255c0.56,0.169,1.052,0.513,1.475,1.031l-1.237,1.126
		c-0.191-0.295-0.46-0.534-0.809-0.714c-0.349-0.179-0.746-0.269-1.19-0.269c-0.424,0-0.776,0.055-1.055,0.166
		c-0.281,0.111-0.506,0.254-0.675,0.428c-0.169,0.175-0.288,0.363-0.357,0.564s-0.103,0.386-0.103,0.555
		c0,0.476,0.137,0.841,0.413,1.095c0.274,0.254,0.616,0.46,1.023,0.619c0.407,0.158,0.852,0.301,1.333,0.429
		c0.481,0.127,0.925,0.304,1.333,0.531c0.407,0.227,0.748,0.535,1.023,0.92c0.275,0.386,0.413,0.918,0.413,1.595
		c0,0.539-0.104,1.026-0.309,1.46c-0.207,0.433-0.485,0.799-0.833,1.095c-0.35,0.296-0.762,0.523-1.238,0.682
		c-0.476,0.158-0.984,0.238-1.523,0.238c-0.72,0-1.402-0.127-2.048-0.381c-0.645-0.254-1.158-0.645-1.539-1.174L71.462,65.449z"/>
		<polygon style="clip-path:url(#SVGID_00000176760035594358760660000011557860478804932014_);fill:#888786;"
				 points="83.673,66.369
		90.068,57.991 83.864,57.991 83.864,56.563 91.972,56.563 91.972,57.991 85.609,66.369 92.067,66.369 92.067,67.797 83.673,67.797 
			"/>
		<polygon style="clip-path:url(#SVGID_00000176760035594358760660000011557860478804932014_);fill:#888786;"
				 points="98.507,56.563
		105.759,56.563 105.759,57.991 100.031,57.991 100.031,61.339 105.361,61.339 105.361,62.767 100.031,62.767 100.031,66.369 
		106.044,66.369 106.044,67.797 98.507,67.797 	"/>
		<polygon style="clip-path:url(#SVGID_00000176760035594358760660000011557860478804932014_);fill:#888786;"
				 points="
		112.754,56.563 114.754,56.563 120.942,65.797 120.974,65.797 120.974,56.563 122.497,56.563 122.497,67.797 120.561,67.797 
		114.309,58.562 114.277,58.562 114.277,67.797 112.754,67.797 	"/>
		<polygon style="clip-path:url(#SVGID_00000176760035594358760660000011557860478804932014_);fill:#888786;"
				 points="
		132.389,57.991 128.772,57.991 128.772,56.563 137.53,56.563 137.53,57.991 133.913,57.991 133.913,67.797 132.389,67.797 	"/>
		<path style="clip-path:url(#SVGID_00000176760035594358760660000011557860478804932014_);fill:#888786;" d="M143.798,56.563h3.951
		c0.719,0,1.312,0.098,1.777,0.294c0.466,0.196,0.834,0.444,1.103,0.745c0.27,0.302,0.457,0.64,0.563,1.016
		c0.107,0.376,0.159,0.738,0.159,1.087c0,0.36-0.063,0.706-0.19,1.04c-0.127,0.332-0.31,0.634-0.547,0.904
		c-0.239,0.27-0.529,0.498-0.873,0.682c-0.344,0.185-0.728,0.299-1.151,0.341l3.19,5.126h-1.904l-2.856-4.951h-1.698v4.951h-1.524
		V56.563z M145.322,61.514h1.999c0.296,0,0.589-0.024,0.88-0.071c0.291-0.048,0.55-0.136,0.778-0.262
		c0.227-0.127,0.41-0.309,0.547-0.548c0.138-0.238,0.207-0.547,0.207-0.928s-0.069-0.69-0.207-0.928
		c-0.137-0.238-0.32-0.42-0.547-0.547c-0.228-0.128-0.487-0.215-0.778-0.262c-0.291-0.048-0.584-0.072-0.88-0.072h-1.999V61.514z"/>
		<path style="clip-path:url(#SVGID_00000176760035594358760660000011557860478804932014_);fill:#888786;" d="M159.479,56.563v6.886
		c0,0.35,0.048,0.712,0.143,1.087c0.096,0.375,0.254,0.722,0.476,1.04c0.222,0.317,0.513,0.576,0.872,0.777
		c0.361,0.201,0.805,0.302,1.334,0.302c0.528,0,0.972-0.101,1.332-0.302c0.36-0.201,0.651-0.46,0.873-0.777
		c0.222-0.318,0.381-0.665,0.476-1.04c0.096-0.375,0.143-0.737,0.143-1.087v-6.886h1.523v7.124c0,0.656-0.111,1.252-0.333,1.785
		c-0.222,0.535-0.528,0.997-0.92,1.389c-0.392,0.391-0.852,0.693-1.38,0.904c-0.53,0.212-1.101,0.317-1.714,0.317
		c-0.614,0-1.186-0.105-1.714-0.317c-0.529-0.211-0.989-0.513-1.381-0.904c-0.391-0.392-0.698-0.854-0.92-1.389
		c-0.222-0.533-0.333-1.129-0.333-1.785v-7.124H159.479z"/>
		<polygon style="clip-path:url(#SVGID_00000176760035594358760660000011557860478804932014_);fill:#888786;"
				 points="
		173.997,56.563 176.266,56.563 179.836,65.068 179.9,65.068 183.438,56.563 185.708,56.563 185.708,67.797 184.184,67.797 
		184.184,58.562 184.153,58.562 180.359,67.797 179.344,67.797 175.552,58.562 175.52,58.562 175.52,67.797 173.997,67.797 	"/>
		<path style="clip-path:url(#SVGID_00000176760035594358760660000011557860478804932014_);fill:#585756;" d="M8.711,39.826
		c-0.274-0.346-0.645-0.602-1.114-0.768c-0.468-0.165-0.911-0.248-1.329-0.248c-0.245,0-0.497,0.029-0.756,0.087
		c-0.259,0.057-0.505,0.147-0.735,0.27c-0.231,0.122-0.418,0.284-0.563,0.486c-0.143,0.202-0.215,0.447-0.215,0.735
		c0,0.461,0.172,0.814,0.518,1.059c0.346,0.245,0.782,0.454,1.308,0.627c0.526,0.173,1.091,0.346,1.697,0.519
		c0.605,0.172,1.17,0.418,1.697,0.735c0.526,0.317,0.961,0.742,1.307,1.275c0.346,0.533,0.519,1.246,0.519,2.14
		c0,0.85-0.159,1.591-0.476,2.226c-0.317,0.634-0.745,1.159-1.285,1.578c-0.541,0.418-1.168,0.728-1.881,0.929
		c-0.714,0.202-1.466,0.303-2.259,0.303c-0.994,0-1.916-0.152-2.767-0.454C1.527,51.022,0.735,50.532,0,49.854l2.399-2.636
		c0.346,0.461,0.782,0.818,1.308,1.07s1.07,0.378,1.632,0.378c0.274,0,0.551-0.033,0.832-0.097c0.281-0.065,0.533-0.163,0.757-0.292
		c0.223-0.129,0.403-0.295,0.54-0.497s0.205-0.44,0.205-0.713c0-0.461-0.176-0.825-0.53-1.092c-0.353-0.266-0.796-0.493-1.329-0.681
		c-0.533-0.187-1.109-0.374-1.729-0.562c-0.62-0.187-1.196-0.439-1.729-0.756c-0.533-0.317-0.977-0.735-1.329-1.254
		c-0.353-0.518-0.53-1.203-0.53-2.053c0-0.821,0.162-1.542,0.487-2.162c0.324-0.619,0.756-1.138,1.297-1.556
		c0.54-0.418,1.162-0.731,1.869-0.94c0.706-0.209,1.434-0.313,2.183-0.313c0.865,0,1.7,0.122,2.507,0.367
		c0.807,0.245,1.535,0.656,2.183,1.232L8.711,39.826z"/>
		<path style="clip-path:url(#SVGID_00000176760035594358760660000011557860478804932014_);fill:#585756;" d="M15.324,43.738
		c0-1.225,0.206-2.334,0.616-3.329c0.411-0.994,0.984-1.84,1.719-2.539c0.735-0.699,1.607-1.236,2.615-1.611
		c1.009-0.374,2.111-0.561,3.307-0.561c1.196,0,2.299,0.187,3.307,0.561c1.009,0.375,1.881,0.912,2.616,1.611
		c0.735,0.699,1.307,1.545,1.718,2.539c0.411,0.995,0.616,2.104,0.616,3.329c0,1.225-0.205,2.335-0.616,3.329
		c-0.411,0.994-0.983,1.84-1.718,2.539c-0.735,0.699-1.607,1.236-2.616,1.61c-1.008,0.375-2.111,0.563-3.307,0.563
		c-1.196,0-2.298-0.188-3.307-0.563c-1.008-0.374-1.88-0.911-2.615-1.61c-0.735-0.699-1.308-1.545-1.719-2.539
		C15.53,46.073,15.324,44.963,15.324,43.738 M18.826,43.738c0,0.721,0.112,1.38,0.335,1.978s0.544,1.117,0.962,1.556
		c0.417,0.44,0.918,0.782,1.502,1.027c0.584,0.245,1.236,0.367,1.956,0.367c0.721,0,1.373-0.122,1.957-0.367
		c0.583-0.245,1.083-0.587,1.502-1.027c0.417-0.439,0.738-0.958,0.961-1.556c0.224-0.598,0.336-1.257,0.336-1.978
		c0-0.706-0.112-1.361-0.336-1.967c-0.223-0.605-0.544-1.127-0.961-1.567c-0.419-0.439-0.919-0.781-1.502-1.026
		c-0.584-0.246-1.236-0.368-1.957-0.368c-0.72,0-1.372,0.122-1.956,0.368c-0.584,0.245-1.085,0.587-1.502,1.026
		c-0.418,0.44-0.739,0.962-0.962,1.567C18.938,42.377,18.826,43.032,18.826,43.738"/>
		<path style="clip-path:url(#SVGID_00000176760035594358760660000011557860478804932014_);fill:#585756;" d="M36.723,36.086h5.685
		c0.792,0,1.542,0.073,2.248,0.217c0.706,0.144,1.322,0.393,1.848,0.745c0.526,0.354,0.944,0.829,1.254,1.427
		c0.309,0.598,0.465,1.351,0.465,2.259c0,0.894-0.145,1.643-0.433,2.247c-0.289,0.606-0.684,1.089-1.189,1.449
		c-0.505,0.36-1.102,0.616-1.794,0.767c-0.691,0.151-1.44,0.227-2.248,0.227h-2.464v5.966h-3.372V36.086z M40.095,42.571h2.248
		c0.303,0,0.595-0.029,0.875-0.087c0.282-0.057,0.534-0.154,0.757-0.291s0.403-0.325,0.54-0.562
		c0.137-0.238,0.206-0.537,0.206-0.897c0-0.389-0.09-0.703-0.27-0.941c-0.181-0.237-0.411-0.421-0.692-0.551
		c-0.281-0.129-0.594-0.212-0.94-0.248c-0.346-0.036-0.677-0.054-0.994-0.054h-1.73V42.571z"/>
		<polygon style="clip-path:url(#SVGID_00000176760035594358760660000011557860478804932014_);fill:#585756;"
				 points="52.934,36.086
		56.305,36.086 56.305,41.792 62.855,41.792 62.855,36.086 66.227,36.086 66.227,51.389 62.855,51.389 62.855,44.775 56.305,44.775 
		56.305,51.389 52.934,51.389 	"/>

		<rect x="71.889" y="36.087"
			  style="clip-path:url(#SVGID_00000176760035594358760660000011557860478804932014_);fill:#585756;"
			  width="3.371" height="15.303"/>
		<polygon style="clip-path:url(#SVGID_00000176760035594358760660000011557860478804932014_);fill:#585756;"
				 points="81.054,36.086
		91.451,36.086 91.451,39.199 84.427,39.199 84.427,42.052 91.062,42.052 91.062,45.164 84.427,45.164 84.427,48.277 91.84,48.277 
		91.84,51.389 81.054,51.389 	"/>
		<path style="clip-path:url(#SVGID_00000176760035594358760660000011557860478804932014_);fill:#585756;" d="M117.15,50.308
		c-0.994,0.519-2.032,0.894-3.112,1.124c-1.081,0.23-2.184,0.346-3.308,0.346c-1.196,0-2.299-0.188-3.307-0.562
		c-1.008-0.375-1.88-0.911-2.614-1.61c-0.736-0.699-1.309-1.546-1.72-2.54c-0.409-0.994-0.616-2.103-0.616-3.328
		s0.207-2.335,0.616-3.329c0.411-0.994,0.984-1.841,1.72-2.54c0.734-0.698,1.606-1.235,2.614-1.61
		c1.008-0.375,2.111-0.562,3.307-0.562c1.225,0,2.352,0.148,3.383,0.443c1.03,0.296,1.934,0.804,2.712,1.524l-2.377,2.594
		c-0.461-0.476-0.98-0.836-1.556-1.081c-0.577-0.245-1.297-0.368-2.162-0.368c-0.72,0-1.372,0.123-1.955,0.368
		c-0.584,0.245-1.086,0.587-1.503,1.027c-0.418,0.439-0.739,0.961-0.962,1.567c-0.223,0.605-0.335,1.261-0.335,1.967
		c0,0.72,0.112,1.38,0.335,1.977c0.223,0.598,0.544,1.117,0.962,1.557c0.417,0.439,0.919,0.781,1.503,1.026
		c0.583,0.246,1.235,0.367,1.955,0.367c0.735,0,1.369-0.082,1.902-0.248c0.533-0.165,0.959-0.335,1.276-0.508v-2.485h-2.745v-3.113
		h5.987V50.308z"/>
		<path style="clip-path:url(#SVGID_00000176760035594358760660000011557860478804932014_);fill:#585756;" d="M135.61,45.489
		c0,0.908-0.137,1.743-0.411,2.507s-0.681,1.427-1.221,1.989c-0.54,0.562-1.215,1.002-2.021,1.318
		c-0.807,0.317-1.737,0.476-2.788,0.476c-1.067,0-2.004-0.159-2.811-0.476c-0.807-0.316-1.48-0.756-2.02-1.318
		c-0.541-0.562-0.948-1.225-1.221-1.989c-0.274-0.764-0.412-1.599-0.412-2.507v-9.402h3.372v9.272c0,0.476,0.075,0.916,0.227,1.319
		c0.151,0.403,0.364,0.752,0.638,1.048c0.274,0.295,0.601,0.526,0.984,0.692c0.381,0.166,0.795,0.248,1.243,0.248
		c0.446,0,0.856-0.082,1.231-0.248s0.698-0.397,0.973-0.692c0.273-0.296,0.486-0.645,0.637-1.048s0.227-0.843,0.227-1.319v-9.272
		h3.373V45.489z"/>
		<polygon style="clip-path:url(#SVGID_00000176760035594358760660000011557860478804932014_);fill:#585756;"
				 points="
		145.077,44.862 139.327,36.086 143.52,36.086 146.763,41.814 150.2,36.086 154.198,36.086 148.449,44.862 148.449,51.39 
		145.077,51.39 	"/>
		<polygon style="clip-path:url(#SVGID_00000176760035594358760660000011557860478804932014_);fill:#585756;"
				 points="
		158.046,36.086 168.442,36.086 168.442,39.199 161.418,39.199 161.418,42.052 168.054,42.052 168.054,45.164 161.418,45.164 
		161.418,48.277 168.832,48.277 168.832,51.389 158.046,51.389 	"/>
		<path style="clip-path:url(#SVGID_00000176760035594358760660000011557860478804932014_);fill:#585756;" d="M174.126,36.087h5.923
		c0.778,0,1.517,0.075,2.215,0.227c0.699,0.151,1.311,0.403,1.837,0.756c0.526,0.354,0.944,0.829,1.255,1.427
		c0.309,0.598,0.464,1.344,0.464,2.237c0,1.081-0.281,1.999-0.843,2.756c-0.562,0.757-1.384,1.236-2.464,1.437l3.89,6.463h-4.042
		l-3.199-6.117h-1.664v6.117h-3.372V36.087z M177.498,42.42h1.989c0.303,0,0.623-0.011,0.962-0.032
		c0.338-0.022,0.645-0.087,0.918-0.195c0.274-0.108,0.501-0.277,0.681-0.508c0.18-0.23,0.271-0.555,0.271-0.973
		c0-0.389-0.08-0.698-0.238-0.929c-0.159-0.23-0.361-0.407-0.605-0.529c-0.246-0.123-0.527-0.206-0.843-0.249
		c-0.317-0.043-0.628-0.065-0.93-0.065h-2.205V42.42z"/>

		<rect x="53.747" y="15.463" transform="matrix(0.557 -0.8305 0.8305 0.557 8.2898 60.2926)"
			  style="clip-path:url(#SVGID_00000176760035594358760660000011557860478804932014_);fill-rule:evenodd;clip-rule:evenodd;fill:#13803E;"
			  width="13.826" height="13.826"/>

		<rect x="68.954" y="5.904" transform="matrix(0.7688 -0.6394 0.6394 0.7688 9.3421 51.4758)"
			  style="clip-path:url(#SVGID_00000176760035594358760660000011557860478804932014_);fill-rule:evenodd;clip-rule:evenodd;fill:#0D66A8;"
			  width="13.826" height="13.826"/>

		<rect x="87.002" y="1.134" transform="matrix(0.9836 -0.1805 0.1805 0.9836 0.0897 17.0798)"
			  style="clip-path:url(#SVGID_00000176760035594358760660000011557860478804932014_);fill-rule:evenodd;clip-rule:evenodd;fill:#E30C15;"
			  width="13.826" height="13.826"/>

		<rect x="105.438" y="3.986" transform="matrix(0.2063 -0.9785 0.9785 0.2063 78.5111 118.586)"
			  style="clip-path:url(#SVGID_00000176760035594358760660000011557860478804932014_);fill-rule:evenodd;clip-rule:evenodd;fill:#F28A0B;"
			  width="13.826" height="13.826"/>
</g>
</svg>
