<?xml version="1.0" encoding="UTF-8"?>
<svg id="Ebene_1" xmlns="http://www.w3.org/2000/svg" width="102.8mm" height="64.1mm" version="1.1" viewBox="0 0 291.4 181.8">
  <!-- Generator: Adobe Illustrator 29.3.0, SVG Export Plug-In . SVG Version: 2.1.0 Build 146)  -->
  <path d="M217.5,119c-12.5,0-22.6-10.1-22.6-22.6v-22.6h22.6c6,0,11.7,2.4,16,6.6,4.2,4.2,6.6,10,6.6,16v22.6h-22.6Z" fill="#0bbbef"/>
  <line x1="25.4" y1="70.1" x2="180.4" y2="70.1" fill="none" stroke="#1d1d1b" stroke-miterlimit="10" stroke-width=".5"/>
  <path d="M217.5,21.2c-12.5,0-22.6,10.1-22.6,22.6v22.6h22.6c6,0,11.7-2.4,16-6.6,4.2-4.2,6.6-10,6.6-16v-22.6h-22.6Z" fill="#95c11f"/>
  <g>
    <path d="M25.4,36.3h2v20.5h10.8v1.8h-12.8v-22.3Z" fill="#1d1d1b"/>
    <path d="M43.1,37c0-1,.6-1.7,1.6-1.7s1.6.7,1.6,1.7-.7,1.6-1.6,1.6-1.6-.7-1.6-1.6ZM43.7,42.7h1.9v15.9h-1.9v-15.9Z" fill="#1d1d1b"/>
    <path d="M53.1,42.7h2v1.5c1-.8,2.8-1.8,5-1.8,4.1,0,6.4,2.1,6.4,6v10.2h-2v-10.3c0-2.8-1.8-4.2-4.8-4.2s-4,1.2-4.7,1.9v12.6h-2v-15.9Z" fill="#1d1d1b"/>
    <path d="M86.1,58.6h-1.9v-1.3c-.9.8-2.7,1.6-4.7,1.6-5,0-7.7-3.7-7.7-8.4s2.7-8.2,7.8-8.2,3.6.5,4.6,1.3v-8.5l2-.2v23.8ZM84.1,45.4c-.7-.6-2.2-1.3-4.5-1.3-3.7,0-5.9,2.7-5.9,6.4s1.8,6.6,5.9,6.6,3.8-.9,4.5-1.7v-10Z" fill="#1d1d1b"/>
    <path d="M93.5,51.4c0,3.1,1.8,5.8,5.6,5.8s5.2-1.7,6.1-2.5v2.1c-.8.7-3.1,2.1-6.1,2.1-5.3,0-7.6-3.6-7.6-8.5s3.1-8.1,7.3-8.1,6.6,3.7,6.6,6.7,0,1.8-.1,2.3h-11.8ZM103.4,49.7c.3-3.4-1.5-5.6-4.6-5.6s-5.3,2.3-5.3,5.6h10Z" fill="#1d1d1b"/>
    <path d="M111,35l2-.3v9.4c.9-.8,2.7-1.8,5-1.8,4.3,0,6.4,2.3,6.4,6v10.2h-2v-10.3c0-2.7-1.7-4.2-4.8-4.2s-4.2,1.3-4.7,1.8v12.7h-2v-23.6Z" fill="#1d1d1b"/>
    <path d="M144,58.6h-2v-1.5c-.9.6-2.7,1.8-5,1.8-4,0-6.1-2.4-6.1-6.1v-10.2h2v10.2c0,2.6,1.3,4.3,4.4,4.3s3.8-.9,4.7-1.9v-12.6h2v15.9Z" fill="#1d1d1b"/>
    <path d="M149.9,55.6c1,.7,2.7,1.5,5,1.5s4.2-.6,4.2-2.5-1.4-2.2-2.9-2.7l-2.2-.7c-1.9-.6-4.6-1.8-4.6-4.5s2.4-4.4,6.2-4.4,4.2.6,5,.9v2.1c-1-.6-2.8-1.3-5-1.3s-4.1.7-4.1,2.5,1.6,2.2,3.1,2.7l2.4.8c1.9.6,4.1,1.7,4.1,4.3s-3,4.5-6.3,4.5-4.2-.7-4.9-1.2v-2.1Z" fill="#1d1d1b"/>
  </g>
  <g>
    <path d="M25.4,83.8h2v22.3h-2v-22.3Z" fill="#1d1d1b"/>
    <path d="M34.5,90.1h2v1.5c1-.8,2.6-1.8,4.8-1.8s4.5.9,5.4,2.6c1.1-1.2,3.1-2.6,5.6-2.6,4,0,6.3,2.1,6.3,6v10.2h-2v-10.3c0-2.8-1.8-4.2-4.7-4.2s-3.9,1.3-4.7,2.2c.1.6.2,1.3.2,2v10.2h-2v-10.3c0-2.8-1.8-4.2-4.7-4.2s-3.8,1.2-4.5,1.9v12.6h-2v-15.9Z" fill="#1d1d1b"/>
    <path d="M73.6,101.6c1.2,1.3,3.5,2.9,6.5,2.9s5.2-2,5.2-4.4-1.9-3.6-3.9-4.3l-2.5-.8c-3-1-5.2-2.4-5.2-5.9s3.3-5.7,7-5.7,5.1,1.2,5.9,1.7v2.5c-1.3-1.3-3.3-2.3-5.9-2.3s-5,1.3-5,3.9,1.4,3.3,3.8,4.1l2.5.8c2.8.9,5.2,2.4,5.2,6.1s-2.6,6.2-7.2,6.2-5.8-1.6-6.5-2.3v-2.5Z" fill="#1d1d1b"/>
    <path d="M93,90.1h1.9v1.6c.8-.9,2.3-1.9,4.8-1.9,4.9,0,7.5,3.8,7.5,8.3s-3.1,8.3-7.8,8.3-3.7-.8-4.5-1.4v8.3h-2v-23.2ZM95,103.1c.4.4,1.8,1.5,4.4,1.5s5.9-2.4,5.9-6.5-1.7-6.5-5.8-6.5-3.8,1.1-4.4,2v9.5Z" fill="#1d1d1b"/>
    <path d="M112.5,84.4c0-1,.6-1.7,1.6-1.7s1.6.7,1.6,1.7-.7,1.6-1.6,1.6-1.6-.7-1.6-1.6ZM113.1,90.1h1.9v15.9h-1.9v-15.9Z" fill="#1d1d1b"/>
    <path d="M122.9,98.8c0,3.1,1.8,5.8,5.6,5.8s5.2-1.7,6.1-2.5v2.1c-.8.7-3.1,2.1-6.1,2.1-5.3,0-7.6-3.6-7.6-8.5s3.1-8.1,7.3-8.1,6.6,3.7,6.6,6.7,0,1.8-.1,2.3h-11.8ZM132.9,97.2c.3-3.4-1.5-5.6-4.6-5.6s-5.3,2.3-5.3,5.6h10Z" fill="#1d1d1b"/>
    <path d="M140.4,109.5c1.1.8,3.4,2.3,6.1,2.3s5.1-2.2,5.1-5.5v-2.2c-.8,1.1-2.5,2.3-5,2.3-4.8,0-7.6-3.8-7.6-8.3s2.9-8.3,7.7-8.3,4.1,1.2,4.9,1.9v-1.6h1.9v16.1c0,4.4-2.5,7.3-7.1,7.3s-5.2-1.3-6.1-1.9v-2.2ZM151.6,93.6c-.8-.8-2.5-2-4.9-2-3.4,0-5.7,2.5-5.7,6.5s2.2,6.5,5.7,6.5,3.9-1.1,4.9-2.3v-8.6Z" fill="#1d1d1b"/>
    <path d="M160.9,98.8c0,3.1,1.8,5.8,5.6,5.8s5.2-1.7,6.1-2.5v2.1c-.8.7-3.1,2.1-6.1,2.1-5.3,0-7.6-3.6-7.6-8.5s3.1-8.1,7.3-8.1,6.6,3.7,6.6,6.7,0,1.8-.1,2.3h-11.8ZM170.9,97.2c.3-3.4-1.5-5.6-4.6-5.6s-5.3,2.3-5.3,5.6h10Z" fill="#1d1d1b"/>
    <path d="M178.5,82.5l2-.3v23.8h-2v-23.6Z" fill="#1d1d1b"/>
  </g>
  <g>
    <path d="M25.5,128.4h2.8c2,0,3.2,1.1,3.2,2.9s-1.2,2.9-3.3,2.9h-2v3.2h-.8v-8.9ZM28.3,133.5c1.6,0,2.5-.7,2.5-2.2s-1-2.2-2.4-2.2h-2v4.4h2Z" fill="#1d1d1b"/>
    <path d="M34.8,128.4h5.3v.7h-4.5v3.4h4.6v.7h-4.6v4.1h-.8v-8.9Z" fill="#1d1d1b"/>
    <path d="M43.4,128.4h.8v8.2h4.3v.7h-5.1v-8.9Z" fill="#1d1d1b"/>
    <path d="M51.6,128.4h5.5v.7h-4.7v3h4.7v.7h-4.7v3.8h4.7v.7h-5.5v-8.9Z" fill="#1d1d1b"/>
    <path d="M66.9,136.8c-.5.4-1.5.8-2.9.8-2.5,0-4-1.7-4-4.5s1.5-4.7,4-4.7,2.3.3,2.8.6v.9c-.7-.4-1.5-.8-2.8-.8-2.1,0-3.2,1.8-3.2,4s1.1,3.8,3.2,3.8,1.7-.2,2.1-.5v-2.6h-2.7v-.7h3.5v3.7Z" fill="#1d1d1b"/>
    <path d="M70.6,128.4h5.5v.7h-4.7v3h4.7v.7h-4.7v3.8h4.7v.7h-5.5v-8.9Z" fill="#1d1d1b"/>
    <path d="M89.6,135.5l.7.7c.4.5.7.5.9.5s.2,0,.3,0v.7c0,0-.2,0-.3,0-.6,0-.9-.2-1.4-.8l-.7-.7h-.1c-.5.7-1.3,1.4-2.5,1.4s-2.3-.9-2.3-2.2.8-1.8,1.6-2.3h.2c0-.1-.2-.4-.2-.4-.7-.7-1.3-1.4-1.3-2.2s.9-2.1,2.3-2.1,2.4,1,2.4,2-.5,1.4-1.2,1.9l-.9.7,2,2.1,2.4-2.7v1.1l-1.9,2.2ZM88.4,135.7h.1c0-.1-2.1-2.3-2.1-2.3h0c-.8.6-1.4,1.1-1.4,1.9s.6,1.5,1.5,1.5,1.5-.5,2-1.1ZM86.2,132.1l.3.3.8-.5c.6-.5,1.1-.8,1.1-1.5s-.6-1.3-1.6-1.3-1.5.6-1.5,1.3.5,1.2,1,1.7Z" fill="#1d1d1b"/>
    <path d="M103.5,132.9c.3,0,1.8.5,1.8,2.1s-1.2,2.4-3.1,2.4h-2.6v-8.9h2.6c1.7,0,2.7.9,2.7,2.3s-1.2,2-1.5,2.1h0ZM102.3,132.5c1.1,0,1.9-.7,1.9-1.7s-.6-1.6-1.9-1.6h-1.8v3.4h1.8ZM102.3,136.7c1.4,0,2.2-.5,2.2-1.7s-.8-1.7-2.2-1.7h-1.8v3.4h1.8Z" fill="#1d1d1b"/>
    <path d="M108.8,128.4h5.5v.7h-4.7v3h4.7v.7h-4.7v3.8h4.7v.7h-5.5v-8.9Z" fill="#1d1d1b"/>
    <path d="M119.6,129.2h-2.7v-.7h6.2v.7h-2.7v8.2h-.8v-8.2Z" fill="#1d1d1b"/>
    <path d="M126,128.4h3c1.7,0,3,.9,3,2.5s-1.5,2.4-2.1,2.5l2.2,3.9h-.9l-2-3.8h-2.2v3.8h-.8v-8.9ZM128.9,132.9c1.2,0,2.2-.6,2.2-1.9s-.9-1.8-2.2-1.8h-2.1v3.7h2.1Z" fill="#1d1d1b"/>
    <path d="M135.2,128.4h5.5v.7h-4.7v3h4.7v.7h-4.7v3.8h4.7v.7h-5.5v-8.9Z" fill="#1d1d1b"/>
    <path d="M144.1,128.4h.8v5.6c0,1.5.7,2.7,2.4,2.7s2.4-1.3,2.4-2.7v-5.6h.8v5.6c0,2-1,3.5-3.2,3.5s-3.2-1.3-3.2-3.5v-5.6Z" fill="#1d1d1b"/>
    <path d="M153.9,128.4h.8v5.6c0,1.5.7,2.7,2.4,2.7s2.4-1.3,2.4-2.7v-5.6h.8v5.6c0,2-1,3.5-3.2,3.5s-3.2-1.3-3.2-3.5v-5.6Z" fill="#1d1d1b"/>
    <path d="M163.9,128.4h.7l4.8,7.6v-7.6h.8v8.9h-.8l-4.7-7.5v7.5h-.8v-8.9Z" fill="#1d1d1b"/>
    <path d="M180.4,136.8c-.5.4-1.5.8-2.9.8-2.5,0-4-1.7-4-4.5s1.5-4.7,4-4.7,2.3.3,2.8.6v.9c-.7-.4-1.5-.8-2.8-.8-2.1,0-3.2,1.8-3.2,4s1.1,3.8,3.2,3.8,1.7-.2,2.1-.5v-2.6h-2.7v-.7h3.5v3.7Z" fill="#1d1d1b"/>
  </g>
</svg>