<?xml version="1.0" encoding="UTF-8"?> <svg xmlns="http://www.w3.org/2000/svg" width="417" height="84.706" viewBox="0 0 417 84.706"><g id="Gruppe_437" data-name="Gruppe 437" transform="translate(-46 -30.294)"><g id="Gruppe_183" data-name="Gruppe 183" transform="translate(85.98 81.344)"><path id="Pfad_131" data-name="Pfad 131" d="M0,0H-9.952l-8.961,21.886L-27.96,0h-10.6V.775c3.877.517,4.265.733,4.265,5.515V24.944c0,4.782-.388,5-4.265,5.515v.775H-28v-.775c-3.878-.517-4.265-.733-4.265-5.515V3.49l11.33,26.581h.9L-9.306,4.136V24.944c0,4.782-.387,5-4.265,5.515v.775H0v-.775c-3.877-.517-4.265-.733-4.265-5.515V6.29c0-4.782.388-5,4.265-5.515ZM23.307,24.169V16.5c0-3.963.086-6.376.129-8.616l-8.013.775v.776c3.317.172,3.317.862,3.317,4.351V26.021a5.223,5.223,0,0,1-4.566,2.672c-2.844,0-4.093-2.111-4.093-6.377V16.457c0-3.963.043-6.333.086-8.573L2.24,8.659v.776c3.317.172,3.317.862,3.317,4.351,0,2.542-.086,6.893-.086,9.392,0,6.2,3.059,8.616,6.764,8.616,3.059,0,5.428-2.24,6.635-4.394l.56,4.179,7.237-2.369v-.733c-3.317-.129-3.36-.3-3.36-4.308m13.441,7.625c3.059,0,4.7-1.938,5.9-3.877l-.387-.388A4.882,4.882,0,0,1,38.9,28.865c-2.369,0-2.972-1.293-2.972-4.567V9.78h5.6V8.056h-5.6V1.034L31.406,4.179V8.056H27.615V9.78h3.748V25.117c0,4.868,1.982,6.677,5.385,6.677m15.294,0c3.058,0,4.7-1.938,5.9-3.877l-.388-.388a4.88,4.88,0,0,1-3.36,1.336c-2.37,0-2.973-1.293-2.973-4.567V9.78h5.6V8.056h-5.6V1.034L46.7,4.179V8.056H42.908V9.78h3.748V25.117c0,4.868,1.982,6.677,5.386,6.677m18.309,0c4.825,0,7.884-3.231,9.564-6.2L79.4,25.16a9.7,9.7,0,0,1-6.936,2.8c-5.3,0-8.358-4.351-8.358-10.727v-.216H79.527c-.388-6.29-4.222-9.348-8.875-9.348-5.859,0-10.641,5.471-10.641,12.235s3.361,11.89,10.34,11.89M69.834,9.263c3.059,0,4.61,2.8,4.48,6.074H64.19c.517-4.222,2.843-6.074,5.644-6.074m12.795,1.852c3.4.043,3.446.043,3.446,4.222v9.694c0,4.437-.043,5.04-3.446,5.428v.775H94v-.775c-3.318-.388-3.361-.991-3.361-5.428V12.8a5.584,5.584,0,0,1,4.524-1.981c2.972,0,4.308,1.938,4.308,5.945v8.272c0,4.437-.043,5.04-3.36,5.428v.775h11.373v-.775c-3.4-.388-3.446-.991-3.446-5.428V15.854c0-5.687-2.8-8.185-6.549-8.185-3.231,0-5.256,2.024-6.85,3.963L90.6,7.669l-7.97,2.671Zm47.045,20.119V23.652h-.862c-.775,5.3-2.111,5.816-7.841,5.816h-4.48L130.449,8.487V8.056h-18.31v7.583h.9c.733-5.386,2.154-5.816,7.927-5.816h3.576L110.373,30.847v.387Z" fill="#2b2e34"></path></g><g id="Gruppe_184" data-name="Gruppe 184" transform="translate(46 65.75)"><path id="Pfad_132" data-name="Pfad 132" d="M0,0H9.693V-.775C5.988-1.12,5.3-1.637,8.4-9.564l.215-.6H21.153l2.37,6.031c.861,2.2.172,3.016-2.93,3.361V0H33.216V-.775c-2.8-.173-3.231-1.034-4.523-4.309L17.62-32.915h-.172a3.7,3.7,0,0,1-2.412,1.465L5.773-8.1C3.317-1.809,2.886-1.034,0-.775ZM14.906-26.065l5.386,13.787H9.478Zm24.169-1.723V-6.2c0,4.438-.043,5.041-3.447,5.429V0h11.46V-.775c-3.4-.388-3.446-.991-3.446-5.429V-26.021c0-4.4.043-7.152.086-9.435l-8.1,2.671v.775c3.361.043,3.447.043,3.447,4.222M57.729.56c3.059,0,4.7-1.939,5.9-3.877L63.244-3.7A4.881,4.881,0,0,1,59.883-2.37c-2.369,0-2.972-1.292-2.972-4.566V-21.455h5.6v-1.723h-5.6V-30.2l-4.524,3.145v3.877H48.6v1.723h3.748V-6.118c0,4.869,1.982,6.678,5.385,6.678m18.309,0c4.826,0,7.884-3.231,9.565-6.2l-.517-.431a9.7,9.7,0,0,1-6.937,2.8c-5.3,0-8.357-4.351-8.357-10.728v-.215H85.215c-.388-6.29-4.222-9.349-8.875-9.349-5.859,0-10.641,5.472-10.641,12.235S69.059.56,76.038.56m-.517-22.532c3.059,0,4.61,2.8,4.481,6.075H69.878c.517-4.222,2.843-6.075,5.643-6.075M88.36,0H101.5V-.819c-4.912-.3-5.127-.517-5.127-5.385V-17.836c1.163-1.508,2.542-2.542,3.274-2.542.259,0,.431.13.732.388l1.379,1.336a1.825,1.825,0,0,0,1.465.646,2.651,2.651,0,0,0,2.671-2.757c0-1.724-1.292-2.844-3.231-2.844-2.714,0-4.653,2.456-6.29,4.524l-.086-4.481L88.36-20.9v.776c3.36.043,3.446.043,3.446,4.265V-6.2c0,4.438-.043,5.041-3.446,5.429Zm29.424-23.566c-3.662,0-8.357,1.853-8.357,6.2,0,3.576,2.24,5.127,5.385,6.807l2.412,1.292c2.37,1.207,3.835,2.327,3.835,4.179,0,2.714-2.284,3.705-4.524,3.705-3.4,0-5.6-2.326-6.333-7.754h-.819v8.1A17.014,17.014,0,0,0,116.277.56c4.265,0,8.444-2.5,8.444-6.893,0-3.834-2.241-5.385-5.946-7.324l-2.412-1.292c-1.982-1.034-3.533-2.068-3.533-3.878,0-1.9,1.9-3.016,4.05-3.016,2.8,0,4.825,1.724,5.643,5.86h.9l-.043-6.549a16.156,16.156,0,0,0-5.6-1.034M150.268.517h1.292l6.721-18.784c1.12-3.015,1.766-3.963,3.791-4.136v-.775H154.4v.775c2.714.259,2.757,1.293,1.249,5.558l-3.4,9.823-5.3-16.156H145.1L139.67-7.065l-3.792-11.891c-.689-2.111-.99-3.274,2.284-3.447v-.775H127.736v.775c1.68.216,2.154.905,2.93,2.93L137.688.517h1.249l5.73-16.974Zm24.255-22.4c5.385,0,7.281,7.669,7.281,11.891,0,5.428-1.982,8.875-6.032,8.875-5.428,0-7.41-7.669-7.41-11.934,0-5.428,2.025-8.832,6.161-8.832m.431-1.68c-6.463,0-11.5,5.342-11.5,12.02A11.888,11.888,0,0,0,175.255.56c6.419,0,11.5-5.385,11.5-12.106a11.841,11.841,0,0,0-11.8-12.02M197.83-19.6v-6.419c0-4.4.043-7.152.086-9.435l-8.1,2.671v.775c3.36.043,3.446.043,3.446,4.222V-6.2c0,4.438-.043,5.041-3.446,5.429V0H201.19V-.775c-3.317-.388-3.36-.991-3.36-5.429V-18.439a5.522,5.522,0,0,1,4.523-1.982c2.93,0,4.4,1.939,4.4,5.945V-6.2c0,4.438-.043,5.041-3.361,5.429V0h11.374V-.775c-3.4-.388-3.447-.991-3.447-5.429V-15.38c0-5.687-2.886-8.186-6.634-8.186-3.231,0-5.256,2.025-6.85,3.964m18.7-.517c3.4.043,3.446.043,3.446,4.222V-6.2c0,4.438-.043,5.041-3.446,5.429V0H227.9V-.775c-3.317-.388-3.36-.991-3.36-5.429V-18.439a5.581,5.581,0,0,1,4.523-1.982c2.973,0,4.309,1.939,4.309,5.945V-6.2c0,4.438-.043,5.041-3.361,5.429V0h11.374V-.775c-3.4-.388-3.447-.991-3.447-5.429V-15.38c0-5.687-2.8-8.186-6.548-8.186-3.231,0-5.256,2.025-6.85,3.964l-.043-3.964-7.97,2.671ZM254.223.56c4.825,0,7.884-3.231,9.564-6.2l-.517-.431a9.7,9.7,0,0,1-6.936,2.8c-5.3,0-8.358-4.351-8.358-10.728v-.215H263.4c-.387-6.29-4.222-9.349-8.875-9.349-5.859,0-10.641,5.472-10.641,12.235S247.244.56,254.223.56m-.517-22.532c3.059,0,4.61,2.8,4.48,6.075H248.062c.517-4.222,2.844-6.075,5.644-6.075m12.8,1.853c3.4.043,3.447.043,3.447,4.222V-6.2c0,4.438-.044,5.041-3.447,5.429V0h11.374V-.775c-3.318-.388-3.361-.991-3.361-5.429V-18.439a5.583,5.583,0,0,1,4.524-1.982c2.972,0,4.308,1.939,4.308,5.945V-6.2c0,4.438-.043,5.041-3.36,5.429V0h11.373V-.775c-3.4-.388-3.446-.991-3.446-5.429V-15.38c0-5.687-2.8-8.186-6.549-8.186-3.231,0-5.256,2.025-6.85,3.964l-.043-3.964L266.5-20.9Z" fill="#2b2e34"></path></g><circle id="Ellipse_50" data-name="Ellipse 50" cx="41.5" cy="41.5" r="41.5" transform="translate(380 32)" fill="#ff5701"></circle></g></svg> 