<?xml version="1.0" encoding="utf-8"?>
<!-- Generator: Adobe Illustrator 27.1.1, SVG Export Plug-In . SVG Version: 6.00 Build 0)  -->
<svg version="1.1" id="Ebene_1" xmlns="http://www.w3.org/2000/svg" xmlns:xlink="http://www.w3.org/1999/xlink" x="0px" y="0px"
	 width="344px" height="52.41px" viewBox="0 0 344 52.41" style="enable-background:new 0 0 344 52.41;" xml:space="preserve">
<style type="text/css">
	.st0{fill:#991B4B;}
	.st1{fill:#5A595C;}
</style>
<g>
	<path class="st0" d="M15.5,8.06c1.31,0.78,2.36,1.87,3.1,3.28c0.75,1.4,1.12,3.05,1.12,4.91s-0.37,3.51-1.12,4.91
		c-0.75,1.4-1.78,2.5-3.1,3.28c-1.31,0.78-2.78,1.16-4.39,1.16c-2.21,0-3.94-0.73-5.2-2.19v8.48H0.91V7.16H5.7v2.09
		C6.95,7.67,8.76,6.9,11.13,6.9c1.61,0,3.07,0.38,4.39,1.16H15.5z M13.41,19.9c0.83-0.91,1.24-2.13,1.24-3.66s-0.41-2.75-1.24-3.66
		c-0.83-0.91-1.89-1.36-3.16-1.36s-2.35,0.46-3.16,1.36c-0.83,0.91-1.24,2.13-1.24,3.66S6.26,19,7.09,19.9
		c0.83,0.91,1.89,1.36,3.16,1.36S12.6,20.81,13.41,19.9z"/>
	<path class="st0" d="M28.57,7.57h4.44v4.05H28.7v13.7h-5.01v-13.7h-2.66V7.57h2.66V6.76c0-2.07,0.59-3.71,1.75-4.93
		C26.61,0.61,28.25,0,30.37,0c0.75,0,1.47,0.09,2.14,0.25c0.68,0.17,1.24,0.41,1.68,0.73l-1.31,3.81c-0.57-0.42-1.25-0.64-2.03-0.64
		c-1.52,0-2.28,0.88-2.28,2.64C28.57,6.8,28.57,7.57,28.57,7.57z M35.52,0.28h5.01v25.05h-5.01C35.52,25.33,35.52,0.28,35.52,0.28z"
		/>
	<path class="st0" d="M62.04,17.73H48.96c0.24,1.12,0.79,2.01,1.67,2.66c0.88,0.65,1.98,0.98,3.28,0.98c0.91,0,1.7-0.14,2.4-0.42
		c0.7-0.28,1.34-0.73,1.95-1.34l2.66,3.03c-1.63,1.96-4,2.93-7.14,2.93c-1.95,0-3.67-0.4-5.18-1.2c-1.5-0.8-2.65-1.91-3.47-3.33
		c-0.82-1.42-1.22-3.02-1.22-4.83c0-1.81,0.4-3.38,1.21-4.81c0.8-1.43,1.91-2.54,3.31-3.34c1.4-0.8,2.97-1.2,4.7-1.2
		s3.23,0.38,4.6,1.15c1.38,0.76,2.45,1.86,3.23,3.29c0.78,1.43,1.17,3.09,1.17,4.98c0,0.06-0.04,0.54-0.1,1.42L62.04,17.73z
		 M50.31,11.89c-0.78,0.68-1.25,1.59-1.42,2.77h8.52c-0.17-1.15-0.64-2.07-1.42-2.75c-0.76-0.69-1.72-1.03-2.83-1.03
		s-2.09,0.33-2.86,1.01L50.31,11.89z"/>
	<path class="st0" d="M83.33,7.16v15.12c0,3.33-0.83,5.8-2.47,7.43c-1.64,1.62-4.07,2.44-7.23,2.44c-1.67,0-3.26-0.22-4.76-0.64
		c-1.5-0.43-2.74-1.05-3.74-1.86l1.99-3.79c0.73,0.62,1.64,1.13,2.77,1.5c1.11,0.37,2.23,0.56,3.34,0.56c1.73,0,3.02-0.41,3.84-1.24
		c0.83-0.82,1.24-2.07,1.24-3.74v-0.78c-1.31,1.5-3.14,2.26-5.47,2.26c-1.58,0-3.03-0.37-4.36-1.1c-1.31-0.73-2.36-1.76-3.14-3.09
		c-0.78-1.33-1.16-2.86-1.16-4.59s0.38-3.26,1.16-4.59c0.78-1.33,1.81-2.36,3.14-3.09c1.31-0.73,2.77-1.1,4.36-1.1
		c2.51,0,4.41,0.87,5.72,2.6V7.16h4.76L83.33,7.16z M77.1,18.89c0.84-0.82,1.27-1.9,1.27-3.23s-0.42-2.4-1.27-3.23
		c-0.84-0.82-1.94-1.24-3.26-1.24c-1.33,0-2.42,0.41-3.28,1.24s-1.29,1.9-1.29,3.23s0.43,2.4,1.29,3.23
		c0.85,0.82,1.95,1.24,3.28,1.24C75.17,20.13,76.26,19.72,77.1,18.89z"/>
	<path class="st0" d="M104.83,17.73H91.75c0.24,1.12,0.79,2.01,1.67,2.66c0.88,0.65,1.98,0.98,3.28,0.98c0.91,0,1.7-0.14,2.4-0.42
		c0.7-0.28,1.34-0.73,1.95-1.34l2.66,3.03c-1.63,1.96-4,2.93-7.14,2.93c-1.95,0-3.67-0.4-5.18-1.2c-1.5-0.8-2.65-1.91-3.47-3.33
		c-0.82-1.42-1.22-3.02-1.22-4.83c0-1.81,0.4-3.38,1.21-4.81c0.8-1.43,1.91-2.54,3.31-3.34c1.4-0.8,2.97-1.2,4.7-1.2
		s3.23,0.38,4.6,1.15c1.38,0.76,2.45,1.86,3.24,3.29c0.78,1.43,1.17,3.09,1.17,4.98c0,0.06-0.04,0.54-0.1,1.42L104.83,17.73z
		 M93.09,11.89c-0.78,0.68-1.25,1.59-1.42,2.77h8.52c-0.17-1.15-0.64-2.07-1.42-2.75c-0.76-0.69-1.72-1.03-2.83-1.03
		s-2.09,0.33-2.86,1.01V11.89z"/>
	<path class="st0" d="M122.35,21.28v4.05h-15.43v-3.17l8.81-10.94h-8.58V7.16h14.92v3.17l-8.81,10.94h9.1H122.35z"/>
	<path class="st0" d="M142.19,17.73h-13.08c0.24,1.12,0.79,2.01,1.67,2.66c0.88,0.65,1.98,0.98,3.28,0.98c0.91,0,1.7-0.14,2.4-0.42
		c0.7-0.28,1.34-0.73,1.95-1.34l2.66,3.03c-1.63,1.96-4,2.93-7.14,2.93c-1.95,0-3.67-0.4-5.18-1.2c-1.5-0.8-2.65-1.91-3.47-3.33
		c-0.82-1.42-1.22-3.02-1.22-4.83c0-1.81,0.4-3.38,1.21-4.81c0.8-1.43,1.91-2.54,3.31-3.34c1.4-0.8,2.97-1.2,4.7-1.2
		c1.73,0,3.23,0.38,4.6,1.15c1.38,0.76,2.45,1.86,3.23,3.29c0.78,1.43,1.17,3.09,1.17,4.98c0,0.06-0.04,0.54-0.1,1.42L142.19,17.73z
		 M130.46,11.89c-0.78,0.68-1.25,1.59-1.42,2.77h8.52c-0.17-1.15-0.64-2.07-1.42-2.75c-0.76-0.69-1.72-1.03-2.83-1.03
		s-2.09,0.33-2.86,1.01V11.89z"/>
	<path class="st0" d="M161.34,8.92c1.31,1.35,1.98,3.35,1.98,6v10.4h-5.01v-9.59c0-1.44-0.31-2.51-0.91-3.23
		c-0.6-0.71-1.47-1.06-2.6-1.06c-1.26,0-2.27,0.41-3.02,1.24c-0.75,0.82-1.12,2.04-1.12,3.66v8.98h-5.01V7.16h4.79v2.13
		c0.66-0.76,1.49-1.35,2.47-1.77c0.98-0.42,2.07-0.62,3.25-0.62c2.14,0,3.88,0.68,5.19,2.03L161.34,8.92z"/>
	<path class="st0" d="M179.01,24.45c-0.5,0.38-1.1,0.68-1.82,0.87c-0.71,0.19-1.48,0.29-2.27,0.29c-2.05,0-3.65-0.55-4.78-1.66
		c-1.12-1.1-1.68-2.73-1.68-4.86v-7.46h-2.66V7.59h2.66V3.16h5.01v4.42h4.31v4.05h-4.31v7.39c0,0.76,0.19,1.35,0.56,1.77
		c0.37,0.42,0.91,0.62,1.59,0.62c0.79,0,1.47-0.23,2.03-0.68l1.35,3.71L179.01,24.45z"/>
	<path class="st0" d="M189.05,7.57c1.02-0.45,2.19-0.68,3.52-0.68v4.86c-0.56-0.05-0.93-0.06-1.12-0.06c-1.44,0-2.56,0.42-3.38,1.26
		c-0.82,0.84-1.22,2.1-1.22,3.8v8.58h-5.01V7.16h4.79v2.4C187.23,8.68,188.04,8.02,189.05,7.57L189.05,7.57z"/>
	<path class="st0" d="M213.11,7.16v18.17h-4.76v-2.15c-0.66,0.79-1.45,1.39-2.38,1.81c-0.92,0.42-1.91,0.62-3,0.62
		c-2.27,0-4.07-0.69-5.41-2.07c-1.33-1.38-1.99-3.4-1.99-6.11V7.16h5.01v9.49c0,2.92,1.17,4.39,3.51,4.39c1.2,0,2.17-0.41,2.89-1.24
		c0.73-0.82,1.1-2.04,1.1-3.66V7.16h5.01L213.11,7.16z"/>
	<path class="st0" d="M245.08,8.9c1.27,1.34,1.91,3.35,1.91,6.03v10.4h-5.01v-9.59c0-1.44-0.28-2.51-0.85-3.23
		c-0.57-0.71-1.38-1.06-2.42-1.06c-1.17,0-2.12,0.4-2.79,1.2c-0.68,0.8-1.03,1.99-1.03,3.56v9.12h-5.01v-9.59
		c0-2.86-1.1-4.28-3.28-4.28c-1.16,0-2.08,0.4-2.77,1.2c-0.69,0.8-1.03,1.99-1.03,3.56v9.12h-5.01V7.16h4.79v2.09
		c0.64-0.76,1.43-1.35,2.36-1.76c0.93-0.41,1.95-0.61,3.07-0.61c1.22,0,2.32,0.25,3.31,0.76c0.98,0.51,1.78,1.25,2.38,2.21
		c0.7-0.94,1.61-1.67,2.69-2.19c1.08-0.52,2.27-0.78,3.56-0.78c2.17,0,3.89,0.68,5.16,2.01L245.08,8.9z"/>
	<path class="st0" d="M266.09,7.57h4.44v4.05h-4.31v13.7h-5.01v-13.7h-2.66V7.57h2.66V6.76c0-2.07,0.59-3.71,1.75-4.93
		S265.77,0,267.89,0c0.75,0,1.47,0.09,2.14,0.25s1.24,0.41,1.68,0.73l-1.31,3.81c-0.57-0.42-1.25-0.64-2.03-0.64
		c-1.52,0-2.28,0.88-2.28,2.64C266.09,6.8,266.09,7.57,266.09,7.57z"/>
	<path class="st0" d="M276.14,24.4c-1.44-0.8-2.58-1.91-3.39-3.33s-1.22-3.02-1.22-4.83s0.41-3.4,1.22-4.83
		c0.82-1.42,1.95-2.52,3.39-3.33s3.09-1.2,4.91-1.2s3.45,0.4,4.88,1.2c1.44,0.8,2.56,1.91,3.38,3.33s1.22,3.02,1.22,4.83
		s-0.41,3.4-1.22,4.83c-0.82,1.42-1.94,2.52-3.38,3.33c-1.44,0.8-3.06,1.2-4.88,1.2S277.59,25.2,276.14,24.4z M284.21,19.91
		c0.83-0.91,1.24-2.13,1.24-3.66c0-1.53-0.41-2.75-1.24-3.66c-0.83-0.91-1.89-1.36-3.16-1.36s-2.35,0.46-3.19,1.36
		s-1.25,2.13-1.25,3.66s0.42,2.75,1.25,3.66c0.84,0.91,1.9,1.36,3.19,1.36S283.39,20.82,284.21,19.91z"/>
	<path class="st0" d="M301.09,7.57c1.02-0.45,2.19-0.68,3.52-0.68v4.86c-0.56-0.05-0.93-0.06-1.12-0.06c-1.44,0-2.56,0.42-3.38,1.26
		c-0.82,0.84-1.22,2.1-1.22,3.8v8.58h-5.01V7.16h4.79v2.4C299.26,8.68,300.08,8.02,301.09,7.57L301.09,7.57z"/>
	<path class="st0" d="M310.84,24.4c-1.47-0.8-2.61-1.91-3.44-3.33c-0.83-1.42-1.24-3.02-1.24-4.83s0.41-3.4,1.24-4.83
		c0.83-1.42,1.98-2.52,3.44-3.33c1.47-0.8,3.12-1.2,4.97-1.2c1.85,0,3.42,0.4,4.78,1.2c1.36,0.8,2.35,1.94,2.97,3.43l-3.89,2.19
		c-0.91-1.67-2.19-2.5-3.89-2.5c-1.31,0-2.4,0.45-3.25,1.35c-0.85,0.91-1.29,2.13-1.29,3.68c0,1.56,0.43,2.78,1.29,3.68
		c0.85,0.91,1.94,1.35,3.25,1.35c1.71,0,3.01-0.83,3.89-2.5l3.89,2.23c-0.62,1.44-1.62,2.56-2.97,3.38
		c-1.36,0.82-2.96,1.21-4.78,1.21S312.31,25.2,310.84,24.4L310.84,24.4z"/>
	<path class="st0" d="M342.02,8.92c1.31,1.35,1.98,3.35,1.98,6v10.4h-5.01v-9.59c0-1.44-0.31-2.51-0.91-3.23
		c-0.6-0.71-1.47-1.06-2.6-1.06c-1.26,0-2.27,0.41-3.02,1.24c-0.75,0.82-1.12,2.04-1.12,3.66v8.98h-5.01V0.28h5.01v8.77
		c0.66-0.7,1.47-1.24,2.41-1.61c0.94-0.37,1.98-0.56,3.09-0.56c2.14,0,3.88,0.68,5.19,2.03L342.02,8.92z"/>
	<path class="st1" d="M11.38,49.73v2.45H0v-1.95l7.14-8.62h-7v-2.46h10.95v1.95l-7.13,8.62h7.41L11.38,49.73z"/>
	<path class="st1" d="M15.85,51.53c-1.08-0.59-1.94-1.39-2.55-2.41c-0.61-1.02-0.92-2.18-0.92-3.45c0-1.27,0.31-2.42,0.92-3.45
		s1.47-1.82,2.55-2.41s2.31-0.88,3.66-0.88c1.35,0,2.56,0.29,3.65,0.88c1.08,0.59,1.93,1.39,2.55,2.41s0.93,2.18,0.93,3.45
		c0,1.27-0.31,2.42-0.93,3.45c-0.62,1.03-1.47,1.82-2.55,2.41c-1.08,0.59-2.29,0.88-3.65,0.88C18.15,52.41,16.93,52.12,15.85,51.53z
		 M21.58,49.31c0.62-0.36,1.11-0.84,1.47-1.48c0.36-0.64,0.54-1.35,0.54-2.15s-0.18-1.53-0.54-2.15c-0.36-0.64-0.84-1.12-1.47-1.48
		c-0.62-0.36-1.31-0.54-2.08-0.54c-0.76,0-1.47,0.18-2.08,0.54s-1.11,0.84-1.47,1.48c-0.36,0.64-0.54,1.35-0.54,2.15
		s0.18,1.53,0.54,2.15c0.36,0.64,0.84,1.12,1.47,1.48s1.31,0.54,2.08,0.54C20.27,49.85,20.97,49.67,21.58,49.31z"/>
	<path class="st1" d="M28.89,39.16h3.01v10.57h6.53v2.45h-9.55V39.16H28.89z"/>
	<path class="st1" d="M40.13,39.16h3.01v10.57h6.53v2.45h-9.55V39.16H40.13z"/>
	<path class="st1" d="M51.36,39.16h3.01v13.02h-3.01V39.16z"/>
	<path class="st1" d="M69.42,39.16v13.02h-2.47l-6.49-7.9v7.9h-2.97V39.16h2.5l6.48,7.9v-7.9h2.97H69.42z"/>
	<path class="st1" d="M81.3,45.46h2.75v5.28c-0.7,0.54-1.53,0.94-2.46,1.22c-0.93,0.28-1.86,0.42-2.8,0.42
		c-1.35,0-2.56-0.29-3.65-0.87c-1.08-0.57-1.93-1.38-2.54-2.4c-0.61-1.02-0.92-2.18-0.92-3.47s0.31-2.45,0.92-3.47
		c0.61-1.02,1.47-1.82,2.56-2.4c1.1-0.57,2.32-0.87,3.68-0.87c1.15,0,2.18,0.19,3.11,0.57c0.93,0.38,1.71,0.94,2.35,1.67l-1.94,1.78
		c-0.93-0.98-2.05-1.47-3.37-1.47c-0.83,0-1.57,0.18-2.22,0.52c-0.65,0.34-1.15,0.84-1.5,1.47c-0.36,0.62-0.54,1.36-0.54,2.18
		c0,0.82,0.18,1.53,0.54,2.15s0.85,1.12,1.49,1.48c0.64,0.36,1.36,0.54,2.18,0.54c0.87,0,1.64-0.19,2.35-0.56v-3.81L81.3,45.46z"/>
	<path class="st1" d="M96.93,49.76v2.42H86.84V39.16h9.84v2.42h-6.85v2.83h6.04v2.35h-6.04v3.01h7.09L96.93,49.76z"/>
	<path class="st1" d="M107.63,52.18l-2.51-3.62h-2.77v3.62h-3.01V39.16h5.63c1.15,0,2.15,0.19,3.01,0.57s1.5,0.93,1.96,1.63
		c0.46,0.7,0.69,1.54,0.69,2.51s-0.23,1.8-0.7,2.5c-0.46,0.7-1.12,1.24-1.98,1.61l2.92,4.18h-3.24L107.63,52.18z M106.86,42.2
		c-0.47-0.4-1.16-0.59-2.07-0.59h-2.46v4.54h2.46c0.91,0,1.59-0.2,2.07-0.6s0.7-0.96,0.7-1.67S107.32,42.59,106.86,42.2z"/>
	<path class="st1" d="M119.56,51.99c-0.96-0.28-1.73-0.64-2.32-1.08l1.02-2.27c0.56,0.41,1.22,0.74,1.99,0.98s1.54,0.37,2.31,0.37
		c0.85,0,1.49-0.13,1.9-0.38c0.41-0.25,0.61-0.59,0.61-1.01c0-0.31-0.11-0.57-0.36-0.78c-0.24-0.2-0.55-0.37-0.93-0.5
		c-0.38-0.13-0.89-0.25-1.53-0.41c-0.99-0.23-1.81-0.47-2.44-0.7c-0.64-0.23-1.17-0.61-1.63-1.13c-0.46-0.52-0.68-1.21-0.68-2.08
		c0-0.75,0.2-1.44,0.61-2.05c0.41-0.61,1.03-1.1,1.85-1.47c0.82-0.37,1.84-0.54,3.02-0.54c0.83,0,1.64,0.1,2.44,0.29
		c0.79,0.19,1.49,0.48,2.08,0.85l-0.93,2.28c-1.2-0.68-2.41-1.02-3.61-1.02c-0.84,0-1.47,0.14-1.87,0.41s-0.6,0.64-0.6,1.08
		s0.23,0.78,0.7,0.99c0.46,0.22,1.17,0.43,2.13,0.64c0.99,0.23,1.81,0.47,2.44,0.7c0.64,0.23,1.17,0.61,1.63,1.12
		c0.45,0.51,0.68,1.2,0.68,2.07c0,0.74-0.2,1.43-0.62,2.04c-0.42,0.61-1.03,1.1-1.87,1.45s-1.84,0.54-3.03,0.54
		c-1.03,0-2.03-0.14-2.98-0.42L119.56,51.99z"/>
	<path class="st1" d="M132.65,41.61h-4.17v-2.46h11.35v2.46h-4.17v10.57h-3.01C132.65,52.18,132.65,41.61,132.65,41.61z"/>
	<path class="st1" d="M141.45,39.16h3.01v13.02h-3.01V39.16z"/>
	<path class="st1" d="M150.56,41.57v3.44h6.03v2.42h-6.03v4.74h-3.01V39.16h9.84v2.42h-6.83V41.57z"/>
	<path class="st1" d="M162.23,41.61h-4.17v-2.46h11.35v2.46h-4.17v10.57h-3.01L162.23,41.61L162.23,41.61z"/>
	<path class="st1" d="M172.24,50.87c-1.03-1.03-1.56-2.5-1.56-4.41v-7.29h3.01v7.18c0,2.33,0.97,3.49,2.91,3.49
		c0.94,0,1.66-0.28,2.15-0.84c0.5-0.56,0.74-1.45,0.74-2.65v-7.18h2.97v7.29c0,1.91-0.52,3.38-1.56,4.41
		c-1.03,1.03-2.49,1.54-4.35,1.54s-3.31-0.51-4.35-1.54H172.24z"/>
	<path class="st1" d="M197.4,39.16v13.02h-2.47l-6.49-7.9v7.9h-2.97V39.16h2.5l6.48,7.9v-7.9h2.97H197.4z"/>
	<path class="st1" d="M209.28,45.46h2.75v5.28c-0.7,0.54-1.53,0.94-2.46,1.22c-0.93,0.28-1.86,0.42-2.8,0.42
		c-1.35,0-2.56-0.29-3.65-0.87c-1.08-0.57-1.93-1.38-2.54-2.4c-0.61-1.02-0.92-2.18-0.92-3.47s0.31-2.45,0.92-3.47
		c0.61-1.02,1.47-1.82,2.56-2.4c1.1-0.57,2.32-0.87,3.68-0.87c1.13,0,2.18,0.19,3.11,0.57c0.93,0.38,1.71,0.94,2.35,1.67l-1.94,1.78
		c-0.93-0.98-2.05-1.47-3.37-1.47c-0.83,0-1.57,0.18-2.22,0.52c-0.65,0.34-1.15,0.84-1.5,1.47c-0.36,0.64-0.54,1.36-0.54,2.18
		c0,0.82,0.18,1.53,0.54,2.15c0.36,0.64,0.85,1.12,1.49,1.48c0.64,0.36,1.36,0.54,2.18,0.54c0.87,0,1.64-0.19,2.35-0.56v-3.81V45.46
		z"/>
</g>
</svg>
