<svg height="123.4" viewBox="0 0 283.5 123.4" width="283.5" xmlns="http://www.w3.org/2000/svg"><path d="m223.6 61v-1.7c0-2.7-2.2-4.9-4.9-4.9s-4.9 2.2-4.9 4.9v1.7z" fill="#8a090a"/><path d="m23.2 91.3h33.5v-11.9h-21.1v-51.7h-12.4zm65.5-18.9c0 6.2-2.9 9.1-7.2 9.1s-7.3-2.8-7.3-9.1v-12.9c0-6.2 2.9-9 7.3-9 4.1 0 7.2 2.7 7.2 8.8zm.7 18.9h11.2v-50.7h-11.2v5.7c-.7-1.6-4.6-6.3-12.1-6.3-8.9 0-15.1 5.6-15.1 18.6v14.7c0 13 6 18.7 15.1 18.7 7.5 0 11.4-4.7 12.1-6.4zm57.2-19.3v-.4h-11.9v.4c0 6.6-3.1 9.5-7.2 9.5-5 0-7.4-3.5-7.4-10.2v-11.8c0-6.4 3-8.7 7.4-8.7s7.2 2.9 7.2 9.8v.3h11.9v-.4c0-12.9-6.6-20.4-19.1-20.4s-19.3 7.7-19.3 20.1v12.3c0 12.2 7 19.8 19.3 19.8 12.5-.1 19.1-7.7 19.1-20.3m33.5 19.3h12v-33.1c0-13.6-6.5-18.2-14.9-18.2s-11.7 5.5-11.7 5.5v-29.5h-11.8v75.3h11.8v-31.6c0-6.5 2.3-9.1 7.3-9.1 6 0 7.3 3.7 7.3 12.1zm103.4-.2v-32.6c0-12.9-6-18.6-15.2-18.6-7.4 0-11.4 4.7-12.1 6.3v-5.8h-11.1v28.8h11.8v-9.7c0-6.5 2.4-9.1 7.3-9.1 4.6 0 7.3 2.7 7.3 8.9v31.7h12z" fill="#d50b21"/><path d="m226 61h-14.6v-3.7c0-5.4 3.2-7.7 7.4-7.7s7.2 2.3 7.2 9zm11.9 8.3v-9.9c0-12.4-7.1-19.5-19.1-19.5s-19.3 7.7-19.3 20v9.5h38.4z" fill="#d50b21"/><path d="m228.2 119.2c15.6 0 28.3-12.5 28.7-27.9h-11.8c-.3 8.9-7.8 16-16.8 16s-16.5-7.1-16.8-16h-11.8c.2 15.4 12.9 27.9 28.5 27.9" fill="#d50b21"/><g fill="#0075ab"><path d="m4.77 1.31h2.29l4.69 14.69h-2.15l-1-3.31h-5.45l-1.02 3.31h-2.13zm3.33 9.61-2.19-7.35-2.25 7.35z"/><path d="m13.74 1.31h4.31c2.88 0 5.02 1.83 5.02 5.17v.56c0 3.33-2.15 5.08-5.02 5.08h-2.27v3.87h-2.04zm4.21 8.86c1.75 0 3.1-.94 3.1-3.15v-.54c0-2.54-1.5-3.19-3.1-3.19h-2.17v6.87h2.17z"/><path d="m25.36 1.31h2.04v6.42h5.4v-6.42h2.04v14.69h-2.04v-6.48h-5.4v6.48h-2.04z"/><path d="m42.55 1.31h4.38c2.9 0 4.81 1.12 4.81 3.85v.21c0 1.73-.77 2.73-2.1 3.23 1.42.5 2.23 1.52 2.23 3.25v.17c0 2.77-1.9 3.98-4.79 3.98h-4.52v-14.69zm4.83 6.48c1.42 0 2.31-.67 2.31-2.13v-.29c0-1.67-1.19-2.08-2.83-2.08h-2.27v4.5zm-.38 6.25c1.63 0 2.83-.5 2.83-2.23v-.27c0-1.54-1.12-2.13-2.62-2.13h-2.62v4.62h2.42z"/><path d="m55.02.13c.69 0 1.23.54 1.23 1.23s-.54 1.23-1.23 1.23-1.23-.54-1.23-1.23.54-1.23 1.23-1.23zm-.98 4.16h1.94v11.71h-1.94z"/><path d="m60.38 14.4v1.6h-1.83v-15.67h1.94v5.4c.33-.77 1.31-1.58 3.08-1.58 2.35 0 3.81 1.63 3.81 4.54v2.92c0 2.98-1.46 4.58-3.81 4.58-1.9 0-2.69-.81-3.19-1.79zm2.56.18c1.63 0 2.48-1.15 2.48-3.23v-2.4c0-2.02-.83-3.19-2.48-3.19-1.54 0-2.46 1.06-2.46 3.08v2.5c0 2.1.88 3.23 2.46 3.23z"/><path d="m69.44 11.6v-2.83c0-2.85 1.63-4.65 4.42-4.65s4.4 1.67 4.4 4.54v2.02h-6.87v1.31c0 1.67 1.08 2.58 2.48 2.58s2.46-.9 2.46-2.19v-.19h1.94v.08c0 2.15-1.63 3.92-4.4 3.92s-4.42-1.79-4.42-4.6zm6.87-2.33v-.73c0-1.94-.94-2.77-2.46-2.77s-2.48.9-2.48 2.6v.9z"/><path d="m80.52 4.29h1.83v2.12c.35-1.4 1.6-2.37 3.4-2.27v1.94c-2.17-.1-3.29.98-3.29 3.15v6.77h-1.94z"/><path d="m92.55 6.06h-5.04v-1.77h7.98l-5.35 9.94h5.1v1.77h-8.04z"/><path d="m96.99 11.6v-2.83c0-2.85 1.63-4.65 4.42-4.65s4.4 1.67 4.4 4.54v2.02h-6.87v1.31c0 1.67 1.08 2.58 2.48 2.58s2.46-.9 2.46-2.19v-.19h1.94v.08c0 2.15-1.63 3.92-4.4 3.92s-4.42-1.79-4.42-4.6zm6.88-2.33v-.73c0-1.94-.94-2.77-2.46-2.77s-2.48.9-2.48 2.6v.9z"/><path d="m108.08.19h1.96v15.81h-1.96z"/><path d="m113.12 11.65v-5.69h-1.17l-.02-1.48c1.31 0 1.94-.62 1.94-2.52h1.21v2.33h2.56v1.67h-2.56v5.42c0 2.75.1 3.1 2.67 2.96v1.77c-3.65.38-4.62-.92-4.62-4.46z"/><path d="m119.37 11.6v-2.83c0-2.85 1.63-4.65 4.42-4.65s4.4 1.67 4.4 4.54v2.02h-6.87v1.31c0 1.67 1.08 2.58 2.48 2.58s2.46-.9 2.46-2.19v-.19h1.94v.08c0 2.15-1.63 3.92-4.4 3.92s-4.42-1.79-4.42-4.6zm6.87-2.33v-.73c0-1.94-.94-2.77-2.46-2.77s-2.48.9-2.48 2.6v.9z"/><path d="m130.45 4.29h1.83v1.65c.33-.77 1.42-1.79 3.19-1.79 2.35 0 3.81 1.63 3.81 4.54v7.31h-1.96v-7.08c0-1.96-.62-3.15-2.48-3.15s-2.46 1.02-2.46 3.25v6.98h-1.94v-11.71z"/><path d="m23.1 107.25h1.83v1.67c.33-.77 1.42-1.81 3.19-1.81 2.5 0 3.81 1.75 3.81 5.25v2.19c0 2.94-1.46 4.56-3.81 4.56-1.77 0-2.75-.92-3.08-1.69v5.65h-1.94v-15.81zm4.4 10.23c1.63 0 2.48-1.1 2.48-3.19v-2.33c0-2.08-.85-3.23-2.48-3.23-1.54 0-2.46 1.08-2.46 3.15v2.42c0 2.08.88 3.19 2.46 3.19z"/><path d="m34.66 108.94h-1.27v-1.69h1.27c0-2.83 1.21-4.23 3.6-4.23s3.6 1.42 3.6 3.85v12.08h-1.96v-12.12c0-1.29-.52-1.94-1.65-1.94-1.29 0-1.65.69-1.65 2.35h1.65v1.69h-1.65v10.02h-1.96v-10.02z"/><path d="m44.27 114.57v-2.83c0-2.85 1.63-4.64 4.42-4.64s4.4 1.67 4.4 4.54v2.02h-6.87v1.31c0 1.67 1.08 2.58 2.48 2.58s2.46-.9 2.46-2.19v-.19h1.94v.08c0 2.15-1.63 3.92-4.4 3.92s-4.42-1.79-4.42-4.6zm6.87-2.34v-.73c0-1.94-.94-2.77-2.46-2.77s-2.48.9-2.48 2.6v.9z"/><path d="m55.21 119.9h1.9c0 1 .65 1.96 2.4 1.96s2.44-.81 2.44-2.4v-2.1c-.33.79-1.29 1.79-3.08 1.79-2.33 0-3.79-1.62-3.79-4.58v-2.92c0-2.85 1.42-4.5 3.6-4.5 1.77 0 3.02.81 3.37 1.73v-1.62h1.83v11.81c0 2.81-.98 4.33-4.38 4.33s-4.29-1.71-4.29-3.5zm4.27-2.29c1.54 0 2.46-1.04 2.46-3.13v-2.98c0-1.85-.96-2.79-2.46-2.79-1.6 0-2.46 1.1-2.46 3.19v2.48c0 2.13.83 3.23 2.46 3.23z"/><path d="m66.27 114.57v-2.83c0-2.85 1.63-4.64 4.42-4.64s4.4 1.67 4.4 4.54v2.02h-6.87v1.31c0 1.67 1.08 2.58 2.48 2.58s2.46-.9 2.46-2.19v-.19h1.94v.08c0 2.15-1.63 3.92-4.4 3.92s-4.42-1.79-4.42-4.6zm6.87-2.34v-.73c0-1.94-.94-2.77-2.46-2.77s-2.48.9-2.48 2.6v.9z"/><path d="m87.09 117.36v1.6h-1.83v-15.67h1.94v5.4c.33-.77 1.31-1.58 3.08-1.58 2.35 0 3.81 1.63 3.81 4.54v2.92c0 2.98-1.46 4.58-3.81 4.58-1.9 0-2.69-.81-3.19-1.79zm2.56.19c1.63 0 2.48-1.15 2.48-3.23v-2.4c0-2.02-.83-3.19-2.48-3.19-1.54 0-2.46 1.06-2.46 3.08v2.5c0 2.1.88 3.23 2.46 3.23z"/><path d="m96.17 114.57v-2.83c0-2.85 1.63-4.64 4.42-4.64s4.4 1.67 4.4 4.54v2.02h-6.87v1.31c0 1.67 1.08 2.58 2.48 2.58s2.46-.9 2.46-2.19v-.19h1.94v.08c0 2.15-1.63 3.92-4.4 3.92s-4.42-1.79-4.42-4.6zm6.88-2.34v-.73c0-1.94-.94-2.77-2.46-2.77s-2.48.9-2.48 2.6v.9z"/><path d="m107.61 114.61v-5.69h-1.17l-.02-1.48c1.31 0 1.94-.62 1.94-2.52h1.21v2.33h2.56v1.67h-2.56v5.42c0 2.75.1 3.1 2.67 2.96v1.77c-3.65.37-4.62-.92-4.62-4.46z"/><path d="m114.32 107.25h1.83v2.12c.35-1.4 1.6-2.37 3.4-2.27v1.94c-2.17-.1-3.29.98-3.29 3.15v6.77h-1.94z"/><path d="m120.59 114.57v-2.83c0-2.85 1.63-4.64 4.42-4.64s4.4 1.67 4.4 4.54v2.02h-6.87v1.31c0 1.67 1.08 2.58 2.48 2.58s2.46-.9 2.46-2.19v-.19h1.94v.08c0 2.15-1.63 3.92-4.4 3.92s-4.42-1.79-4.42-4.6zm6.88-2.34v-.73c0-1.94-.94-2.77-2.46-2.77s-2.48.9-2.48 2.6v.9z"/><path d="m131.49 114.75v-7.5h1.94v7.77c0 1.58 1.17 2.38 2.48 2.38s2.46-.88 2.46-2.38v-7.77h1.96v7.5c0 2.67-1.75 4.42-4.42 4.42s-4.42-1.75-4.42-4.42z"/><path d="m142.51 114.57v-2.83c0-2.85 1.63-4.64 4.42-4.64s4.4 1.67 4.4 4.54v2.02h-6.88v1.31c0 1.67 1.08 2.58 2.48 2.58s2.46-.9 2.46-2.19v-.19h1.94v.08c0 2.15-1.63 3.92-4.4 3.92s-4.42-1.79-4.42-4.6zm6.87-2.34v-.73c0-1.94-.94-2.77-2.46-2.77s-2.48.9-2.48 2.6v.9z"/><path d="m161.5 103.15h1.96v15.81h-1.96z"/><path d="m165.85 114.57v-2.92c0-3 1.54-4.56 3.79-4.56 1.79 0 2.85 1.04 3.19 1.79v-1.62h1.83v11.71h-1.83v-1.6c-.33.77-1.4 1.79-3.19 1.79-2.33 0-3.79-1.62-3.79-4.58zm2.77-10.73c.54 0 .98.44.98.98s-.44.98-.98.98-.96-.44-.96-.98.44-.98.96-.98zm1.65 13.69c1.6 0 2.46-1.13 2.46-3.23v-2.48c0-2.04-.92-3.1-2.46-3.1s-2.46 1.1-2.46 3.19v2.4c0 2.13.83 3.23 2.46 3.23zm1.89-13.69c.54 0 .98.44.98.98s-.44.98-.98.98-.96-.44-.96-.98.44-.98.96-.98z"/><path d="m179.2 117.36v1.6h-1.83v-15.67h1.94v5.4c.33-.77 1.31-1.58 3.08-1.58 2.35 0 3.81 1.63 3.81 4.54v2.92c0 2.98-1.46 4.58-3.81 4.58-1.9 0-2.69-.81-3.19-1.79zm2.57.19c1.62 0 2.48-1.15 2.48-3.23v-2.4c0-2.02-.83-3.19-2.48-3.19-1.54 0-2.46 1.06-2.46 3.08v2.5c0 2.1.88 3.23 2.46 3.23z"/><path d="m188.29 114.57v-2.83c0-2.85 1.62-4.64 4.42-4.64s4.4 1.67 4.4 4.54v2.02h-6.87v1.31c0 1.67 1.08 2.58 2.48 2.58s2.46-.9 2.46-2.19v-.19h1.94v.08c0 2.15-1.62 3.92-4.4 3.92s-4.42-1.79-4.42-4.6zm6.87-2.34v-.73c0-1.94-.94-2.77-2.46-2.77s-2.48.9-2.48 2.6v.9z"/></g></svg>
