<svg data-name="Layer 1" xmlns="http://www.w3.org/2000/svg" viewBox="0 0 255.118 96.378">
  <g>
    <path fill="#00652e" d="M12.69,15.012a7.281,7.281,0,0,1,2.178,1.476,3.1,3.1,0,0,1,.954,2.3,3.341,3.341,0,0,1-1.1,2.718,4.6,4.6,0,0,1-3.042.918,9.357,9.357,0,0,1-2.412-.306A14.628,14.628,0,0,1,7,21.312a3.825,3.825,0,0,0-.522-.18,2.459,2.459,0,0,0-.63-.072,1.57,1.57,0,0,0-1.278.54,1.959,1.959,0,0,0-.45,1.3,1.692,1.692,0,0,0,1.116,1.692,16.93,16.93,0,0,0,3.114.99,15.407,15.407,0,0,0,3.33.378,9.047,9.047,0,0,0,3.312-.576,7.364,7.364,0,0,0,2.52-1.6,6.977,6.977,0,0,0,1.6-2.43,8.113,8.113,0,0,0,.558-3.024,6.381,6.381,0,0,0-.45-2.5,6.293,6.293,0,0,0-1.188-1.854,7.654,7.654,0,0,0-1.71-1.368,17.079,17.079,0,0,0-1.98-1.008l-4.1-1.8a5.1,5.1,0,0,1-1.674-1.17A2.8,2.8,0,0,1,7.974,6.7a2.727,2.727,0,0,1,.4-1.512,3.246,3.246,0,0,1,.99-.99,3.817,3.817,0,0,1,1.332-.522,7.256,7.256,0,0,1,1.386-.144,12.445,12.445,0,0,1,1.89.126,13,13,0,0,1,1.4.288,6.044,6.044,0,0,1,1.008.36,6.528,6.528,0,0,0,.738.306,1.666,1.666,0,0,0,.684.144,1.77,1.77,0,0,0,1.278-.5A1.638,1.638,0,0,0,19.6,3.024a1.582,1.582,0,0,0-.414-1.17,3.193,3.193,0,0,0-.99-.666,13.681,13.681,0,0,0-2.916-.9A16.128,16.128,0,0,0,12.258,0,9.776,9.776,0,0,0,9.252.468,8.119,8.119,0,0,0,6.66,1.836,7.216,7.216,0,0,0,4.824,4a5.817,5.817,0,0,0-.7,2.88,6.5,6.5,0,0,0,1.062,3.708A7.2,7.2,0,0,0,8.37,13.1l4.32,1.908Zm21.852,3.2a2.335,2.335,0,0,0,2.34-2.34V14.184a7.784,7.784,0,0,0-.522-2.9A6.684,6.684,0,0,0,34.866,9a6.915,6.915,0,0,0-5.22-2.016A7.063,7.063,0,0,0,24.426,9a7.01,7.01,0,0,0-1.98,5.184V18.72a6.856,6.856,0,0,0,7.2,7.236,12.507,12.507,0,0,0,5.472-1.224,1.538,1.538,0,0,0,.72-.684,2.064,2.064,0,0,0,.216-.936,1.557,1.557,0,0,0-.54-1.206,1.78,1.78,0,0,0-1.224-.486,2.013,2.013,0,0,0-.756.18,16.1,16.1,0,0,1-1.89.666,7.3,7.3,0,0,1-2,.27,3.273,3.273,0,0,1-2.772-1.224,3.572,3.572,0,0,1-.54-1.242,8,8,0,0,1-.18-1.854ZM26.154,14.8a5.164,5.164,0,0,1,.882-3.33,3.2,3.2,0,0,1,2.61-1.062q3.528,0,3.528,4.392ZM51.5,24.084a1.842,1.842,0,0,0,.522,1.332,1.751,1.751,0,0,0,1.314.54,1.844,1.844,0,0,0,1.872-1.872v-9.9a7.784,7.784,0,0,0-.522-2.9A6.684,6.684,0,0,0,53.19,9a6.915,6.915,0,0,0-5.22-2.016,17.024,17.024,0,0,0-5.616.936,2.345,2.345,0,0,0-1.152.846,2.237,2.237,0,0,0-.432,1.35V24.084a1.844,1.844,0,0,0,1.872,1.872,1.768,1.768,0,0,0,1.3-.54,1.81,1.81,0,0,0,.54-1.332V10.872a15.394,15.394,0,0,1,1.71-.342A12.585,12.585,0,0,1,47.97,10.4a3.531,3.531,0,0,1,2.61.918A3.48,3.48,0,0,1,51.5,13.9V24.084ZM63.162.612a2.086,2.086,0,0,0-2.952,0A2.008,2.008,0,0,0,59.6,2.088a2.008,2.008,0,0,0,.612,1.476,2.086,2.086,0,0,0,2.952,0,2.012,2.012,0,0,0,.612-1.476A2.012,2.012,0,0,0,63.162.612ZM59.814,24.084a1.777,1.777,0,0,0,.558,1.332,1.828,1.828,0,0,0,1.314.54A1.752,1.752,0,0,0,63,25.416a1.847,1.847,0,0,0,.522-1.332V8.856A1.847,1.847,0,0,0,63,7.524a1.752,1.752,0,0,0-1.314-.54,1.828,1.828,0,0,0-1.314.54,1.777,1.777,0,0,0-.558,1.332V24.084Zm22.967-9.54a7.4,7.4,0,0,0-2.088-5.472,8.214,8.214,0,0,0-10.944,0,7.4,7.4,0,0,0-2.088,5.472V18.4a7.564,7.564,0,1,0,15.12,0V14.544ZM79.073,18.72a3.783,3.783,0,0,1-1.008,2.826,4.58,4.58,0,0,1-5.688,0,3.783,3.783,0,0,1-1.008-2.826V14.256a3.846,3.846,0,0,1,1.008-2.844A3.846,3.846,0,0,1,75.221,10.4a3.746,3.746,0,0,1,2.826,1.062,3.846,3.846,0,0,1,1.026,2.79V18.72Zm7.6,5.364a1.844,1.844,0,0,0,1.872,1.872,1.768,1.768,0,0,0,1.3-.54,1.81,1.81,0,0,0,.54-1.332V12.06A1.659,1.659,0,0,1,92.033,10.4a4.766,4.766,0,0,1,.9.09q.468.09.9.2a1.143,1.143,0,0,0,.324.072h.288A1.737,1.737,0,0,0,95.8,7.9a1.9,1.9,0,0,0-1.062-.63,13.805,13.805,0,0,0-2.7-.288,5.364,5.364,0,0,0-2.124.414,5.257,5.257,0,0,0-2.826,2.826,5.364,5.364,0,0,0-.414,2.124V24.084Zm23.688-5.868a2.335,2.335,0,0,0,2.34-2.34V14.184a7.784,7.784,0,0,0-.522-2.9A6.684,6.684,0,0,0,110.681,9a6.915,6.915,0,0,0-5.22-2.016A7.063,7.063,0,0,0,100.241,9a7.01,7.01,0,0,0-1.98,5.184V18.72a6.856,6.856,0,0,0,7.2,7.236,12.507,12.507,0,0,0,5.472-1.224,1.538,1.538,0,0,0,.72-.684,2.064,2.064,0,0,0,.216-.936,1.557,1.557,0,0,0-.54-1.206,1.78,1.78,0,0,0-1.224-.486,2.013,2.013,0,0,0-.756.18,16.1,16.1,0,0,1-1.89.666,7.3,7.3,0,0,1-2,.27,3.273,3.273,0,0,1-2.772-1.224,3.572,3.572,0,0,1-.54-1.242,8,8,0,0,1-.18-1.854Zm-8.388-3.42a5.164,5.164,0,0,1,.882-3.33,3.2,3.2,0,0,1,2.61-1.062q3.528,0,3.528,4.392Zm25.344,9.288a1.842,1.842,0,0,0,.522,1.332,1.751,1.751,0,0,0,1.314.54,1.844,1.844,0,0,0,1.872-1.872v-9.9a7.784,7.784,0,0,0-.522-2.9A6.684,6.684,0,0,0,129.005,9a6.915,6.915,0,0,0-5.22-2.016,17.024,17.024,0,0,0-5.616.936,2.345,2.345,0,0,0-1.152.846,2.237,2.237,0,0,0-.432,1.35V24.084a1.844,1.844,0,0,0,1.872,1.872,1.768,1.768,0,0,0,1.3-.54,1.81,1.81,0,0,0,.54-1.332V10.872A15.394,15.394,0,0,1,122,10.53a12.585,12.585,0,0,1,1.782-.126,3.531,3.531,0,0,1,2.61.918,3.48,3.48,0,0,1,.918,2.574V24.084Zm19.4,1.512a1.817,1.817,0,0,0,1.314-.5,1.726,1.726,0,0,0,.522-1.3,1.6,1.6,0,0,0-.54-1.242,1.92,1.92,0,0,0-1.332-.486h-7.56l8.928-11.448a1.9,1.9,0,0,0,.36-1.188,2.09,2.09,0,0,0-2.088-2.088h-10.26a1.814,1.814,0,0,0-1.314.5,1.782,1.782,0,0,0,0,2.52,1.814,1.814,0,0,0,1.314.5h7.344l-8.856,11.376a2.055,2.055,0,0,0-.432,1.26,2.09,2.09,0,0,0,2.088,2.088Zm16.523-7.38a2.335,2.335,0,0,0,2.34-2.34V14.184a7.784,7.784,0,0,0-.522-2.9A6.684,6.684,0,0,0,163.564,9a6.915,6.915,0,0,0-5.22-2.016A7.063,7.063,0,0,0,153.124,9a7.01,7.01,0,0,0-1.98,5.184V18.72a6.856,6.856,0,0,0,7.2,7.236,12.507,12.507,0,0,0,5.472-1.224,1.538,1.538,0,0,0,.72-.684,2.064,2.064,0,0,0,.216-.936,1.557,1.557,0,0,0-.54-1.206,1.78,1.78,0,0,0-1.224-.486,2.013,2.013,0,0,0-.756.18,16.1,16.1,0,0,1-1.89.666,7.3,7.3,0,0,1-2,.27,3.273,3.273,0,0,1-2.772-1.224,3.572,3.572,0,0,1-.54-1.242,8,8,0,0,1-.18-1.854Zm-8.388-3.42a5.164,5.164,0,0,1,.882-3.33,3.2,3.2,0,0,1,2.61-1.062q3.528,0,3.528,4.392ZM180.2,24.084a1.842,1.842,0,0,0,.522,1.332,1.751,1.751,0,0,0,1.314.54,1.844,1.844,0,0,0,1.872-1.872v-9.9a7.784,7.784,0,0,0-.522-2.9A6.684,6.684,0,0,0,181.888,9a6.915,6.915,0,0,0-5.22-2.016,17.024,17.024,0,0,0-5.616.936,2.345,2.345,0,0,0-1.152.846,2.237,2.237,0,0,0-.432,1.35V24.084a1.844,1.844,0,0,0,1.872,1.872,1.768,1.768,0,0,0,1.3-.54,1.81,1.81,0,0,0,.54-1.332V10.872a15.394,15.394,0,0,1,1.71-.342,12.585,12.585,0,0,1,1.782-.126,3.531,3.531,0,0,1,2.61.918A3.48,3.48,0,0,1,180.2,13.9V24.084Zm8.1-3.744a6.059,6.059,0,0,0,.414,2.286,5.229,5.229,0,0,0,1.152,1.764,5.371,5.371,0,0,0,1.71,1.152,5.272,5.272,0,0,0,2.088.414,10.813,10.813,0,0,0,2.124-.216,2.144,2.144,0,0,0,1.134-.612,1.6,1.6,0,0,0,.45-1.152,1.548,1.548,0,0,0-.558-1.278,1.93,1.93,0,0,0-1.242-.45,1.516,1.516,0,0,0-.432.054q-.18.054-.378.108a3.721,3.721,0,0,1-.45.09,4.742,4.742,0,0,1-.648.036,1.45,1.45,0,0,1-1.188-.594A2.582,2.582,0,0,1,192,20.3v-9.4H195.5a1.9,1.9,0,0,0,1.35-.486,1.708,1.708,0,0,0,.522-1.314,1.652,1.652,0,0,0-.54-1.26,1.878,1.878,0,0,0-1.332-.5H192V1.872a1.81,1.81,0,0,0-.54-1.332,1.768,1.768,0,0,0-1.3-.54,1.81,1.81,0,0,0-1.332.54,1.81,1.81,0,0,0-.54,1.332V20.34Zm12.312,3.744a1.844,1.844,0,0,0,1.872,1.872,1.768,1.768,0,0,0,1.3-.54,1.81,1.81,0,0,0,.54-1.332V12.06a1.659,1.659,0,0,1,1.656-1.656,4.766,4.766,0,0,1,.9.09c.311.06.612.126.9.2a1.143,1.143,0,0,0,.324.072h.288a1.737,1.737,0,0,0,1.35-2.862,1.9,1.9,0,0,0-1.062-.63,13.805,13.805,0,0,0-2.7-.288,5.361,5.361,0,0,0-2.124.414,5.257,5.257,0,0,0-2.826,2.826,5.364,5.364,0,0,0-.414,2.124V24.084Zm23.183-2.016a14.207,14.207,0,0,1-3.528.432,3.521,3.521,0,0,1-2.574-.9,3.468,3.468,0,0,1-.918-2.592V8.856a1.81,1.81,0,0,0-.54-1.332,1.768,1.768,0,0,0-1.3-.54,1.844,1.844,0,0,0-1.872,1.872V18.72a9.016,9.016,0,0,0,.468,2.97,6.026,6.026,0,0,0,1.44,2.322,6.134,6.134,0,0,0,2.358,1.476,8.9,8.9,0,0,0,2.934.468,17.132,17.132,0,0,0,5.652-.936,2.345,2.345,0,0,0,1.152-.846,2.237,2.237,0,0,0,.432-1.35V8.856a1.844,1.844,0,0,0-1.872-1.872,1.751,1.751,0,0,0-1.314.54,1.842,1.842,0,0,0-.522,1.332V22.068Zm28.044,2.016a1.842,1.842,0,0,0,.522,1.332,1.751,1.751,0,0,0,1.314.54,1.844,1.844,0,0,0,1.872-1.872v-10.3a6.984,6.984,0,0,0-.522-2.7,6.408,6.408,0,0,0-3.582-3.582,6.984,6.984,0,0,0-2.7-.522A9.241,9.241,0,0,0,243.7,8.46a5.725,5.725,0,0,0-1.944-1.1,7.472,7.472,0,0,0-2.412-.378,16.908,16.908,0,0,0-2.988.252,15.386,15.386,0,0,0-2.808.792,2.484,2.484,0,0,0-1.1.882,2.247,2.247,0,0,0-.414,1.314v13.86a1.844,1.844,0,0,0,1.872,1.872,1.768,1.768,0,0,0,1.3-.54,1.81,1.81,0,0,0,.54-1.332V10.908a15.321,15.321,0,0,1,1.566-.378,9.618,9.618,0,0,1,1.674-.126,4.9,4.9,0,0,1,1.116.126,2.744,2.744,0,0,1,.954.414,1.93,1.93,0,0,1,.648.792,3.091,3.091,0,0,1,.234,1.3V24.084a1.81,1.81,0,0,0,.54,1.332,1.768,1.768,0,0,0,1.3.54,1.844,1.844,0,0,0,1.872-1.872V11.34a6.365,6.365,0,0,1,1.476-.684,5.312,5.312,0,0,1,1.62-.252,2.9,2.9,0,0,1,1.206.252,3.208,3.208,0,0,1,1.638,1.638,2.9,2.9,0,0,1,.252,1.206V24.084Z"/>
    <path fill="#00652e" d="M137.033,59.048a1.905,1.905,0,0,0,1.908,1.908,1.857,1.857,0,0,0,1.332-.558,1.81,1.81,0,0,0,.576-1.35V36.908a1.81,1.81,0,0,0-.576-1.35A1.857,1.857,0,0,0,138.941,35a1.905,1.905,0,0,0-1.908,1.908v22.14Zm28.332.036a1.838,1.838,0,0,0,.522,1.332,1.748,1.748,0,0,0,1.314.54,1.844,1.844,0,0,0,1.872-1.872v-10.3a7,7,0,0,0-.522-2.7,6.408,6.408,0,0,0-3.582-3.582,6.991,6.991,0,0,0-2.7-.522,9.241,9.241,0,0,0-5.04,1.476,5.744,5.744,0,0,0-1.944-1.1,7.477,7.477,0,0,0-2.412-.378,16.9,16.9,0,0,0-2.988.252,15.386,15.386,0,0,0-2.808.792,2.473,2.473,0,0,0-1.1.882,2.24,2.24,0,0,0-.414,1.314v13.86a1.844,1.844,0,0,0,1.872,1.872,1.768,1.768,0,0,0,1.3-.54,1.81,1.81,0,0,0,.54-1.332V45.908a15.321,15.321,0,0,1,1.566-.378,9.618,9.618,0,0,1,1.674-.126,4.9,4.9,0,0,1,1.116.126,2.752,2.752,0,0,1,.954.414,1.945,1.945,0,0,1,.648.792,3.107,3.107,0,0,1,.234,1.3V59.084a1.81,1.81,0,0,0,.54,1.332,1.768,1.768,0,0,0,1.3.54,1.844,1.844,0,0,0,1.872-1.872V46.34a6.327,6.327,0,0,1,1.476-.684,5.3,5.3,0,0,1,1.62-.252,2.9,2.9,0,0,1,1.206.252,3.208,3.208,0,0,1,1.638,1.638,2.911,2.911,0,0,1,.252,1.206V59.084Zm30.347.972a1.774,1.774,0,0,0,.666.666,1.833,1.833,0,0,0,.918.234,1.8,1.8,0,0,0,1.314-.558,1.758,1.758,0,0,0,.558-1.278,1.829,1.829,0,0,0-.288-.972l-5-8.388a7.2,7.2,0,0,0,3.132-1.692,7.014,7.014,0,0,0,2.052-5.292,7.307,7.307,0,0,0-2.088-5.4,7.156,7.156,0,0,0-5.292-2.016h-6.7a2.256,2.256,0,0,0-1.656.684,2.214,2.214,0,0,0-.684,1.62v21.42a1.78,1.78,0,0,0,.558,1.332,1.935,1.935,0,0,0,2.682,0,1.753,1.753,0,0,0,.576-1.332V50.012h3.24l6.012,10.044Zm-9.252-13.68V39h5.22a3.28,3.28,0,0,1,2.646,1.08,4.024,4.024,0,0,1,.918,2.7,4.262,4.262,0,0,1-.324,1.782,2.993,2.993,0,0,1-.846,1.116,2.86,2.86,0,0,1-1.152.558,5.561,5.561,0,0,1-1.242.144Zm27.216,6.84a2.335,2.335,0,0,0,2.34-2.34V49.184a7.784,7.784,0,0,0-.522-2.9A6.684,6.684,0,0,0,214,44a6.915,6.915,0,0,0-5.22-2.016,6.853,6.853,0,0,0-7.2,7.2V53.72a6.856,6.856,0,0,0,7.2,7.236,12.507,12.507,0,0,0,5.472-1.224,1.538,1.538,0,0,0,.72-.684,2.064,2.064,0,0,0,.216-.936,1.557,1.557,0,0,0-.54-1.206,1.78,1.78,0,0,0-1.224-.486,2.013,2.013,0,0,0-.756.18,16.1,16.1,0,0,1-1.89.666,7.3,7.3,0,0,1-2,.27,3.273,3.273,0,0,1-2.772-1.224,3.572,3.572,0,0,1-.54-1.242,8,8,0,0,1-.18-1.854Zm-8.388-3.42a5.164,5.164,0,0,1,.882-3.33,3.2,3.2,0,0,1,2.61-1.062q3.528,0,3.528,4.392Zm18.18-14.184a2.086,2.086,0,1,0,.612,1.476,2.012,2.012,0,0,0-.612-1.476ZM220.12,59.084a1.78,1.78,0,0,0,.558,1.332,1.828,1.828,0,0,0,1.314.54,1.751,1.751,0,0,0,1.314-.54,1.842,1.842,0,0,0,.522-1.332V43.856a1.842,1.842,0,0,0-.522-1.332,1.751,1.751,0,0,0-1.314-.54,1.828,1.828,0,0,0-1.314.54,1.78,1.78,0,0,0-.558,1.332V59.084ZM242.08,48.1a6.6,6.6,0,0,0-.414-2.3,5.93,5.93,0,0,0-1.188-1.962,5.6,5.6,0,0,0-1.944-1.35,6.724,6.724,0,0,0-2.682-.5,15.923,15.923,0,0,0-3.348.306,10.468,10.468,0,0,0-2.88,1.134,1.783,1.783,0,0,0-.684.72,2.064,2.064,0,0,0-.216.936,1.487,1.487,0,0,0,.522,1.152,1.8,1.8,0,0,0,1.242.468,1.854,1.854,0,0,0,1.008-.324,6.089,6.089,0,0,1,1.782-.774,9.42,9.42,0,0,1,2.106-.2,3.008,3.008,0,0,1,2.2.774,2.588,2.588,0,0,1,.792,1.926v1.26h-3.708a7.72,7.72,0,0,0-5.148,1.584,5.1,5.1,0,0,0-1.872,4.14,5.321,5.321,0,0,0,1.872,4.284,7.72,7.72,0,0,0,5.148,1.584,19.4,19.4,0,0,0,3.006-.234,15.979,15.979,0,0,0,2.826-.7,2.345,2.345,0,0,0,1.152-.846,2.237,2.237,0,0,0,.432-1.35V48.1Zm-3.708,8.964a16.332,16.332,0,0,1-1.818.342,14.422,14.422,0,0,1-1.89.126,4.8,4.8,0,0,1-1.854-.288,2.563,2.563,0,0,1-.99-.684,1.759,1.759,0,0,1-.4-.81,3.974,3.974,0,0,1-.072-.666,3.576,3.576,0,0,1,.072-.612,1.649,1.649,0,0,1,.4-.774,2.526,2.526,0,0,1,.99-.648,5.087,5.087,0,0,1,1.854-.27h3.708v4.284Zm8.1-1.728a6.059,6.059,0,0,0,.414,2.286,5.229,5.229,0,0,0,1.152,1.764,5.371,5.371,0,0,0,1.71,1.152,5.272,5.272,0,0,0,2.088.414,10.813,10.813,0,0,0,2.124-.216,2.144,2.144,0,0,0,1.134-.612,1.6,1.6,0,0,0,.45-1.152,1.548,1.548,0,0,0-.558-1.278,1.93,1.93,0,0,0-1.242-.45,1.516,1.516,0,0,0-.432.054q-.18.054-.378.108a3.721,3.721,0,0,1-.45.09,4.742,4.742,0,0,1-.648.036,1.45,1.45,0,0,1-1.188-.594,2.582,2.582,0,0,1-.468-1.638v-9.4h3.492a1.9,1.9,0,0,0,1.35-.486,1.708,1.708,0,0,0,.522-1.314,1.652,1.652,0,0,0-.54-1.26,1.878,1.878,0,0,0-1.332-.5h-3.492V36.872a1.81,1.81,0,0,0-.54-1.332,1.768,1.768,0,0,0-1.3-.54,1.844,1.844,0,0,0-1.872,1.872V55.34Z"/>
    <path fill="#231f20" d="M38.482,89.205a3.221,3.221,0,0,0,.044-.614c0-1.335-.614-3.4-3-3.4-2.117,0-3.405,1.709-3.405,3.9a3.382,3.382,0,0,0,3.57,3.675,5.908,5.908,0,0,0,2.429-.464l-.24-.944a4.713,4.713,0,0,1-2.009.375,2.32,2.32,0,0,1-2.491-2.522ZM33.4,88.262a2.165,2.165,0,0,1,2.026-2.132,1.875,1.875,0,0,1,1.831,2.132ZM41.481,92.6V85.337H40.163V92.6Zm-.659-10.108a.8.8,0,0,0-.824.824.775.775,0,0,0,.794.809.817.817,0,1,0,.03-1.633ZM43.673,92.6h1.318V88.23a1.936,1.936,0,0,1,1.861-1.965c1.246,0,1.681.975,1.681,2.145V92.6h1.318v-4.32c0-2.489-1.558-3.088-2.564-3.088a2.688,2.688,0,0,0-2.4,1.348h-.03l-.075-1.2H43.613c.045.6.06,1.2.06,1.964V92.6Zm11.55-.03a15.208,15.208,0,0,0,2.023.12,5.013,5.013,0,0,0,3.481-.943,2.663,2.663,0,0,0,.869-2.026,2.573,2.573,0,0,0-2.083-2.52v-.045a2.389,2.389,0,0,0,1.708-2.22,2.13,2.13,0,0,0-.854-1.785,4.111,4.111,0,0,0-2.76-.734,11.459,11.459,0,0,0-2.384.225v9.928Zm1.3-9.06a5.6,5.6,0,0,1,1.156-.09c1.32,0,2.206.48,2.206,1.651,0,.976-.811,1.711-2.176,1.711H56.526V83.505Zm0,4.245h1.081c1.425,0,2.611.585,2.611,1.951,0,1.471-1.246,1.966-2.6,1.966a7.1,7.1,0,0,1-1.1-.06V87.75ZM69.2,89.205a3.206,3.206,0,0,0,.045-.614c0-1.335-.614-3.4-3-3.4-2.116,0-3.4,1.709-3.4,3.9a3.381,3.381,0,0,0,3.569,3.675,5.9,5.9,0,0,0,2.429-.464l-.239-.944a4.715,4.715,0,0,1-2.01.375A2.321,2.321,0,0,1,64.1,89.205Zm-5.085-.943a2.164,2.164,0,0,1,2.026-2.132,1.875,1.875,0,0,1,1.831,2.132Zm7.067-4.275v1.35H70.058v1h1.125v3.97a2.821,2.821,0,0,0,.509,1.9,1.883,1.883,0,0,0,1.424.554,3.6,3.6,0,0,0,1.17-.18l-.06-1a2.465,2.465,0,0,1-.765.09c-.735,0-.99-.51-.99-1.411V86.34h1.89v-1h-1.89V83.6l-1.288.39ZM75.848,92.6h1.318v-3.87a3.949,3.949,0,0,1,.045-.615,1.837,1.837,0,0,1,1.77-1.68,2.055,2.055,0,0,1,.45.03V85.217a2.687,2.687,0,0,0-.36-.03,2.195,2.195,0,0,0-2.025,1.588H77l-.06-1.438H75.788c.045.675.06,1.41.06,2.264V92.6Zm6.283,0V85.337H80.812V92.6Zm-.66-10.108a.8.8,0,0,0-.824.824.775.775,0,0,0,.795.809.817.817,0,1,0,.029-1.633Zm8.685,6.718a3.206,3.206,0,0,0,.045-.614c0-1.335-.615-3.4-3-3.4-2.116,0-3.4,1.709-3.4,3.9a3.381,3.381,0,0,0,3.57,3.675A5.908,5.908,0,0,0,89.8,92.3l-.24-.944a4.713,4.713,0,0,1-2.009.375,2.321,2.321,0,0,1-2.492-2.522Zm-5.086-.943A2.165,2.165,0,0,1,87.1,86.13a1.875,1.875,0,0,1,1.831,2.132Zm6.767,2.46c0,.643-.03,1.378-.06,1.873H92.9l.075-1.183h.03a2.638,2.638,0,0,0,2.445,1.348c1.621,0,3.269-1.288,3.269-3.884,0-2.191-1.258-3.689-3.074-3.689a2.7,2.7,0,0,0-2.476,1.318h-.03V81.947h-1.3v8.775Zm1.3-2.326a2.069,2.069,0,0,1,.075-.555,2.119,2.119,0,0,1,2-1.621c1.426,0,2.176,1.246,2.176,2.7,0,1.666-.81,2.791-2.206,2.791A2.025,2.025,0,0,1,93.2,90.166a1.685,1.685,0,0,1-.06-.48V88.4ZM108.5,81.947V86.28h-.03a2.435,2.435,0,0,0-2.191-1.093c-1.756,0-3.269,1.468-3.254,3.884,0,2.206,1.363,3.689,3.119,3.689a2.623,2.623,0,0,0,2.446-1.423h.045l.06,1.258h1.168c-.03-.5-.06-1.23-.06-1.875V81.947Zm0,7.6a2.293,2.293,0,0,1-.06.57,2,2,0,0,1-1.936,1.577c-1.411,0-2.146-1.215-2.146-2.686,0-1.59.81-2.791,2.176-2.791a1.945,1.945,0,0,1,1.906,1.516,2.33,2.33,0,0,1,.06.555V89.55Zm9.343-.345a3.206,3.206,0,0,0,.045-.614c0-1.335-.614-3.4-3-3.4-2.116,0-3.4,1.709-3.4,3.9a3.381,3.381,0,0,0,3.569,3.675,5.914,5.914,0,0,0,2.43-.464l-.24-.944a4.715,4.715,0,0,1-2.01.375,2.32,2.32,0,0,1-2.491-2.522Zm-5.085-.943a2.164,2.164,0,0,1,2.026-2.132,1.875,1.875,0,0,1,1.831,2.132Zm6.767,4.333h1.318v-3.87a3.949,3.949,0,0,1,.045-.615,1.837,1.837,0,0,1,1.77-1.68,2.055,2.055,0,0,1,.45.03V85.217a2.687,2.687,0,0,0-.36-.03,2.195,2.195,0,0,0-2.025,1.588h-.045l-.06-1.438h-1.153c.045.675.06,1.41.06,2.264V92.6Zm15.838-5.308h-3.329v1.048h2.04v3.017a4.256,4.256,0,0,1-1.74.27c-2.371,0-3.9-1.516-3.9-4.08a3.782,3.782,0,0,1,4.066-4.067,5.022,5.022,0,0,1,2.235.435l.329-1.063a6.328,6.328,0,0,0-2.534-.465c-3.391,0-5.475,2.2-5.475,5.219a4.744,4.744,0,0,0,5.19,5.1,9.138,9.138,0,0,0,3.119-.554V87.287Zm7.844,1.918a3.206,3.206,0,0,0,.045-.614c0-1.335-.614-3.4-3-3.4-2.116,0-3.4,1.709-3.4,3.9a3.381,3.381,0,0,0,3.57,3.675,5.908,5.908,0,0,0,2.429-.464l-.24-.944a4.713,4.713,0,0,1-2.009.375,2.321,2.321,0,0,1-2.492-2.522Zm-5.085-.943a2.164,2.164,0,0,1,2.026-2.132,1.875,1.875,0,0,1,1.831,2.132Zm6.767,4.333h1.288V88.23a1.765,1.765,0,0,1,.1-.645,1.821,1.821,0,0,1,1.636-1.32c1.006,0,1.516.825,1.516,1.98V92.6h1.288V88.11a2.254,2.254,0,0,1,.105-.66,1.736,1.736,0,0,1,1.576-1.185c1.051,0,1.576.825,1.576,2.235V92.6h1.288v-4.26c0-2.519-1.423-3.148-2.4-3.148a2.44,2.44,0,0,0-1.59.509,2.838,2.838,0,0,0-.825.944h-.03a2.139,2.139,0,0,0-2.039-1.453,2.512,2.512,0,0,0-2.3,1.333h-.045l-.059-1.183h-1.154c.03.6.06,1.2.06,1.964V92.6Zm18.343-3.39a3.206,3.206,0,0,0,.045-.614c0-1.335-.614-3.4-3-3.4-2.116,0-3.4,1.709-3.4,3.9a3.381,3.381,0,0,0,3.569,3.675,5.91,5.91,0,0,0,2.43-.464l-.24-.944a4.715,4.715,0,0,1-2.01.375,2.321,2.321,0,0,1-2.491-2.522Zm-5.085-.943a2.164,2.164,0,0,1,2.026-2.132,1.875,1.875,0,0,1,1.831,2.132Zm8.085,4.333V85.337h-1.318V92.6Zm-.659-10.108a.8.8,0,0,0-.824.824.775.775,0,0,0,.794.809.817.817,0,1,0,.03-1.633ZM168.426,92.6h1.318V88.23a1.936,1.936,0,0,1,1.861-1.965c1.246,0,1.681.975,1.681,2.145V92.6H174.6v-4.32c0-2.489-1.558-3.088-2.564-3.088a2.691,2.691,0,0,0-2.4,1.348h-.03l-.075-1.2h-1.168c.045.6.06,1.2.06,1.964V92.6ZM181.7,81.947V86.28h-.03a2.435,2.435,0,0,0-2.191-1.093c-1.756,0-3.269,1.468-3.254,3.884,0,2.206,1.363,3.689,3.119,3.689a2.623,2.623,0,0,0,2.446-1.423h.045l.06,1.258h1.168c-.03-.5-.06-1.23-.06-1.875V81.947Zm0,7.6a2.293,2.293,0,0,1-.06.57,2,2,0,0,1-1.936,1.577c-1.411,0-2.146-1.215-2.146-2.686,0-1.59.81-2.791,2.176-2.791a1.945,1.945,0,0,1,1.906,1.516,2.33,2.33,0,0,1,.06.555V89.55Zm9.343-.345a3.206,3.206,0,0,0,.045-.614c0-1.335-.614-3.4-3-3.4-2.116,0-3.4,1.709-3.4,3.9a3.381,3.381,0,0,0,3.569,3.675,5.9,5.9,0,0,0,2.429-.464l-.239-.944a4.715,4.715,0,0,1-2.01.375,2.32,2.32,0,0,1-2.491-2.522Zm-5.085-.943a2.164,2.164,0,0,1,2.026-2.132,1.875,1.875,0,0,1,1.831,2.132Zm11.3,4.333h1.318v-9h3.09V82.487h-7.483V83.6h3.075v9Zm5.385,0h1.318v-4.38a1.687,1.687,0,0,1,.09-.63,1.918,1.918,0,0,1,1.771-1.3c1.246,0,1.681.975,1.681,2.145V92.6h1.318v-4.32c0-2.489-1.558-3.088-2.534-3.088a2.723,2.723,0,0,0-1.351.359,2.483,2.483,0,0,0-.945.944h-.03V81.947h-1.318V92.6Zm13.423-4.453c0-1.441-.539-2.955-2.759-2.955a4.7,4.7,0,0,0-2.4.629l.3.885a3.486,3.486,0,0,1,1.905-.541,1.488,1.488,0,0,1,1.651,1.667v.15c-2.807-.015-4.365.943-4.365,2.7a2.066,2.066,0,0,0,2.218,2.084,2.71,2.71,0,0,0,2.222-1.078h.045l.1.913h1.184a12.181,12.181,0,0,1-.105-1.74V88.142Zm-1.273,2.008a1.492,1.492,0,0,1-.06.421,1.834,1.834,0,0,1-1.786,1.216,1.157,1.157,0,0,1-1.231-1.261c0-1.411,1.636-1.666,3.077-1.636v1.26Zm2.325-4.813,2.669,6.689a.906.906,0,0,1,.1.345.94.94,0,0,1-.1.315,4.175,4.175,0,0,1-1.11,1.469,3.5,3.5,0,0,1-1.154.645l.329,1.095a3.743,3.743,0,0,0,1.62-.84c.9-.8,1.545-2.055,2.489-4.544l1.98-5.174h-1.395L221.105,89.6c-.18.525-.33,1.08-.465,1.515h-.03c-.12-.435-.3-1.005-.48-1.485l-1.575-4.289Zm8.025,7.258h1.318V88.23a1.936,1.936,0,0,1,1.861-1.965c1.245,0,1.681.975,1.681,2.145V92.6h1.318v-4.32c0-2.489-1.559-3.088-2.564-3.088a2.69,2.69,0,0,0-2.4,1.348h-.03l-.075-1.2h-1.168c.045.6.06,1.2.06,1.964V92.6Zm14.533-5.279c0-.869.015-1.469.06-1.979h-1.169l-.045,1.093h-.03a2.425,2.425,0,0,0-2.266-1.243c-1.68,0-3.284,1.378-3.284,3.839a3.243,3.243,0,0,0,3.089,3.539,2.575,2.575,0,0,0,2.311-1.213h.03v.794c0,1.845-.99,2.551-2.341,2.551a3.943,3.943,0,0,1-2.13-.586l-.329,1.02a4.689,4.689,0,0,0,2.414.6,3.993,3.993,0,0,0,2.656-.868c.689-.645,1.034-1.651,1.034-3.33V87.316Zm-1.319,2.19a2.307,2.307,0,0,1-.1.706,1.9,1.9,0,0,1-1.83,1.35c-1.411,0-2.146-1.185-2.146-2.611,0-1.681.9-2.746,2.161-2.746a1.884,1.884,0,0,1,1.845,1.411,1.732,1.732,0,0,1,.075.585v1.305Zm9.328-.3a3.206,3.206,0,0,0,.045-.614c0-1.335-.614-3.4-3-3.4-2.116,0-3.4,1.709-3.4,3.9a3.381,3.381,0,0,0,3.57,3.675,5.908,5.908,0,0,0,2.429-.464l-.24-.944a4.713,4.713,0,0,1-2.009.375,2.321,2.321,0,0,1-2.492-2.522Zm-5.085-.943a2.164,2.164,0,0,1,2.026-2.132,1.875,1.875,0,0,1,1.831,2.132Zm6.767,4.333h1.318V88.23a1.936,1.936,0,0,1,1.861-1.965c1.246,0,1.681.975,1.681,2.145V92.6h1.318v-4.32c0-2.489-1.558-3.088-2.563-3.088a2.692,2.692,0,0,0-2.4,1.348h-.03l-.074-1.2h-1.169c.045.6.06,1.2.06,1.964V92.6Z"/>
  </g>
</svg>
