<?xml version="1.0" encoding="UTF-8"?><svg id="Ebene_1" xmlns="http://www.w3.org/2000/svg" viewBox="0 0 184.25 85.04"><defs><style>.cls-1{fill:#e00;}.cls-1,.cls-2,.cls-3{stroke-width:0px;}.cls-2{fill-rule:evenodd;}</style></defs><path class="cls-1" d="m145.95,22.81c1.56-4.33-1.66-6.28-4.25-9.14-3.43-3.79,2.05-8.85,4.72-10.78-1.56,4.33,1.66,6.28,4.25,9.15,3.43,3.79-2.05,8.85-4.72,10.78h0Z"/><path class="cls-1" d="m160.56,22.81c1.56-4.33-1.66-6.28-4.25-9.14-3.43-3.79,2.05-8.85,4.72-10.78-1.56,4.33,1.66,6.28,4.25,9.15,3.43,3.79-2.05,8.85-4.72,10.78h0Z"/><path class="cls-1" d="m131.29,22.81c1.56-4.33-1.66-6.28-4.25-9.14-3.43-3.79,2.05-8.85,4.72-10.78-1.56,4.33,1.66,6.28,4.25,9.15,3.43,3.79-2.05,8.85-4.72,10.78h0Z"/><path class="cls-3" d="m30.58,6.76c4.75,0,6.1,4.16,5.96,7.83h-9.79c.09,2.98,2.2,5.1,5.5,5.09,1.23,0,2.4-.19,3.92-.79v2.02c-1.57.45-3.04.69-4.68.7-6.17.03-7.43-5.09-7.43-7.43,0-3.7,2.21-7.43,6.53-7.43h0Zm3.21,6.06c.06-1.93-.76-4.13-3.23-4.13-2.33,0-3.46,2.23-3.57,4.13h6.8Z"/><polygon class="cls-2" points="5.36 21.3 8.4 21.3 11.84 10.31 11.98 10.31 15.29 21.29 18.33 21.29 22.89 7.09 20.61 7.09 17.02 18.83 16.9 18.83 13.38 7.08 10.73 7.08 7.1 18.83 6.99 18.83 3.49 7.08 .83 7.08 5.36 21.3 5.36 21.3"/><path class="cls-2" d="m42.62,7.08v-2.96s-2.59.46-2.59.46v2.5s-1.76,0-1.76,0v1.93h1.76v8.99c0,1.42,1.22,3.61,4.62,3.61.56,0,1.07-.09,1.74-.26v-1.77c-.48.09-.65.1-.96.1-2.13,0-2.81-.85-2.81-2.67v-8h3.8v-1.93h-3.8Z"/><polygon class="cls-2" points="48.46 21.3 59.97 21.3 59.97 19.36 51.59 19.36 59.82 9.01 59.82 7.08 48.85 7.08 48.85 9.01 56.71 9.01 48.46 19.36 48.46 21.3 48.46 21.3"/><polygon class="cls-2" points="63.23 7.08 65.81 7.08 65.81 21.3 63.23 21.3 63.23 7.08 63.23 7.08"/><polygon class="cls-2" points="69.99 21.33 72.57 21.33 72.57 14.78 79.59 21.33 83.1 21.33 74.94 13.78 81.87 7.12 78.92 7.11 72.57 13.31 72.57 7.12 69.99 7.12 69.99 21.33 69.99 21.33"/><path class="cls-2" d="m89.63,19.72c-3.14,0-4.05-2.84-4.05-5.5s.91-5.5,4.05-5.5,4.05,2.84,4.05,5.5-.91,5.5-4.05,5.5h0Zm0,1.93c5.82,0,6.78-5.09,6.78-7.43,0-3.19-1.45-7.43-6.78-7.43s-6.78,4.24-6.78,7.43c0,2.33.97,7.43,6.78,7.43h0Z"/><path class="cls-2" d="m102.2,7.12h-2.6v14.21h2.6v-9.2c1.05-1.58,2.67-3.08,4.78-3.08,1.25,0,2.2.8,2.2,2.17v10.11h2.58v-10.43c0-2.12-1.48-4.1-4.15-4.1-2.27,0-4.15,1.26-5.4,2.98v-2.65h0Z"/><path class="cls-3" d="m71.39,47.68c0,.66-.11,1.26-.33,1.8s-.53.99-.94,1.37c-.41.38-.91.67-1.5.87-.59.21-1.3.31-2.12.31h-1.51v4.79c0,.05-.02.1-.05.14s-.08.07-.14.1c-.07.02-.15.04-.27.06-.11.02-.26.03-.43.03s-.31,0-.43-.03-.2-.04-.27-.06-.12-.06-.14-.1c-.03-.04-.04-.09-.04-.14v-12.27c0-.27.07-.47.22-.59.14-.12.3-.17.48-.17h2.85c.29,0,.56.01.83.04.26.02.58.08.94.15.36.08.73.23,1.1.44.37.22.69.48.95.8.26.32.46.68.6,1.09.14.41.21.87.21,1.37Zm-1.86.14c0-.54-.1-.99-.3-1.36s-.45-.63-.75-.81-.61-.29-.92-.34c-.32-.05-.63-.07-.93-.07h-1.63v5.33h1.59c.53,0,.98-.07,1.33-.21.35-.14.65-.33.89-.57.24-.24.42-.53.54-.87.12-.34.18-.71.18-1.1Z"/><path class="cls-3" d="m82.03,56.83c0,.05-.01.1-.04.14-.03.04-.07.07-.14.1-.07.03-.15.05-.26.06-.11.01-.25.02-.41.02s-.3,0-.41-.02c-.11-.01-.2-.03-.26-.06-.07-.03-.11-.06-.14-.1s-.04-.08-.04-.14v-12.55s-.03.04-.06.05c-.03.01-.07.02-.11.02-.08,0-.2-.02-.36-.06-.16-.04-.34-.07-.52-.1-.18-.03-.35-.05-.52-.06-.16-.01-.32-.02-.47-.02-.42,0-.77.04-1.05.13-.27.09-.49.22-.65.4-.16.18-.27.41-.32.69-.06.28-.09.61-.09.99v1.01h1.9c.05,0,.1.01.14.04s.08.07.11.12c.03.06.05.13.07.22.01.09.02.2.02.33,0,.25-.03.42-.09.53-.06.11-.14.16-.25.16h-1.9v8.11c0,.05-.01.1-.04.14s-.07.07-.14.1c-.07.03-.15.05-.26.06-.11.01-.25.02-.41.02s-.3,0-.41-.02c-.11-.01-.2-.03-.26-.06-.07-.03-.11-.06-.14-.1-.03-.04-.04-.08-.04-.14v-8.11h-1.31c-.11,0-.19-.05-.25-.16-.05-.11-.08-.29-.08-.53,0-.13,0-.24.02-.33s.03-.16.06-.22c.03-.06.06-.1.1-.12s.09-.04.14-.04h1.31v-.99c0-.64.07-1.19.22-1.64.14-.46.36-.83.66-1.13.3-.29.68-.51,1.14-.65s1.01-.21,1.64-.21c.18,0,.36,0,.55.02.19.01.38.03.56.06s.34.05.47.07.24.05.32.07c.08.02.14.05.19.09.05.03.08.08.1.13,0-.07.02-.12.05-.16s.07-.08.12-.11c.06-.03.14-.06.25-.07s.25-.02.43-.02c.16,0,.3,0,.41.02s.2.03.26.06c.07.03.11.06.14.1.03.04.04.09.04.14v13.73Z"/><path class="cls-3" d="m93.06,51.8c0,.27-.07.46-.2.57-.13.11-.29.17-.46.17h-6.09c0,.51.05.98.15,1.39.1.41.28.76.52,1.06.24.29.55.52.94.68.39.16.86.24,1.41.24.44,0,.83-.04,1.18-.11.34-.07.64-.15.89-.24s.46-.17.62-.24c.16-.07.28-.11.37-.11.05,0,.09.01.13.04.04.02.07.06.09.11.02.05.04.11.05.2.01.09.02.19.02.31,0,.09,0,.17-.01.23s-.02.12-.03.17c0,.05-.03.1-.05.14-.02.04-.05.08-.09.12-.04.04-.15.1-.33.19-.18.09-.42.17-.72.25s-.64.16-1.02.22c-.39.06-.8.1-1.24.1-.76,0-1.43-.11-2-.32s-1.05-.53-1.44-.95c-.39-.42-.68-.94-.88-1.57-.2-.63-.3-1.36-.3-2.2s.1-1.51.31-2.14c.21-.63.5-1.17.89-1.61.39-.44.85-.78,1.4-1.02s1.16-.35,1.84-.35c.73,0,1.34.12,1.85.35.51.23.93.55,1.26.94.33.39.57.86.72,1.39s.23,1.1.23,1.7v.31Zm-1.71-.5c.02-.89-.18-1.59-.59-2.1-.42-.51-1.04-.76-1.86-.76-.42,0-.79.08-1.11.24-.32.16-.58.37-.8.63-.21.26-.38.56-.5.91-.12.35-.18.71-.2,1.08h5.05Z"/><path class="cls-3" d="m103.26,48c0,.24-.03.41-.1.52s-.15.16-.25.16h-1.33c.24.25.41.52.5.82.1.3.14.61.14.93,0,.53-.09,1.01-.26,1.42-.17.41-.42.76-.73,1.04-.32.28-.7.5-1.14.65-.44.15-.92.23-1.46.23-.38,0-.73-.05-1.07-.15-.34-.1-.6-.22-.79-.37-.12.12-.22.26-.3.42-.08.16-.12.34-.12.54,0,.24.11.44.33.6.22.16.52.24.89.26l2.42.1c.46.01.88.08,1.26.19.38.11.72.27,1,.48.28.21.5.47.66.77.16.3.24.66.24,1.06,0,.42-.09.83-.27,1.21-.18.38-.45.72-.82,1.01-.37.29-.83.52-1.4.69-.57.17-1.24.25-2.01.25s-1.38-.06-1.91-.19c-.52-.13-.95-.3-1.29-.52-.34-.22-.58-.48-.73-.79-.15-.3-.23-.64-.23-.99,0-.23.03-.45.08-.66.05-.21.14-.41.25-.61.11-.19.25-.37.42-.55.17-.17.36-.35.58-.52-.34-.17-.58-.39-.75-.65-.16-.26-.24-.54-.24-.84,0-.42.09-.79.26-1.12.17-.33.38-.62.64-.88-.21-.25-.38-.54-.5-.86-.12-.32-.18-.7-.18-1.16,0-.53.09-1,.27-1.42.18-.42.42-.77.74-1.06s.69-.51,1.14-.66c.44-.15.92-.23,1.44-.23.28,0,.54.02.79.05.24.03.47.07.68.13h2.8c.12,0,.2.06.26.17.06.11.09.29.09.52Zm-1.8,9.76c0-.4-.16-.7-.49-.92-.33-.22-.77-.33-1.32-.34l-2.39-.08c-.22.17-.4.33-.54.49-.14.15-.25.3-.33.44-.08.14-.14.28-.17.42-.03.14-.05.28-.05.42,0,.45.23.78.68,1.01.45.23,1.08.34,1.89.34.51,0,.94-.05,1.29-.15.35-.1.62-.23.84-.4.21-.16.36-.35.46-.57.09-.21.14-.44.14-.67Zm-.85-7.33c0-.63-.17-1.12-.52-1.47-.35-.35-.84-.53-1.47-.53-.33,0-.61.05-.86.16-.24.11-.45.26-.61.45-.16.19-.28.41-.36.66-.08.25-.12.51-.12.79,0,.61.17,1.09.52,1.44s.83.52,1.45.52c.34,0,.63-.05.87-.16.25-.11.45-.25.61-.44.16-.19.28-.41.36-.65.08-.25.12-.5.12-.77Z"/><path class="cls-3" d="m113.22,51.8c0,.27-.07.46-.2.57-.13.11-.29.17-.46.17h-6.09c0,.51.05.98.15,1.39.1.41.28.76.52,1.06.24.29.55.52.94.68.39.16.86.24,1.41.24.44,0,.83-.04,1.18-.11.34-.07.64-.15.89-.24s.46-.17.62-.24c.16-.07.28-.11.37-.11.05,0,.09.01.13.04.04.02.07.06.09.11.02.05.04.11.05.2.01.09.02.19.02.31,0,.09,0,.17-.01.23s-.02.12-.03.17c0,.05-.03.1-.05.14-.02.04-.05.08-.09.12-.04.04-.15.1-.33.19-.18.09-.42.17-.72.25s-.64.16-1.02.22c-.39.06-.8.1-1.24.1-.76,0-1.43-.11-2-.32s-1.05-.53-1.44-.95c-.39-.42-.68-.94-.88-1.57-.2-.63-.3-1.36-.3-2.2s.1-1.51.31-2.14c.21-.63.5-1.17.89-1.61.39-.44.85-.78,1.4-1.02s1.16-.35,1.84-.35c.73,0,1.34.12,1.85.35.51.23.93.55,1.26.94.33.39.57.86.72,1.39s.23,1.1.23,1.7v.31Zm-1.71-.5c.02-.89-.18-1.59-.59-2.1-.42-.51-1.04-.76-1.86-.76-.42,0-.79.08-1.11.24-.32.16-.58.37-.8.63-.21.26-.38.56-.5.91-.12.35-.18.71-.2,1.08h5.05Z"/><path class="cls-3" d="m121.6,56.36c0,.13-.01.24-.03.33-.02.09-.04.17-.07.23-.03.06-.07.1-.11.12s-.1.04-.15.04h-5.69c-.14,0-.26-.05-.35-.14-.09-.1-.14-.26-.14-.48v-.35c0-.1,0-.18.02-.26.01-.08.03-.15.06-.23.03-.08.07-.16.11-.24.05-.09.11-.18.17-.29l4.08-6.35h-3.96c-.11,0-.2-.06-.26-.17s-.1-.3-.1-.55c0-.12,0-.23.02-.32.01-.09.04-.17.07-.23s.07-.1.11-.12.1-.04.16-.04h5.3c.08,0,.14.01.2.03.06.02.11.06.15.1.04.05.07.11.1.18.02.08.04.17.04.29v.33c0,.1,0,.18-.02.27s-.03.16-.06.24c-.03.08-.07.16-.11.25-.05.09-.11.19-.17.3l-4.06,6.35h4.34c.05,0,.1.01.15.04s.08.06.11.12.06.13.08.22c.02.09.03.2.03.33Z"/><path class="cls-3" d="m131.36,51.8c0,.27-.07.46-.2.57-.13.11-.29.17-.46.17h-6.09c0,.51.05.98.15,1.39.1.41.28.76.52,1.06.24.29.55.52.94.68.39.16.86.24,1.41.24.44,0,.83-.04,1.18-.11.34-.07.64-.15.89-.24s.46-.17.62-.24c.16-.07.28-.11.37-.11.05,0,.09.01.13.04.04.02.07.06.09.11.02.05.04.11.05.2.01.09.02.19.02.31,0,.09,0,.17-.01.23s-.02.12-.03.17c0,.05-.03.1-.05.14-.02.04-.05.08-.09.12-.04.04-.15.1-.33.19-.18.09-.42.17-.72.25s-.64.16-1.02.22c-.39.06-.8.1-1.24.1-.76,0-1.43-.11-2-.32s-1.05-.53-1.44-.95c-.39-.42-.68-.94-.88-1.57-.2-.63-.3-1.36-.3-2.2s.1-1.51.31-2.14c.21-.63.5-1.17.89-1.61.39-.44.85-.78,1.4-1.02s1.16-.35,1.84-.35c.73,0,1.34.12,1.85.35.51.23.93.55,1.26.94.33.39.57.86.72,1.39s.23,1.1.23,1.7v.31Zm-1.71-.5c.02-.89-.18-1.59-.59-2.1-.42-.51-1.04-.76-1.86-.76-.42,0-.79.08-1.11.24-.32.16-.58.37-.8.63-.21.26-.38.56-.5.91-.12.35-.18.71-.2,1.08h5.05Z"/><path class="cls-3" d="m141.91,56.83c0,.05-.01.1-.04.14-.03.04-.07.07-.13.1-.06.03-.15.05-.26.06-.11.01-.25.02-.41.02s-.31,0-.42-.02c-.11-.01-.19-.03-.26-.06-.06-.03-.11-.06-.13-.1-.03-.04-.04-.08-.04-.14v-5.42c0-.53-.04-.95-.12-1.27s-.2-.6-.36-.83c-.16-.23-.36-.41-.61-.53-.25-.12-.54-.18-.87-.18-.42,0-.85.15-1.27.45-.42.3-.87.74-1.34,1.33v6.46c0,.05-.01.1-.04.14s-.07.07-.13.1c-.06.03-.15.05-.26.06-.11.01-.25.02-.42.02s-.3,0-.41-.02c-.11-.01-.2-.03-.26-.06-.07-.03-.11-.06-.13-.1-.02-.04-.04-.08-.04-.14v-9.25c0-.05.01-.1.03-.14.02-.04.06-.07.12-.1.06-.03.14-.05.24-.06.1-.01.22-.02.38-.02s.28,0,.37.02c.1.01.18.03.23.06.06.03.09.07.12.1.02.04.04.08.04.14v1.22c.52-.58,1.04-1.01,1.56-1.28.52-.27,1.04-.41,1.57-.41.62,0,1.14.1,1.56.31.42.21.76.49,1.02.84.26.35.45.76.56,1.23.11.47.17,1.03.17,1.69v5.64Z"/><path class="cls-3" d="m149.81,56.15c0,.2-.01.36-.04.47-.03.12-.07.2-.12.26-.05.05-.14.11-.25.15s-.23.09-.37.12c-.14.03-.29.06-.45.08-.16.02-.32.03-.47.03-.48,0-.89-.06-1.23-.19s-.62-.32-.84-.58c-.22-.26-.38-.58-.48-.98-.1-.39-.15-.86-.15-1.39v-5.41h-1.29c-.1,0-.18-.05-.25-.16-.06-.11-.09-.29-.09-.53,0-.13,0-.24.03-.33.02-.09.04-.16.07-.22s.06-.1.11-.12.09-.04.15-.04h1.28v-2.2s.01-.09.04-.13c.02-.04.07-.08.13-.11.07-.03.15-.05.26-.07.11-.01.25-.02.41-.02s.31,0,.42.02c.11.01.2.04.26.07s.11.07.13.11c.03.04.04.09.04.13v2.2h2.37c.05,0,.1.01.14.04.04.02.08.07.11.12s.05.13.07.22c.01.09.02.2.02.33,0,.25-.03.42-.09.53-.06.11-.14.16-.25.16h-2.37v5.16c0,.64.09,1.12.28,1.44.19.33.53.49,1.01.49.16,0,.3-.02.42-.05.12-.03.23-.06.33-.1.1-.03.18-.07.25-.1.07-.03.13-.05.18-.05.03,0,.07,0,.1.03.03.02.05.05.07.1.02.05.03.11.05.2.01.08.02.18.02.31Z"/><path class="cls-3" d="m157.45,48.18c0,.15,0,.28-.01.38,0,.1-.02.18-.04.24s-.05.1-.08.13c-.03.03-.07.05-.13.05s-.12-.02-.2-.05c-.08-.03-.17-.06-.27-.09-.1-.03-.21-.06-.33-.09-.12-.03-.26-.04-.4-.04-.17,0-.34.03-.5.1-.16.07-.34.18-.52.34-.18.16-.37.37-.57.63-.2.26-.42.58-.66.96v6.08c0,.05-.01.1-.04.14s-.07.07-.13.1c-.06.03-.15.05-.26.06-.11.01-.25.02-.42.02s-.3,0-.41-.02c-.11-.01-.2-.03-.26-.06-.07-.03-.11-.06-.13-.1-.02-.04-.04-.08-.04-.14v-9.25c0-.05.01-.1.03-.14.02-.04.06-.07.12-.1.06-.03.14-.05.24-.06.1-.01.22-.02.38-.02s.28,0,.37.02c.1.01.18.03.23.06.06.03.09.07.12.1.02.04.04.08.04.14v1.35c.25-.37.49-.67.71-.9.22-.23.43-.42.63-.55s.4-.23.59-.28c.2-.05.39-.08.59-.08.09,0,.19,0,.3.02.11.01.23.03.35.06.12.03.23.06.33.09.1.03.17.07.21.1.04.03.07.07.08.1.01.03.03.07.04.12s.02.12.02.21,0,.22,0,.37Z"/><path class="cls-3" d="m167.31,56.83c0,.05-.01.1-.04.14-.02.04-.07.07-.13.1-.06.03-.14.05-.24.06-.1.01-.22.02-.36.02-.16,0-.29,0-.39-.02-.1-.01-.18-.03-.24-.06-.06-.03-.1-.06-.12-.1s-.03-.08-.03-.14v-1.22c-.53.58-1.05,1.01-1.56,1.27s-1.03.4-1.56.4c-.62,0-1.14-.1-1.56-.31-.42-.21-.76-.48-1.02-.84-.26-.35-.45-.76-.56-1.23s-.17-1.04-.17-1.71v-5.61c0-.05.01-.1.04-.14.02-.04.07-.07.14-.1.07-.03.16-.05.27-.06.11-.01.25-.02.41-.02s.3,0,.41.02c.11.01.2.03.26.06s.11.07.14.1c.03.04.04.08.04.14v5.38c0,.54.04.97.12,1.3.08.33.2.6.36.83.16.23.36.41.61.53.25.13.53.19.86.19.42,0,.85-.15,1.27-.45.42-.3.87-.74,1.34-1.33v-6.46c0-.05.01-.1.04-.14.02-.04.07-.07.14-.1.07-.03.16-.05.26-.06.11-.01.24-.02.42-.02s.3,0,.41.02c.11.01.19.03.26.06s.11.07.14.1c.03.04.05.08.05.14v9.25Z"/><path class="cls-3" d="m184.16,56.83c0,.05-.01.1-.04.14-.03.04-.07.07-.13.1-.06.03-.15.05-.26.06-.11.01-.25.02-.41.02s-.31,0-.42-.02c-.11-.01-.2-.03-.26-.06-.07-.03-.11-.06-.14-.1s-.04-.08-.04-.14v-5.62c0-.39-.03-.75-.1-1.07-.07-.32-.18-.6-.33-.83-.15-.23-.34-.41-.58-.53s-.51-.18-.82-.18c-.39,0-.78.15-1.18.45-.39.3-.83.74-1.3,1.33v6.46c0,.05-.01.1-.04.14-.03.04-.07.07-.14.1-.07.03-.15.05-.26.06-.11.01-.25.02-.41.02s-.29,0-.41-.02c-.11-.01-.2-.03-.27-.06-.07-.03-.11-.06-.13-.1-.02-.04-.04-.08-.04-.14v-5.62c0-.39-.04-.75-.11-1.07-.08-.32-.19-.6-.34-.83s-.34-.41-.57-.53-.5-.18-.82-.18c-.39,0-.78.15-1.18.45-.4.3-.83.74-1.29,1.33v6.46c0,.05-.01.1-.04.14s-.07.07-.13.1c-.06.03-.15.05-.26.06-.11.01-.25.02-.42.02s-.3,0-.41-.02c-.11-.01-.2-.03-.26-.06-.07-.03-.11-.06-.13-.1-.02-.04-.04-.08-.04-.14v-9.25c0-.05.01-.1.03-.14.02-.04.06-.07.12-.1.06-.03.14-.05.24-.06.1-.01.22-.02.38-.02s.28,0,.37.02c.1.01.18.03.23.06.06.03.09.07.12.1.02.04.04.08.04.14v1.22c.52-.58,1.03-1.01,1.52-1.28.49-.27.98-.41,1.48-.41.38,0,.73.04,1.03.13.3.09.57.21.81.38s.43.35.6.58c.16.22.3.47.41.74.31-.34.6-.62.88-.85.28-.23.54-.42.8-.57.26-.14.51-.25.75-.31.24-.07.49-.1.73-.1.6,0,1.1.1,1.5.31.4.21.73.49.98.84.25.35.43.76.53,1.23.11.47.16.96.16,1.48v5.85Z"/><path class="cls-3" d="m75.96,81.94c-.03.1-.07.17-.12.23s-.13.1-.23.13c-.1.03-.21.05-.35.07-.14.01-.31.02-.52.02s-.39,0-.54-.02c-.15-.01-.27-.04-.36-.07-.1-.03-.17-.08-.22-.13-.05-.06-.09-.14-.11-.23l-2.78-10.04h-.02l-2.57,10.04c-.02.1-.05.17-.1.23s-.12.1-.21.13c-.09.03-.2.05-.34.07-.14.01-.32.02-.54.02s-.41,0-.57-.02c-.15-.01-.27-.04-.37-.07s-.17-.08-.22-.13-.09-.14-.11-.23l-3.51-12.28c-.04-.16-.06-.28-.07-.37,0-.09.02-.16.08-.21s.15-.08.28-.09c.13-.01.3-.02.52-.02s.38,0,.5.02c.12.01.22.03.28.06s.11.07.13.11c.02.05.04.11.06.19l2.99,11.14h.01l2.84-11.12c.02-.08.05-.14.08-.19.03-.05.08-.09.15-.12.07-.03.17-.05.29-.06.13-.01.29-.02.5-.02.19,0,.34,0,.46.02.11.01.2.03.27.06.07.03.12.07.15.12.03.05.06.11.08.19l3.05,11.12h.02l2.93-11.13c.02-.07.04-.13.06-.18.02-.05.06-.09.13-.12s.16-.05.28-.06c.12-.01.28-.02.48-.02s.37,0,.49.03.21.05.26.1c.05.05.08.12.08.21,0,.09-.02.21-.06.37l-3.52,12.27Z"/><path class="cls-3" d="m83.64,69.7c0,.4-.08.67-.23.81-.15.14-.43.22-.83.22s-.67-.07-.82-.21-.22-.41-.22-.8.08-.67.23-.81c.15-.14.43-.22.83-.22s.67.07.82.21.22.41.22.8Zm-.2,12.37c0,.05-.01.1-.04.14s-.07.07-.13.1c-.06.03-.15.05-.26.06-.11.01-.25.02-.42.02s-.3,0-.41-.02c-.11-.01-.2-.03-.26-.06-.07-.03-.11-.06-.13-.1-.02-.04-.04-.08-.04-.14v-9.25s.01-.09.04-.13c.02-.04.07-.08.13-.1.06-.03.15-.05.26-.06.11-.01.25-.02.41-.02s.31,0,.42.02c.11.01.2.03.26.06.06.03.11.06.13.1s.04.09.04.13v9.25Z"/><path class="cls-3" d="m88.28,82.08c0,.05-.01.1-.04.14s-.07.07-.13.1c-.06.03-.15.05-.26.06-.11.01-.25.02-.42.02s-.3,0-.41-.02c-.11-.01-.2-.03-.26-.06-.07-.03-.11-.06-.13-.1-.02-.04-.04-.08-.04-.14v-13.73c0-.05.01-.1.04-.14.02-.04.07-.08.13-.1.07-.03.15-.05.26-.06s.25-.02.41-.02.31,0,.42.02c.11.01.19.03.26.06.06.03.11.06.13.1s.04.09.04.14v13.73Z"/><path class="cls-3" d="m99.33,82.08c0,.05-.01.1-.04.14-.02.04-.07.07-.12.1-.06.02-.14.04-.23.06-.1.01-.21.02-.35.02-.14,0-.26,0-.36-.02-.1-.01-.17-.03-.24-.06-.06-.02-.11-.06-.13-.1-.03-.04-.04-.09-.04-.14v-1.22c-.49.53-.99.94-1.52,1.23-.52.29-1.1.44-1.72.44-.68,0-1.26-.13-1.74-.4-.48-.26-.87-.62-1.17-1.07-.3-.45-.52-.98-.65-1.58s-.21-1.24-.21-1.92c0-.79.09-1.51.26-2.15s.42-1.19.76-1.64c.34-.45.75-.8,1.25-1.04.5-.24,1.07-.36,1.72-.36.54,0,1.04.12,1.48.35s.89.58,1.33,1.04v-5.37s.01-.09.04-.14c.02-.04.07-.08.14-.1.07-.02.16-.04.26-.06.11-.02.24-.03.41-.03s.31,0,.42.03c.11.02.19.04.26.06s.11.06.14.1c.03.04.05.09.05.14v13.69Zm-1.71-6.5c-.46-.57-.9-1-1.33-1.3s-.87-.45-1.34-.45c-.43,0-.8.1-1.1.31s-.55.48-.73.81c-.19.34-.33.72-.41,1.14-.09.42-.13.86-.13,1.29,0,.47.04.92.11,1.37s.2.84.37,1.19.41.62.71.83c.29.21.66.31,1.11.31.23,0,.44-.03.65-.09.21-.06.42-.16.64-.31.22-.14.45-.33.69-.56.24-.23.49-.51.76-.85v-3.7Z"/><path class="cls-3" d="m110.98,77.33c0,.8-.09,1.52-.26,2.16-.17.64-.43,1.19-.77,1.64-.34.45-.76.8-1.25,1.04s-1.06.36-1.7.36c-.29,0-.57-.03-.82-.09s-.49-.15-.73-.28c-.24-.13-.48-.29-.72-.49-.24-.2-.49-.44-.76-.72v1.13c0,.05-.01.1-.04.14-.03.04-.07.07-.13.1-.06.02-.14.04-.23.06-.09.01-.21.02-.35.02s-.25,0-.35-.02c-.1-.01-.17-.03-.24-.06-.06-.02-.1-.06-.12-.1s-.03-.09-.03-.14v-13.73c0-.05.01-.1.04-.14.02-.04.07-.08.13-.1.07-.03.15-.05.26-.06s.25-.02.41-.02.31,0,.42.02c.11.01.19.03.26.06.06.03.11.06.13.1s.04.09.04.14v5.54c.27-.28.54-.52.8-.71.26-.19.51-.35.76-.47.25-.12.49-.21.74-.26.25-.05.51-.08.78-.08.67,0,1.24.13,1.72.4.48.27.86.63,1.16,1.07.3.45.52.97.65,1.58.14.6.21,1.24.21,1.91Zm-1.76.2c0-.47-.04-.93-.11-1.38s-.2-.84-.38-1.18-.42-.62-.71-.83c-.3-.21-.66-.31-1.11-.31-.22,0-.44.03-.65.09-.21.06-.43.16-.65.31-.22.14-.45.33-.69.55-.24.23-.49.51-.76.85v3.69c.47.57.92,1,1.34,1.3.43.3.87.45,1.33.45.43,0,.79-.1,1.1-.31s.55-.48.74-.82c.19-.34.33-.72.41-1.14.09-.42.13-.85.13-1.28Z"/><path class="cls-3" d="m120.49,82.09c0,.08-.03.14-.08.19-.06.04-.13.07-.23.09-.1.02-.24.03-.42.03s-.32-.01-.43-.03c-.11-.02-.18-.05-.23-.09-.05-.04-.07-.1-.07-.19v-.92c-.4.43-.85.77-1.35,1.01s-1.02.36-1.58.36c-.49,0-.93-.06-1.32-.19-.39-.13-.73-.31-1.01-.55-.28-.24-.49-.53-.65-.88-.15-.35-.23-.75-.23-1.19,0-.52.11-.97.32-1.36.21-.38.52-.7.91-.96.4-.25.88-.44,1.46-.57.58-.13,1.22-.19,1.94-.19h1.27v-.72c0-.36-.04-.67-.11-.95-.08-.27-.2-.5-.37-.68-.17-.18-.39-.32-.65-.41-.27-.09-.6-.14-.99-.14-.42,0-.79.05-1.13.15s-.62.21-.87.33c-.25.12-.46.23-.63.33-.17.1-.29.15-.37.15-.05,0-.1-.01-.14-.04-.04-.03-.08-.07-.11-.12-.03-.05-.05-.12-.07-.21-.01-.09-.02-.18-.02-.28,0-.17.01-.31.04-.41.02-.1.08-.19.17-.28.09-.09.25-.19.48-.31.23-.12.49-.23.78-.33s.62-.18.97-.25.7-.1,1.06-.1c.66,0,1.23.08,1.7.23.47.15.84.37,1.13.66.29.29.5.65.63,1.08.13.43.2.94.2,1.51v6.24Zm-1.69-4.22h-1.45c-.47,0-.87.04-1.21.12-.34.08-.63.2-.85.35-.23.15-.39.34-.5.55-.11.22-.16.46-.16.74,0,.48.15.86.46,1.15.31.28.73.43,1.28.43.45,0,.86-.11,1.24-.34.38-.23.78-.57,1.2-1.04v-1.96Z"/><path class="cls-3" d="m130.25,80.67c0,.12,0,.22,0,.3,0,.09-.02.16-.04.22-.02.06-.04.11-.06.15-.02.04-.08.11-.16.2s-.23.19-.44.32c-.21.13-.44.24-.69.34-.26.1-.54.18-.84.24-.3.06-.61.09-.94.09-.66,0-1.25-.11-1.77-.33s-.94-.54-1.29-.96c-.35-.42-.61-.94-.79-1.55s-.27-1.32-.27-2.12c0-.91.11-1.69.33-2.35.22-.65.53-1.19.91-1.61.39-.42.84-.73,1.37-.93.52-.2,1.09-.3,1.7-.3.29,0,.58.03.86.08.28.05.53.13.77.22.23.09.44.19.62.31s.31.22.4.3.14.15.17.2c.03.05.06.1.08.17.02.07.03.14.04.22s.01.18.01.31c0,.27-.03.45-.09.56s-.14.16-.23.16c-.1,0-.22-.06-.35-.17-.13-.11-.3-.24-.51-.37-.21-.14-.45-.26-.74-.37-.29-.11-.64-.17-1.03-.17-.82,0-1.44.31-1.88.94-.44.63-.65,1.54-.65,2.73,0,.6.06,1.12.17,1.57.11.45.28.82.5,1.13s.49.53.81.67c.32.15.68.22,1.09.22s.73-.06,1.03-.19c.29-.12.55-.26.77-.41.22-.15.4-.28.54-.4.15-.12.26-.18.34-.18.05,0,.09.01.12.04.03.03.06.07.09.14.02.07.04.15.05.25,0,.1.02.22.02.35Z"/><path class="cls-3" d="m140.47,82.08c0,.05-.01.1-.04.14-.03.04-.07.07-.13.1-.06.03-.15.05-.26.06-.11.01-.25.02-.41.02s-.31,0-.42-.02c-.11-.01-.19-.03-.26-.06-.06-.03-.11-.06-.13-.1-.03-.04-.04-.08-.04-.14v-5.42c0-.53-.04-.95-.12-1.27s-.2-.6-.36-.83c-.16-.23-.36-.41-.61-.53-.25-.12-.54-.18-.87-.18-.42,0-.85.15-1.27.45-.42.3-.87.74-1.34,1.33v6.46c0,.05-.01.1-.04.14s-.07.07-.13.1c-.06.03-.15.05-.26.06-.11.01-.25.02-.42.02s-.3,0-.41-.02c-.11-.01-.2-.03-.26-.06-.07-.03-.11-.06-.13-.1-.02-.04-.04-.08-.04-.14v-13.73c0-.05.01-.1.04-.14.02-.04.07-.08.13-.1.07-.03.15-.05.26-.06s.25-.02.41-.02.31,0,.42.02c.11.01.19.03.26.06.06.03.11.06.13.1s.04.09.04.14v5.54c.49-.51.98-.9,1.47-1.15.49-.25.99-.37,1.49-.37.62,0,1.14.1,1.56.31.42.21.76.49,1.02.84.26.35.45.76.56,1.23.11.47.17,1.04.17,1.7v5.63Z"/></svg>