<?xml version="1.0" encoding="UTF-8"?><svg id="Ebene_1" xmlns="http://www.w3.org/2000/svg" viewBox="0 0 212.32 16.02"><defs><style>.cls-1{fill:#29211a;stroke-width:0px;}</style></defs><path class="cls-1" d="m0,12.87V.27h5.4c2.34,0,3.96,1.62,3.96,3.33,0,1.8-1.44,2.61-1.44,2.61,0,0,2.07.81,2.07,2.97,0,1.94-1.71,3.69-4.29,3.69H0ZM2.7,2.52v2.7h2.52c.9,0,1.44-.54,1.44-1.35s-.54-1.35-1.44-1.35h-2.52Zm2.88,8.1c.99,0,1.71-.72,1.71-1.62s-.72-1.62-1.71-1.62h-2.88v3.24h2.88Z"/><path class="cls-1" d="m20.7,7.74V.27h2.7v7.47c0,3.06-2.34,5.4-5.49,5.4s-5.49-2.34-5.49-5.4V.27h2.7v7.47c0,1.71,1.26,2.97,2.79,2.97s2.79-1.26,2.79-2.97Z"/><path class="cls-1" d="m26.55.27h5.58c2.52,0,4.32,1.84,4.32,4.14,0,2.7-2.25,3.69-2.25,3.69l2.7,4.77h-2.88l-2.43-4.41h-2.34v4.41h-2.7V.27Zm5.49,2.43h-2.79v3.33h2.79c.99,0,1.71-.72,1.71-1.62,0-.99-.72-1.71-1.71-1.71Z"/><path class="cls-1" d="m50.94,6.03v4.68s-1.89,2.43-5.49,2.43c-3.87,0-6.84-2.97-6.84-6.57s2.97-6.57,6.84-6.57c3.51,0,5.22,2.52,5.22,2.52l-1.71,1.71s-1.17-1.8-3.51-1.8-4.14,1.8-4.14,4.14,1.8,4.14,4.14,4.14c1.89,0,2.79-.99,2.79-.99v-1.71h-2.25v-1.98h4.95Z"/><path class="cls-1" d="m65.02.27h2.39v12.6h-2.7V4.46l-4.05,5.17-4.05-5.13v8.37h-2.7V.27h2.43l4.32,5.49,4.36-5.49Z"/><path class="cls-1" d="m80.1,10.44v2.43h-9.45V.27h9.27v2.43h-6.57v2.52h5.13v2.43h-5.13v2.79h6.75Z"/><path class="cls-1" d="m82.62.27h2.7v12.6h-2.7V.27Z"/><path class="cls-1" d="m94.68.27v8.55c0,2.58-1.76,4.32-4.41,4.32-2.16,0-3.33-1.53-3.33-1.53l1.62-1.62s.54.72,1.53.72c1.17,0,1.89-.72,1.89-1.89V.27h2.7Z"/><path class="cls-1" d="m107.28,10.44v2.43h-9.45V.27h9.27v2.43h-6.57v2.52h5.13v2.43h-5.13v2.79h6.75Z"/><path class="cls-1" d="m109.8.27h5.58c2.52,0,4.32,1.84,4.32,4.14,0,2.7-2.25,3.69-2.25,3.69l2.7,4.77h-2.88l-2.43-4.41h-2.34v4.41h-2.7V.27Zm5.49,2.43h-2.79v3.33h2.79c.99,0,1.71-.72,1.71-1.62,0-.99-.72-1.71-1.71-1.71Z"/><path class="cls-1" d="m126,2.37h4.65c2.1,0,3.6,1.53,3.6,3.45,0,2.25-1.88,3.08-1.88,3.08l2.25,3.97h-2.4l-2.02-3.67h-1.95v3.67h-2.25V2.37Zm4.57,2.03h-2.33v2.77h2.33c.82,0,1.42-.6,1.42-1.35,0-.83-.6-1.42-1.42-1.42Z"/><path class="cls-1" d="m138.75,10.4l-.9,2.48h-2.4l4.12-10.5h2.4l4.12,10.5h-2.4l-.9-2.48h-4.05Zm2.02-5.4l-1.27,3.45h2.55l-1.27-3.45Z"/><path class="cls-1" d="m147.6,2.37h2.25v10.5h-2.25V2.37Z"/><path class="cls-1" d="m157.12,9.35h-5.4v-1.8h5.4v1.8Z"/><path class="cls-1" d="m166.87,10.85v2.03h-7.87V2.37h7.72v2.03h-5.47v2.1h4.27v2.03h-4.27v2.32h5.62Z"/><path class="cls-1" d="m169.8,12.87h-2.17l2.48-3.75-2.33-3.6h2.25l1.35,2.17,1.35-2.17h2.25l-2.32,3.6,2.47,3.75h-2.17l-1.57-2.33-1.58,2.33Z"/><path class="cls-1" d="m178.2,11.97v4.05h-2.02V5.52h2.02v.9s.75-1.05,2.17-1.05c1.88,0,3.52,1.65,3.52,3.83s-1.65,3.82-3.52,3.82c-1.42,0-2.17-1.05-2.17-1.05Zm0-2.77c0,1.2.83,2.02,1.8,2.02s1.8-.83,1.8-2.02-.83-2.03-1.8-2.03-1.8.83-1.8,2.03Z"/><path class="cls-1" d="m187.05,9.87c.15.75.83,1.42,1.95,1.42,1.27,0,1.95-.9,1.95-.9l1.05,1.35s-1.12,1.27-3.15,1.27c-2.17,0-3.9-1.72-3.9-3.82s1.72-3.83,3.82-3.83,3.67,1.58,3.67,3.67c0,.53-.08.83-.08.83h-5.32Zm0-1.42h3.38c-.15-.75-.75-1.35-1.65-1.35s-1.5.6-1.73,1.35Z"/><path class="cls-1" d="m198.37,7.47s-.23-.07-.67-.07c-1.05,0-1.73.67-1.73,1.95v3.53h-2.02v-7.35h2.02v.9s.75-.97,2.1-.97h.3v2.02Z"/><path class="cls-1" d="m200.4,3.35h1.8v2.32h1.5v1.8h-1.5v2.92c0,.45.38.83.9.83.45,0,.75-.15.75-.15v1.72s-.6.22-1.35.22c-1.5,0-2.33-.82-2.33-2.55v-3h-1.27v-1.8h.68c.45,0,.82-.38.82-.97v-1.35Z"/><path class="cls-1" d="m206.92,9.87c.15.75.83,1.42,1.95,1.42,1.27,0,1.95-.9,1.95-.9l1.05,1.35s-1.12,1.27-3.15,1.27c-2.17,0-3.9-1.72-3.9-3.82s1.72-3.83,3.82-3.83,3.67,1.58,3.67,3.67c0,.53-.08.83-.08.83h-5.32Zm0-1.42h3.38c-.15-.75-.75-1.35-1.65-1.35s-1.5.6-1.73,1.35Z"/></svg>