<?xml version="1.0" encoding="UTF-8"?><svg id="Ebene_1" xmlns="http://www.w3.org/2000/svg" viewBox="0 0 121.89 34.01"><defs><style>.cls-1{fill:#007f8a;stroke-width:0px;}</style></defs><path class="cls-1" d="m.27,13.03V.27h5.47c2.37,0,4.01,1.64,4.01,3.37,0,1.82-1.46,2.64-1.46,2.64,0,0,2.1.82,2.1,3.01,0,1.97-1.73,3.74-4.34,3.74H.27ZM3.01,2.55v2.73h2.55c.91,0,1.46-.55,1.46-1.37s-.55-1.37-1.46-1.37h-2.55Zm2.92,8.2c1,0,1.73-.73,1.73-1.64s-.73-1.64-1.73-1.64h-2.92v3.28h2.92Z"/><path class="cls-1" d="m21.23,7.84V.27h2.73v7.56c0,3.1-2.37,5.47-5.56,5.47s-5.56-2.37-5.56-5.47V.27h2.73v7.56c0,1.73,1.28,3.01,2.82,3.01s2.83-1.28,2.83-3.01Z"/><path class="cls-1" d="m27.15.27h5.65c2.55,0,4.37,1.86,4.37,4.19,0,2.73-2.28,3.74-2.28,3.74l2.73,4.83h-2.92l-2.46-4.46h-2.37v4.46h-2.73V.27Zm5.56,2.46h-2.83v3.37h2.83c1,0,1.73-.73,1.73-1.64,0-1-.73-1.73-1.73-1.73Z"/><path class="cls-1" d="m51.84,6.11v4.74s-1.91,2.46-5.56,2.46c-3.92,0-6.93-3.01-6.93-6.65s3.01-6.65,6.93-6.65c3.55,0,5.29,2.55,5.29,2.55l-1.73,1.73s-1.19-1.82-3.55-1.82-4.19,1.82-4.19,4.19,1.82,4.19,4.19,4.19c1.91,0,2.83-1,2.83-1v-1.73h-2.28v-2h5.01Z"/><path class="cls-1" d="m66.09.27h2.42v12.76h-2.73V4.52l-4.1,5.23-4.1-5.19v8.47h-2.73V.27h2.46l4.37,5.56,4.41-5.56Z"/><path class="cls-1" d="m81.35,10.57v2.46h-9.57V.27h9.39v2.46h-6.65v2.55h5.19v2.46h-5.19v2.83h6.83Z"/><path class="cls-1" d="m83.9.27h2.73v12.76h-2.73V.27Z"/><path class="cls-1" d="m96.11.27v8.66c0,2.61-1.79,4.37-4.46,4.37-2.19,0-3.37-1.55-3.37-1.55l1.64-1.64s.55.73,1.55.73c1.18,0,1.91-.73,1.91-1.91V.27h2.73Z"/><path class="cls-1" d="m108.86,10.57v2.46h-9.57V.27h9.39v2.46h-6.65v2.55h5.19v2.46h-5.19v2.83h6.83Z"/><path class="cls-1" d="m111.41.27h5.65c2.55,0,4.37,1.86,4.37,4.19,0,2.73-2.28,3.74-2.28,3.74l2.73,4.83h-2.92l-2.46-4.46h-2.37v4.46h-2.73V.27Zm5.56,2.46h-2.83v3.37h2.83c1,0,1.73-.73,1.73-1.64,0-1-.73-1.73-1.73-1.73Z"/><path class="cls-1" d="m0,20.2h4.71c2.13,0,3.64,1.55,3.64,3.49,0,2.28-1.9,3.11-1.9,3.11l2.28,4.02h-2.43l-2.05-3.72h-1.97v3.72H0v-10.63Zm4.63,2.05h-2.35v2.81h2.35c.83,0,1.44-.61,1.44-1.37,0-.83-.61-1.44-1.44-1.44Z"/><path class="cls-1" d="m12.91,28.32l-.91,2.51h-2.43l4.18-10.63h2.43l4.18,10.63h-2.43l-.91-2.51h-4.1Zm2.05-5.47l-1.29,3.49h2.58l-1.29-3.49Z"/><path class="cls-1" d="m21.86,20.2h2.28v10.63h-2.28v-10.63Z"/><path class="cls-1" d="m31.5,27.26h-5.47v-1.82h5.47v1.82Z"/><path class="cls-1" d="m41.37,28.78v2.05h-7.97v-10.63h7.82v2.05h-5.54v2.13h4.33v2.05h-4.33v2.35h5.69Z"/><path class="cls-1" d="m44.33,30.82h-2.2l2.5-3.8-2.35-3.64h2.28l1.37,2.2,1.37-2.2h2.28l-2.35,3.64,2.5,3.8h-2.2l-1.59-2.35-1.59,2.35Z"/><path class="cls-1" d="m52.84,29.91v4.1h-2.05v-10.63h2.05v.91s.76-1.06,2.2-1.06c1.9,0,3.57,1.67,3.57,3.87s-1.67,3.87-3.57,3.87c-1.44,0-2.2-1.06-2.2-1.06Zm0-2.81c0,1.21.84,2.05,1.82,2.05s1.82-.84,1.82-2.05-.84-2.05-1.82-2.05-1.82.83-1.82,2.05Z"/><path class="cls-1" d="m61.79,27.79c.15.76.84,1.44,1.97,1.44,1.29,0,1.97-.91,1.97-.91l1.06,1.37s-1.14,1.29-3.19,1.29c-2.2,0-3.95-1.75-3.95-3.87s1.75-3.87,3.87-3.87,3.72,1.59,3.72,3.72c0,.53-.08.83-.08.83h-5.39Zm0-1.44h3.42c-.15-.76-.76-1.37-1.67-1.37s-1.52.61-1.75,1.37Z"/><path class="cls-1" d="m73.26,25.36s-.23-.08-.68-.08c-1.06,0-1.75.68-1.75,1.97v3.57h-2.05v-7.44h2.05v.91s.76-.99,2.13-.99h.3v2.05Z"/><path class="cls-1" d="m75.31,21.18h1.82v2.35h1.52v1.82h-1.52v2.96c0,.46.38.84.91.84.45,0,.76-.15.76-.15v1.75s-.61.23-1.37.23c-1.52,0-2.35-.83-2.35-2.58v-3.04h-1.29v-1.82h.68c.46,0,.84-.38.84-.99v-1.37Z"/><path class="cls-1" d="m81.91,27.79c.15.76.84,1.44,1.97,1.44,1.29,0,1.97-.91,1.97-.91l1.06,1.37s-1.14,1.29-3.19,1.29c-2.2,0-3.95-1.75-3.95-3.87s1.75-3.87,3.87-3.87,3.72,1.59,3.72,3.72c0,.53-.08.83-.08.83h-5.39Zm0-1.44h3.42c-.15-.76-.76-1.37-1.67-1.37s-1.52.61-1.75,1.37Z"/></svg>